<svg width="161" height="67" viewBox="0 0 161 67" fill="none" xmlns="http://www.w3.org/2000/svg">
<path d="M34.9976 22.594H41.2795V24.0429H39.013V30.1536H37.276V24.0429H34.9976V22.594Z" fill="white"/>
<path d="M43.9802 24.3643C45.8125 24.3643 46.8 25.3342 46.8 27.644V27.8137H42.6774C42.8023 28.7231 43.3258 29.0868 44.0575 29.0868C44.6108 29.0868 44.9261 28.8685 45.1402 28.4745L46.7405 28.5715C46.4311 29.6385 45.5031 30.275 44.0635 30.275C42.261 30.275 41.0117 29.3657 41.0117 27.3166C41.0058 25.2858 42.2313 24.3643 43.9802 24.3643ZM45.1581 26.7528C45.1046 26.0072 44.6941 25.5525 43.9802 25.5525C43.3139 25.5525 42.8142 25.9102 42.6774 26.7528H45.1581Z" fill="white"/>
<path d="M47.7632 24.4977H49.3099V25.4555C49.7204 24.6977 50.4223 24.3643 51.154 24.3643C52.5223 24.3643 53.5574 25.4555 53.5574 27.3227C53.5574 29.1898 52.5163 30.2811 51.1659 30.2811C50.4878 30.2811 49.8393 29.9901 49.4289 29.3535V32.3119H47.7691V24.4977H47.7632ZM50.6186 28.9655C51.4217 28.9655 51.8976 28.2987 51.8976 27.3227C51.8976 26.3527 51.4217 25.6798 50.6186 25.6798C49.8215 25.6798 49.3456 26.3466 49.3456 27.3227C49.3515 28.2987 49.8274 28.9655 50.6186 28.9655Z" fill="white"/>
<path d="M54.5396 24.4977H56.0862V25.4555C56.4967 24.6977 57.1987 24.3643 57.9304 24.3643C59.2986 24.3643 60.3337 25.4555 60.3337 27.3227C60.3337 29.1898 59.2927 30.2811 57.9423 30.2811C57.2641 30.2811 56.6157 29.9901 56.2052 29.3535V32.3119H54.5455V24.4977H54.5396ZM57.4009 28.9655C58.204 28.9655 58.6799 28.2987 58.6799 27.3227C58.6799 26.3527 58.204 25.6798 57.4009 25.6798C56.6038 25.6798 56.1279 26.3466 56.1279 27.3227C56.1279 28.2987 56.6097 28.9655 57.4009 28.9655Z" fill="white"/>
<path d="M67.0198 24.4977V30.1538H65.4315V25.8435L63.7658 30.1538H61.3208V24.4977H62.9091V28.8079L64.5629 24.4977H67.0198Z" fill="white"/>
<path d="M67.8351 24.4977H73.1831V25.892H71.3389V30.1538H69.6732V25.8859H67.8291V24.4977H67.8351Z" fill="white"/>
<path d="M76.6272 24.3643C78.4356 24.3643 79.5838 25.4979 79.5838 27.3227C79.5838 29.1474 78.4416 30.2811 76.6272 30.2811C74.8187 30.2811 73.6587 29.1474 73.6587 27.3227C73.6587 25.4979 74.8128 24.3643 76.6272 24.3643ZM76.6272 28.9655C77.4541 28.9655 77.9419 28.2744 77.9419 27.3227C77.9419 26.3709 77.4541 25.6798 76.6272 25.6798C75.8003 25.6798 75.3006 26.3709 75.3006 27.3227C75.3006 28.2744 75.8003 28.9655 76.6272 28.9655Z" fill="white"/>
<path d="M80.5659 24.4977H82.1126V25.4555C82.5231 24.6977 83.2251 24.3643 83.9568 24.3643C85.325 24.3643 86.3601 25.4555 86.3601 27.3227C86.3601 29.1898 85.3191 30.2811 83.9687 30.2811C83.2905 30.2811 82.6421 29.9901 82.2316 29.3535V32.3119H80.5719V24.4977H80.5659ZM83.4273 28.9655C84.2304 28.9655 84.7063 28.2987 84.7063 27.3227C84.7063 26.3527 84.2304 25.6798 83.4273 25.6798C82.6302 25.6798 82.1543 26.3466 82.1543 27.3227C82.1543 28.2987 82.6361 28.9655 83.4273 28.9655Z" fill="white"/>
<path d="M93.0466 24.4977V30.1538H91.4583V25.8435L89.7926 30.1538H87.3477V24.4977H88.936V28.8079L90.5898 24.4977H93.0466Z" fill="white"/>
<path d="M99.2868 24.4977V30.1538H97.6271V28.1047H97.056L95.8365 30.1538H93.8853L95.4558 27.9835C94.5634 27.7652 94.0994 27.1954 94.0994 26.2982C94.0994 25.11 94.9263 24.4977 96.4611 24.4977H99.2868ZM97.6211 25.7829H96.6693C96.0863 25.7829 95.7591 26.0011 95.7591 26.4073C95.7591 26.8135 96.0863 27.0317 96.6693 27.0317H97.6211V25.7829Z" fill="white"/>
<path d="M43.998 34.1124V41.6659H43.0581L43.07 34.6762L40.7737 41.672H39.4412L37.1509 34.7004V41.672H36.2109V34.1124H37.9183L40.1193 41.1082L42.3204 34.1124H43.998Z" fill="white"/>
<path d="M47.9304 35.8826C49.5188 35.8826 50.4289 36.8647 50.4289 38.9804V39.1077H46.2469C46.3183 40.4232 47.0083 41.1022 48.0078 41.1022C48.7514 41.1022 49.2451 40.7142 49.4771 40.1322L50.3576 40.1868C50.072 41.1689 49.257 41.7933 48.0078 41.7933C46.4075 41.7933 45.3189 40.8354 45.3189 38.8349C45.3129 36.8586 46.4135 35.8826 47.9304 35.8826ZM49.5069 38.4833C49.4831 37.3072 48.8703 36.5737 47.9304 36.5737C47.0202 36.5737 46.3421 37.2223 46.2588 38.4833H49.5069Z" fill="white"/>
<path d="M57.7698 41.672L55.9078 39.1805H55.2177V41.672H54.3075V39.1805H53.6174L51.7555 41.672H50.6133L52.9214 38.7379L50.6966 36.016H51.7971L53.5877 38.4348H54.3075V36.016H55.2177V38.4348H55.9375L57.7281 36.016H58.8286L56.6038 38.7379L58.9119 41.672H57.7698Z" fill="white"/>
<path d="M64.7179 40.8961V43.1937H63.8375V41.672H60.0362V43.1937H59.1558V40.8961H59.5662C59.9291 40.108 60.0005 38.459 60.1373 36.016H64.0695V40.8961H64.7179ZM63.1415 36.7919H60.9464C60.8095 38.8349 60.7441 40.108 60.4705 40.8961H63.1415V36.7919Z" fill="white"/>
<path d="M70.3991 36.016L68.3348 42.3207C67.9541 43.5513 67.5496 43.9636 66.4728 43.9636C66.3063 43.9636 66.0921 43.9515 65.8601 43.9333V43.1997C66.0505 43.2119 66.2527 43.224 66.4193 43.224C66.9904 43.224 67.2343 43.0057 67.4901 42.1873L67.6507 41.6781H67.1331L65.0332 36.022H66.0505L67.8708 41.3022L69.4056 36.022H70.3991V36.016Z" fill="white"/>
<path d="M71.3389 36.016H72.2728V38.4045H75.1461V36.016H76.0682V41.672H75.1461V39.1805H72.2728V41.672H71.3389V36.016Z" fill="white"/>
<path d="M79.4117 38.453L81.0655 38.2893V37.7497C81.0655 37.089 80.6609 36.5615 79.7508 36.5737C79.0012 36.5737 78.4063 36.9071 78.3647 37.677H77.5081C77.5497 36.3918 78.5253 35.8826 79.7508 35.8826C81.2142 35.8826 81.9875 36.604 81.9875 37.9316V41.666H81.1428V40.502C80.8037 41.3022 80.072 41.7993 79.025 41.7993C77.7758 41.7993 77.2344 41.084 77.2344 40.1928C77.2285 39.1441 77.978 38.5924 79.4117 38.453ZM79.2927 41.1204C80.4051 41.1204 81.0595 40.3323 81.0595 39.2411V38.8955L79.5128 39.0592C78.6205 39.1441 78.1446 39.5139 78.1446 40.1625C78.1505 40.6899 78.4896 41.1204 79.2927 41.1204Z" fill="white"/>
<path d="M83.3916 36.0159H84.2482V37.2223C84.5873 36.3797 85.3071 35.8826 86.1995 35.8826C87.5558 35.8826 88.5076 36.9738 88.5076 38.8409C88.5076 40.7081 87.5558 41.7993 86.1995 41.7993C85.3726 41.7993 84.6944 41.3689 84.3256 40.5929V43.8302H83.3916V36.0159ZM85.9377 41.0537C86.955 41.0537 87.5915 40.1686 87.5915 38.8409C87.5915 37.5133 86.955 36.6282 85.9377 36.6282C84.9086 36.6282 84.278 37.5133 84.278 38.8409C84.272 40.1686 84.9086 41.0537 85.9377 41.0537Z" fill="white"/>
<path d="M91.9639 35.8826C93.5522 35.8826 94.5814 36.992 94.5814 38.841C94.5814 40.6899 93.5522 41.7993 91.9639 41.7993C90.3755 41.7993 89.3345 40.6899 89.3345 38.841C89.3345 36.992 90.3755 35.8826 91.9639 35.8826ZM91.9639 41.0537C93.0049 41.0537 93.6593 40.1686 93.6593 38.841C93.6593 37.5133 93.0049 36.6282 91.9639 36.6282C90.9169 36.6282 90.2565 37.5133 90.2565 38.841C90.2565 40.1686 90.9169 41.0537 91.9639 41.0537Z" fill="white"/>
<path d="M100.608 40.8961V43.1937H99.7272V41.672H95.9258V43.1937H95.0454V40.8961H95.4559C95.8188 40.108 95.8901 38.459 96.027 36.016H99.9592V40.8961H100.608ZM99.0311 36.7919H96.836C96.6992 38.8349 96.6337 40.108 96.3601 40.8961H99.0311V36.7919Z" fill="white"/>
<path d="M101.547 36.016H102.481V38.4045H105.355V36.016H106.277V41.672H105.355V39.1805H102.481V41.672H101.547V36.016Z" fill="white"/>
<path d="M112.119 39.9202C112.119 40.969 111.536 41.6661 110.013 41.6661H108.181H107.734V36.01H108.668V38.1803H110.013C111.542 38.1864 112.119 38.8775 112.119 39.9202ZM111.203 39.9141C111.203 39.2897 110.84 38.9017 109.941 38.9017H108.668V40.9508H109.941C110.84 40.9447 111.203 40.5507 111.203 39.9141ZM113.933 36.0161V41.6722H112.999V36.0161H113.933Z" fill="white"/>
<path d="M120.269 36.0159V41.672H119.376V36.6949L116.794 41.672H115.396V36.0159H116.295V40.993L118.877 36.0159H120.269ZM116.348 33.8092H116.973C117.003 34.2215 117.205 34.6943 117.83 34.6943C118.454 34.6943 118.656 34.2215 118.698 33.8092H119.323C119.293 34.6519 118.823 35.2581 117.83 35.2581C116.836 35.2581 116.378 34.6519 116.348 33.8092Z" fill="white"/>
<path d="M41.9873 50.3592C41.9873 52.2263 40.9046 53.3175 39.1259 53.3175H39.0546V55.3484H38.1563V53.3175H38.0908C36.3002 53.3175 35.1997 52.2263 35.1997 50.3592C35.1997 48.492 36.3002 47.4008 38.0908 47.4008H38.1563V45.2426H39.0546V47.4008H39.1259C40.9106 47.4008 41.9873 48.492 41.9873 50.3592ZM38.1563 52.5719V48.1464H38.1146C36.8951 48.1464 36.1099 48.9527 36.1099 50.3592C36.1099 51.7595 36.8951 52.5719 38.1146 52.5719H38.1563ZM41.0891 50.3592C41.0891 48.9527 40.3157 48.1464 39.0962 48.1464H39.0546V52.5719H39.0962C40.3157 52.5719 41.0891 51.7656 41.0891 50.3592Z" fill="white"/>
<path d="M45.4558 47.4008C47.0441 47.4008 47.9543 48.3829 47.9543 50.4986V50.6259H43.7723C43.8437 51.9415 44.5337 52.6204 45.5331 52.6204C46.2767 52.6204 46.7705 52.2324 47.0025 51.6505L47.8829 51.705C47.5974 52.6871 46.7824 53.3115 45.5331 53.3115C43.9329 53.3115 42.8443 52.3537 42.8443 50.3531C42.8383 48.3768 43.9389 47.4008 45.4558 47.4008ZM47.0322 50.0015C47.0085 48.8254 46.3957 48.0919 45.4558 48.0919C44.5456 48.0919 43.8675 48.7406 43.7842 50.0015H47.0322Z" fill="white"/>
<path d="M51.3094 47.4008C52.5289 47.4008 53.5104 48.0677 53.6949 49.3953L52.8025 49.4802C52.6538 48.5708 52.0411 48.1404 51.3094 48.1404C50.3338 48.1404 49.6794 48.9467 49.6794 50.3531C49.6794 51.7535 50.3338 52.5659 51.3332 52.5659C52.1065 52.5659 52.7014 52.093 52.8561 51.1716L53.7484 51.2443C53.5699 52.5841 52.6062 53.3055 51.3332 53.3055C49.7627 53.3055 48.7573 52.2688 48.7573 50.3471C48.7573 48.4375 49.7627 47.4008 51.3094 47.4008Z" fill="white"/>
<path d="M54.2358 47.5342H58.9176V48.3102H57.0437V53.1903H56.1097V48.3102H54.2358V47.5342Z" fill="white"/>
<path d="M64.7657 47.5342V53.1903H63.8733V48.2132L61.2915 53.1903H59.8936V47.5342H60.7918V52.5114L63.3736 47.5342H64.7657Z" fill="white"/>
<path d="M70.8454 51.6566C70.8454 52.4629 70.3398 53.1903 68.8406 53.1903H66.2231V47.5342H68.7098C70.0423 47.5342 70.6669 48.1405 70.6669 48.9589C70.6669 49.6197 70.2505 50.1228 69.2035 50.2744C70.1434 50.3593 70.8454 50.7472 70.8454 51.6566ZM67.1571 49.9955H68.6384C69.4296 49.9955 69.7389 49.6197 69.7389 49.1225C69.7389 48.6133 69.4236 48.2496 68.5848 48.2496H67.1571V49.9955ZM69.9114 51.5353C69.9114 50.9655 69.5486 50.6199 68.68 50.6199H67.1571V52.475H68.7336C69.614 52.475 69.9114 52.0749 69.9114 51.5353Z" fill="white"/>
<path d="M73.8492 49.9712L75.5029 49.8075V49.268C75.5029 48.6072 75.0984 48.0798 74.1882 48.0919C73.4387 48.0919 72.8438 48.4253 72.8022 49.1952H71.9455C71.9872 47.91 72.9628 47.4008 74.1882 47.4008C75.6517 47.4008 76.425 48.1222 76.425 49.4499V53.1842H75.5803V52.0203C75.2412 52.8205 74.5095 53.3176 73.4625 53.3176C72.2132 53.3176 71.6719 52.6022 71.6719 51.7111C71.6719 50.6623 72.4214 50.1106 73.8492 49.9712ZM73.7361 52.6386C74.8486 52.6386 75.5029 51.8505 75.5029 50.7593V50.4138L73.9562 50.5774C73.0639 50.6623 72.588 51.0321 72.588 51.6808C72.588 52.2082 72.9271 52.6386 73.7361 52.6386Z" fill="white"/>
<path d="M82.2968 47.5343V53.1904H81.3628V48.3103H79.2212C78.9892 51.6869 79.1142 53.2631 77.7281 53.2631C77.5675 53.2631 77.4187 53.2389 77.27 53.2207V52.4629C77.3771 52.475 77.4366 52.475 77.5258 52.475C78.2575 52.475 78.2278 50.626 78.3943 47.5282H82.2968V47.5343Z" fill="white"/>
<path d="M88.2695 51.4384C88.2695 52.4871 87.6865 53.1843 86.1636 53.1843H84.2064H83.7603V47.5282H84.6942V49.6985H86.1636C87.6865 49.7046 88.2695 50.3957 88.2695 51.4384ZM87.3474 51.4323C87.3474 50.8079 86.9845 50.4199 86.0863 50.4199H84.6883V52.469H86.0863C86.9845 52.4629 87.3474 52.0689 87.3474 51.4323Z" fill="white"/>
<path d="M91.8687 49.6075V50.341H89.1382V49.6075H91.8687Z" fill="white"/>
<path d="M93.2075 47.5342H94.1177V52.4144H96.5448V47.5342H97.455V52.4144H99.8821V47.5342H100.792V53.1903H93.2075V47.5342Z" fill="white"/>
<path d="M106.021 53.1903L103.944 50.6987H103.183V53.1903H102.249V47.5342H103.183V49.9531H103.968L105.925 47.5342H107.05L104.635 50.2562L107.175 53.1903H106.021Z" fill="white"/>
<path d="M109.953 47.4008C111.541 47.4008 112.571 48.5102 112.571 50.3592C112.571 52.2082 111.541 53.3176 109.953 53.3176C108.365 53.3176 107.324 52.2082 107.324 50.3592C107.324 48.5102 108.365 47.4008 109.953 47.4008ZM109.953 52.5719C110.994 52.5719 111.649 51.6868 111.649 50.3592C111.649 49.0316 110.994 48.1465 109.953 48.1465C108.906 48.1465 108.246 49.0316 108.246 50.3592C108.246 51.6868 108.9 52.5719 109.953 52.5719Z" fill="white"/>
<path d="M118.067 47.5343V53.1904H117.133V48.3103H114.992C114.76 51.6869 114.885 53.2631 113.499 53.2631C113.338 53.2631 113.189 53.2389 113.041 53.2207V52.4629C113.148 52.475 113.213 52.475 113.296 52.475C114.028 52.475 113.998 50.626 114.165 47.5282H118.067V47.5343Z" fill="white"/>
<path d="M121.41 49.9712L123.064 49.8075V49.268C123.064 48.6072 122.659 48.0798 121.749 48.0919C121 48.0919 120.405 48.4253 120.363 49.1952H119.507C119.548 47.91 120.524 47.4008 121.749 47.4008C123.213 47.4008 123.986 48.1222 123.986 49.4499V53.1842H123.141V52.0203C122.802 52.8205 122.071 53.3176 121.024 53.3176C119.774 53.3176 119.233 52.6022 119.233 51.7111C119.233 50.6623 119.982 50.1106 121.41 49.9712ZM121.297 52.6386C122.41 52.6386 123.064 51.8505 123.064 50.7593V50.4138L121.517 50.5774C120.625 50.6623 120.149 51.0321 120.149 51.6808C120.155 52.2082 120.488 52.6386 121.297 52.6386Z" fill="white"/>
<path d="M37.74 58.919C38.9596 58.919 39.9411 59.5859 40.1255 60.9135L39.2332 60.9984C39.0845 60.0891 38.4718 59.6586 37.74 59.6586C36.7644 59.6586 36.1101 60.4649 36.1101 61.8714C36.1101 63.2717 36.7644 64.0841 37.7638 64.0841C38.5372 64.0841 39.1321 63.6112 39.2868 62.6898L40.1791 62.7625C40.0006 64.1023 39.0369 64.8237 37.7638 64.8237C36.1933 64.8237 35.188 63.787 35.188 61.8653C35.188 59.9557 36.1933 58.919 37.74 58.919Z" fill="white"/>
<path d="M43.5581 58.919C45.1464 58.919 46.1756 60.0284 46.1756 61.8774C46.1756 63.7264 45.1464 64.8358 43.5581 64.8358C41.9698 64.8358 40.9287 63.7264 40.9287 61.8774C40.9287 60.0284 41.9698 58.919 43.5581 58.919ZM43.5581 64.0901C44.5991 64.0901 45.2535 63.205 45.2535 61.8774C45.2535 60.5498 44.5991 59.6647 43.5581 59.6647C42.5111 59.6647 41.8508 60.5498 41.8508 61.8774C41.8508 63.205 42.5111 64.0901 43.5581 64.0901Z" fill="white"/>
<path d="M51.9343 63.1747C51.9343 63.981 51.4286 64.7085 49.9295 64.7085H47.312V59.0524H49.7986C51.1312 59.0524 51.7558 59.6586 51.7558 60.477C51.7558 61.1378 51.3394 61.641 50.2924 61.7925C51.2383 61.8774 51.9343 62.2654 51.9343 63.1747ZM48.2519 61.5136H49.7332C50.5244 61.5136 50.8337 61.1378 50.8337 60.6407C50.8337 60.1314 50.5184 59.7677 49.6797 59.7677H48.2519V61.5136ZM51.0062 63.0535C51.0062 62.4836 50.6434 62.1381 49.7748 62.1381H48.2519V63.9931H49.8284C50.7088 63.9931 51.0062 63.593 51.0062 63.0535Z" fill="white"/>
<path d="M53.0884 59.0524H53.945V60.2588C54.2841 59.4161 55.0039 58.919 55.8962 58.919C57.2526 58.919 58.2044 60.0102 58.2044 61.8774C58.2044 63.7446 57.2526 64.8358 55.8962 64.8358C55.0693 64.8358 54.3912 64.4054 54.0223 63.6294V66.8667H53.0884V59.0524ZM55.6345 64.0901C56.6517 64.0901 57.2883 63.2051 57.2883 61.8774C57.2883 60.5498 56.6517 59.6647 55.6345 59.6647C54.6053 59.6647 53.9748 60.5498 53.9748 61.8774C53.9688 63.2051 54.6053 64.0901 55.6345 64.0901Z" fill="white"/>
<path d="M61.6487 58.919C63.237 58.919 64.1472 59.9011 64.1472 62.0169V62.1442H59.9652C60.0365 63.4597 60.7266 64.1386 61.726 64.1386C62.4696 64.1386 62.9634 63.7507 63.1954 63.1687L64.0758 63.2232C63.7903 64.2053 62.9753 64.8297 61.726 64.8297C60.1258 64.8297 59.0371 63.8719 59.0371 61.8714C59.0312 59.8951 60.1317 58.919 61.6487 58.919ZM63.2251 61.5197C63.2013 60.3437 62.5886 59.6101 61.6487 59.6101C60.7385 59.6101 60.0603 60.2588 59.9771 61.5197H63.2251Z" fill="white"/>
<path d="M71.9158 59.0524V64.7085H71.0175V59.7071L69.1734 64.7085H68.0074L66.1751 59.7071V64.7085H65.2769V59.0524H66.8355L68.6023 64.1932L70.3691 59.0524H71.9158Z" fill="white"/>
<path d="M75.6755 58.919C77.2639 58.919 78.174 59.9011 78.174 62.0169V62.1442H73.992C74.0634 63.4597 74.7535 64.1386 75.7529 64.1386C76.4965 64.1386 76.9902 63.7507 77.2222 63.1687L78.1027 63.2232C77.8171 64.2053 77.0021 64.8297 75.7529 64.8297C74.1526 64.8297 73.064 63.8719 73.064 61.8714C73.058 59.8951 74.1586 58.919 75.6755 58.919ZM77.252 61.5197C77.2282 60.3437 76.6154 59.6101 75.6755 59.6101C74.7654 59.6101 74.0872 60.2588 74.0039 61.5197H77.252Z" fill="white"/>
<path d="M79.2988 59.0524H80.2328V61.4409H83.1061V59.0524H84.0282V64.7085H83.1061V62.2169H80.2328V64.7085H79.2988V59.0524Z" fill="white"/>
<path d="M85.4854 59.0524H86.4193V61.4409H89.2926V59.0524H90.2147V64.7085H89.2926V62.2169H86.4193V64.7085H85.4854V59.0524Z" fill="white"/>
<path d="M93.9805 58.919C95.5688 58.919 96.598 60.0284 96.598 61.8774C96.598 63.7264 95.5688 64.8358 93.9805 64.8358C92.3921 64.8358 91.3511 63.7264 91.3511 61.8774C91.3511 60.0284 92.3862 58.919 93.9805 58.919ZM93.9805 64.0901C95.0215 64.0901 95.6759 63.205 95.6759 61.8774C95.6759 60.5498 95.0215 59.6647 93.9805 59.6647C92.9335 59.6647 92.2731 60.5498 92.2731 61.8774C92.2731 63.205 92.9275 64.0901 93.9805 64.0901Z" fill="white"/>
<path d="M97.7402 59.0524H101.405V59.8283H98.6742V64.7085H97.7402V59.0524Z" fill="white"/>
<path d="M104.402 58.919C105.991 58.919 107.02 60.0284 107.02 61.8774C107.02 63.7264 105.991 64.8358 104.402 64.8358C102.814 64.8358 101.773 63.7264 101.773 61.8774C101.773 60.0284 102.814 58.919 104.402 58.919ZM104.402 64.0901C105.443 64.0901 106.098 63.205 106.098 61.8774C106.098 60.5498 105.443 59.6647 104.402 59.6647C103.355 59.6647 102.695 60.5498 102.695 61.8774C102.695 63.205 103.349 64.0901 104.402 64.0901Z" fill="white"/>
<path d="M115.461 59.0524V64.7085H114.569V59.7313L111.987 64.7085H110.589V59.0524H111.488V64.0295L114.069 59.0524H115.461Z" fill="white"/>
<path d="M119.156 58.919C120.375 58.919 121.357 59.5859 121.541 60.9135L120.649 60.9984C120.5 60.0891 119.887 59.6586 119.156 59.6586C118.18 59.6586 117.526 60.4649 117.526 61.8714C117.526 63.2717 118.18 64.0841 119.179 64.0841C119.953 64.0841 120.548 63.6112 120.702 62.6898L121.595 62.7625C121.416 64.1023 120.452 64.8237 119.179 64.8237C117.609 64.8237 116.604 63.787 116.604 61.8653C116.604 59.9557 117.609 58.919 119.156 58.919Z" fill="white"/>
<path d="M126.437 64.7085L124.361 62.2169H123.6V64.7085H122.666V59.0524H123.6V61.4712H124.385L126.342 59.0524H127.466L125.051 61.7743L127.591 64.7085H126.437Z" fill="white"/>
<path d="M133.278 59.0524L131.214 65.3571C130.833 66.5878 130.429 67 129.352 67C129.186 67 128.971 66.9879 128.739 66.9697V66.2362C128.93 66.2483 129.132 66.2604 129.299 66.2604C129.87 66.2604 130.114 66.0422 130.369 65.2238L130.53 64.7145H130.013L127.913 59.0584H128.93L130.75 64.3387L132.285 59.0584H133.278V59.0524Z" fill="white"/>
<path d="M136.265 58.919C137.484 58.919 138.466 59.5859 138.65 60.9135L137.758 60.9984C137.609 60.0891 136.997 59.6586 136.265 59.6586C135.289 59.6586 134.635 60.4649 134.635 61.8714C134.635 63.2717 135.289 64.0841 136.289 64.0841C137.062 64.0841 137.657 63.6112 137.812 62.6898L138.704 62.7625C138.526 64.1023 137.562 64.8237 136.289 64.8237C134.718 64.8237 133.713 63.787 133.713 61.8653C133.713 59.9557 134.718 58.919 136.265 58.919Z" fill="white"/>
<path d="M142.006 58.919C143.225 58.919 144.207 59.5859 144.391 60.9135L143.499 60.9984C143.35 60.0891 142.737 59.6586 142.006 59.6586C141.03 59.6586 140.376 60.4649 140.376 61.8714C140.376 63.2717 141.03 64.0841 142.029 64.0841C142.803 64.0841 143.398 63.6112 143.552 62.6898L144.445 62.7625C144.266 64.1023 143.303 64.8237 142.029 64.8237C140.459 64.8237 139.454 63.787 139.454 61.8653C139.454 59.9557 140.459 58.919 142.006 58.919Z" fill="white"/>
<path d="M144.927 59.0524H149.609V59.8283H147.735V64.7085H146.801V59.8283H144.927V59.0524Z" fill="white"/>
<path d="M155.207 63.1747C155.207 63.981 154.701 64.7085 153.202 64.7085H150.584V59.0524H153.071C154.404 59.0524 155.028 59.6586 155.028 60.477C155.028 61.1378 154.612 61.641 153.565 61.7925C154.505 61.8774 155.207 62.2654 155.207 63.1747ZM151.518 61.5136H153C153.791 61.5136 154.1 61.1378 154.1 60.6407C154.1 60.1314 153.785 59.7677 152.946 59.7677H151.518V61.5136ZM154.273 63.0535C154.273 62.4836 153.91 62.1381 153.041 62.1381H151.518V63.9931H153.095C153.975 63.9931 154.273 63.593 154.273 63.0535Z" fill="white"/>
<path d="M158.21 61.4894L159.864 61.3258V60.7862C159.864 60.1254 159.46 59.598 158.55 59.6101C157.8 59.6101 157.205 59.9436 157.163 60.7135H156.307C156.348 59.4283 157.324 58.919 158.55 58.919C160.013 58.919 160.786 59.6404 160.786 60.9681V64.7024H159.942V63.5385C159.603 64.3387 158.871 64.8358 157.824 64.8358C156.575 64.8358 156.033 64.1205 156.033 63.2293C156.033 62.1805 156.783 61.6289 158.21 61.4894ZM158.097 64.1568C159.21 64.1568 159.864 63.3687 159.864 62.2775V61.932L158.318 62.0957C157.425 62.1805 156.949 62.5503 156.949 63.199C156.949 63.7264 157.288 64.1568 158.097 64.1568Z" fill="white"/>
<path d="M0 0V10.8333H12.1297V30.1597H22.796V10.8333H34.9198V0H0Z" fill="white"/>
</svg>
