<svg width="246" height="41" viewBox="0 0 246 41" fill="none" xmlns="http://www.w3.org/2000/svg">
<path fill-rule="evenodd" clip-rule="evenodd" d="M39.135 40.1633C31.7309 37.9703 27.8346 31.5298 30.3239 25.9388C36.824 26.8546 40.542 32.7589 39.135 40.1633Z" fill="#FFC91E"/>
<path fill-rule="evenodd" clip-rule="evenodd" d="M22.2499 0C25.2345 4.97174 24.7552 10.5355 21.0356 14.4319C20.3965 15.1206 18.9968 16.0932 18.543 15.8636C17.6197 15.268 16.9619 14.3709 16.696 13.3446C15.0919 7.7808 16.8941 3.48565 22.2499 0Z" fill="#FFC91E"/>
<path fill-rule="evenodd" clip-rule="evenodd" d="M8.96701 40.8582C8.72229 35.3586 16.5791 28.6479 22.2913 30.409C23.3861 36.4215 16.315 41.9643 8.96701 40.8582Z" fill="#FFC91E"/>
<path fill-rule="evenodd" clip-rule="evenodd" d="M26.8853 17.906C29.9971 11.6121 39.0093 9.75029 44.8086 14.0272C43.9108 15.4882 42.7273 16.7523 41.3292 17.7435C39.931 18.7347 38.3472 19.4324 36.6729 19.7947C34.9986 20.1571 33.2684 20.1766 31.5864 19.852C29.9044 19.5274 28.3053 18.8655 26.8853 17.906Z" fill="#FFC91E"/>
<path fill-rule="evenodd" clip-rule="evenodd" d="M0 17.8423C6.63828 14.8376 14.9096 18.283 17.0272 24.1255C12.0219 28.1919 3.47182 25.1271 0 17.8423Z" fill="#FFC91E"/>
<g clip-path="url(#clip0_20_3103)">
<path d="M62.2304 11.0378C61.7807 10.398 61.1061 10.0461 60.1746 10.0461C58.8576 10.0461 58.0224 10.8779 58.0224 12.1575C58.0224 13.3731 58.8897 14.2368 60.1746 14.2368C61.1383 14.2368 61.7486 13.8849 62.2304 13.2451L63.0656 13.725C62.4553 14.6527 61.4916 15.1645 60.1746 15.1645C58.3115 15.1645 56.9624 14.0129 56.9624 12.1255C56.9624 10.2381 58.3758 9.08643 60.1746 9.08643C61.4916 9.08643 62.4553 9.59827 63.0656 10.526L62.2304 11.0378Z" fill="white"/>
<path d="M69.2326 9.24637V10.2061H65.0888V11.6136H68.815V12.5733H65.0888V14.0769H69.3611V15.0366H64.0288V9.24637H69.2326Z" fill="white"/>
<path d="M76.4928 9.24637V14.0769H77.1995V16.1882H76.3001L76.1716 15.0366H71.2248L71.1284 16.1882H70.229V14.0769H70.9999L71.9957 9.24637H76.4928ZM72.0921 14.0769H75.4006V10.1741H72.7988L72.0921 14.0769Z" fill="white"/>
<path d="M79.1587 9.24637V10.6539H81.3751C82.7242 10.6539 83.72 11.4857 83.72 12.8292C83.72 14.1728 82.6921 15.0366 81.3751 15.0366H78.0986V9.24637H79.1587ZM79.1587 14.0449H81.2787C82.146 14.0449 82.66 13.597 82.66 12.7973C82.66 11.9655 82.146 11.5816 81.2787 11.5816H79.1587V14.0449Z" fill="white"/>
<path d="M86.1615 9.24637L88.4422 13.7889H88.5064L90.7871 9.24637H92.2968V15.0366H91.2368V10.558H91.1404L88.924 15.0366H87.9603L85.776 10.558H85.6475V15.0366H84.6196V9.24637H86.1615Z" fill="white"/>
<path d="M96.5368 15.1645C94.738 15.1645 93.2925 13.9489 93.2925 12.1255C93.2925 10.302 94.738 9.08643 96.5368 9.08643C98.3356 9.08643 99.7811 10.302 99.7811 12.1255C99.7811 13.9489 98.3356 15.1645 96.5368 15.1645ZM96.5368 14.2688C97.7574 14.2688 98.7211 13.4691 98.7211 12.1575C98.7211 10.8459 97.7574 10.0461 96.5368 10.0461C95.3162 10.0461 94.3525 10.8459 94.3525 12.1575C94.3525 13.4691 95.3162 14.2688 96.5368 14.2688Z" fill="white"/>
<path d="M101.836 9.24639V13.629L105.723 9.24639H106.783V15.0366H105.723V10.6859L101.869 15.0366H100.776V9.24639H101.836ZM105.402 7.90281C104.856 8.47863 104.342 8.67057 103.732 8.67057C103.121 8.67057 102.607 8.47863 102.061 7.90281L102.607 7.35898C102.929 7.67888 103.25 7.83883 103.732 7.83883C104.213 7.83883 104.535 7.67888 104.856 7.35898L105.402 7.90281Z" fill="white"/>
<path d="M112.115 9.24637V11.4857H114.139L115.681 9.24637H116.901L115.038 11.9335L117.03 15.0366H115.777L114.171 12.4454H112.115V15.0366H111.055V9.24637H112.115Z" fill="white"/>
<path d="M120.564 15.1645C118.765 15.1645 117.319 13.9489 117.319 12.1255C117.319 10.302 118.765 9.08643 120.564 9.08643C122.362 9.08643 123.808 10.302 123.808 12.1255C123.808 13.9489 122.362 15.1645 120.564 15.1645ZM120.564 14.2688C121.784 14.2688 122.748 13.4691 122.748 12.1575C122.748 10.8459 121.784 10.0461 120.564 10.0461C119.343 10.0461 118.379 10.8459 118.379 12.1575C118.379 13.4691 119.343 14.2688 120.564 14.2688Z" fill="white"/>
<path d="M125.864 9.24637V11.5496H129.59V9.24637H130.65V15.0366H129.59V12.5093H125.864V15.0366H124.804V9.24637H125.864Z" fill="white"/>
<path d="M132.866 9.24637V11.4857H134.89L136.432 9.24637H137.652L135.789 11.9335L137.781 15.0366H136.528L134.922 12.4454H132.866V15.0366H131.806V9.24637H132.866Z" fill="white"/>
<path d="M139.195 9.24637L140.062 11.7416C140.158 12.0295 140.383 12.1575 140.672 12.1575H142.407L143.37 9.24637H144.43L142.889 13.8529C142.664 14.5567 142.021 15.0366 141.283 15.0366H139.709V14.1408H141.218C141.507 14.1408 141.796 13.9809 141.925 13.693L142.118 13.1491H140.608C139.805 13.1491 139.259 12.7333 139.002 11.9975L138.07 9.27836H139.195V9.24637Z" fill="white"/>
<path d="M148.702 9.24637C150.051 9.24637 151.079 10.1421 151.079 11.4857C151.079 12.8292 150.051 13.693 148.702 13.693H146.357V15.0366H145.297V9.24637H148.702ZM146.357 12.7333H148.67C149.473 12.7333 150.019 12.2854 150.019 11.4857C150.019 10.6859 149.473 10.2061 148.67 10.2061H146.357V12.7333Z" fill="white"/>
<path d="M157.151 11.0378C156.701 10.398 156.027 10.0461 155.095 10.0461C153.778 10.0461 152.943 10.8779 152.943 12.1255C152.943 13.3411 153.81 14.2048 155.095 14.2048C156.059 14.2048 156.669 13.8529 157.151 13.2131L157.986 13.693C157.376 14.6207 156.412 15.1325 155.095 15.1325C153.232 15.1325 151.883 13.9809 151.883 12.0935C151.883 10.2061 153.296 9.05444 155.095 9.05444C156.412 9.05444 157.376 9.56628 157.986 10.494L157.151 11.0378Z" fill="white"/>
<path d="M165.535 9.24637C166.884 9.24637 167.912 10.1421 167.912 11.4857C167.912 12.8292 166.884 13.693 165.535 13.693H163.19V15.0366H162.13V9.24637H165.535ZM163.19 12.7333H165.503C166.306 12.7333 166.852 12.2854 166.852 11.4857C166.852 10.6859 166.306 10.2061 165.503 10.2061H163.19V12.7333Z" fill="white"/>
<path d="M174.015 9.24637V10.2061H169.871V11.6136H173.597V12.5733H169.871V14.0769H174.143V15.0366H168.779V9.24637H174.015Z" fill="white"/>
<path d="M180.504 9.24637V10.2061H176.264V15.0366H175.204V9.24637H180.504Z" fill="white"/>
<path d="M182.399 9.24637V13.629L186.286 9.24637H187.346V15.0366H186.286V10.6859L182.431 15.0366H181.371V9.24637H182.399Z" fill="white"/>
<path d="M191.586 15.1645C189.787 15.1645 188.341 13.9489 188.341 12.1255C188.341 10.302 189.787 9.08643 191.586 9.08643C193.384 9.08643 194.83 10.302 194.83 12.1255C194.83 13.9489 193.384 15.1645 191.586 15.1645ZM191.586 14.2688C192.806 14.2688 193.77 13.4691 193.77 12.1575C193.77 10.8459 192.806 10.0461 191.586 10.0461C190.365 10.0461 189.401 10.8459 189.401 12.1575C189.401 13.4691 190.365 14.2688 191.586 14.2688Z" fill="white"/>
<path d="M196.886 9.24637V11.5496H200.612V9.24637H201.672V15.0366H200.612V12.5093H196.886V15.0366H195.826V9.24637H196.886Z" fill="white"/>
<path d="M207.164 9.24637L209.638 15.0366H208.513L208.128 14.1408H204.177L203.792 15.0366H202.603L205.141 9.24637H207.164ZM204.562 13.1811H207.678L206.458 10.2061H205.815L204.562 13.1811Z" fill="white"/>
<path d="M216.705 9.24637V15.0366H215.645V10.2061H213.043L212.401 13.597C212.208 14.5887 211.598 15.0366 210.698 15.0366H210.12V14.0449H210.634C211.02 14.0449 211.309 13.8849 211.373 13.469L212.176 9.24637H216.705Z" fill="white"/>
<path d="M218.889 9.24637V10.6539H221.105C222.454 10.6539 223.45 11.4857 223.45 12.8292C223.45 14.1728 222.422 15.0366 221.105 15.0366H217.829V9.24637H218.889ZM218.889 14.0449H221.009C221.876 14.0449 222.39 13.597 222.39 12.7973C222.39 11.9655 221.876 11.5816 221.009 11.5816H218.889V14.0449Z" fill="white"/>
<path d="M225.41 9.24637V11.5496H229.136V9.24637H230.196V15.0366H229.136V12.5093H225.41V15.0366H224.35V9.24637H225.41Z" fill="white"/>
<path d="M232.413 9.24637V10.6539H234.629C235.979 10.6539 236.974 11.4857 236.974 12.8292C236.974 14.1728 235.946 15.0366 234.629 15.0366H231.353V9.24637H232.413ZM232.413 14.0449H234.533C235.4 14.0449 235.914 13.597 235.914 12.7973C235.914 11.9655 235.4 11.5816 234.533 11.5816H232.413V14.0449ZM238.677 9.24637V15.0366H237.617V9.24637H238.677Z" fill="white"/>
<path d="M240.892 9.24637L242.498 11.5816H242.98L244.586 9.24637H245.807L243.848 11.9975L245.968 15.0366H244.715L243.012 12.5413H242.466L240.732 15.0366H239.479L241.599 12.0295L239.64 9.24637H240.892Z" fill="white"/>
<path d="M62.873 18.9713V19.931H60.3996V24.7615H59.3396V19.931H56.8662V18.9713H62.873Z" fill="white"/>
<path d="M68.9435 18.9713V19.931H64.8319V21.3386H68.558V22.2983H64.8319V23.8018H69.1041V24.7615H63.7397V18.9713H68.9435Z" fill="white"/>
<path d="M74.4687 18.9713L76.9421 24.7615H75.8178L75.4323 23.8658H71.4813L71.0958 24.7615H69.9395L72.4771 18.9713H74.4687ZM71.8668 22.9061H74.9826L73.7941 19.931H73.1195L71.8668 22.9061Z" fill="white"/>
<path d="M82.6919 18.9713V19.931H80.2185V24.7615H79.1585V19.931H76.6851V18.9713H82.6919Z" fill="white"/>
<path d="M86.964 18.9713C88.3131 18.9713 89.341 19.8671 89.341 21.2106C89.341 22.5542 88.3131 23.418 86.964 23.418H84.6191V24.7615H83.5591V18.9713H86.964ZM84.6191 22.4263H86.9319C87.7349 22.4263 88.281 21.9784 88.281 21.1787C88.281 20.3789 87.7349 19.8991 86.9319 19.8991H84.6191V22.4263Z" fill="white"/>
<path d="M94.1913 18.9713L96.6647 24.7615H95.5404L95.155 23.8658H91.204L90.8185 24.7615H89.6621L92.1997 18.9713H94.1913ZM91.5573 22.9061H94.6731L93.4525 19.931H92.7779L91.5573 22.9061Z" fill="white"/>
<path d="M103.7 18.9713V24.7615H102.64V19.931H100.038L99.3959 23.322C99.2032 24.3137 98.5928 24.7615 97.6934 24.7615H97.1152V23.7698H97.6292C98.0146 23.7698 98.3037 23.6099 98.368 23.194L99.171 18.9713H103.7Z" fill="white"/>
<path d="M105.884 18.9713V20.3789H108.101C109.45 20.3789 110.446 21.2106 110.446 22.5542C110.446 23.8978 109.418 24.7615 108.101 24.7615H104.824V18.9713H105.884ZM105.884 23.7698H108.004C108.872 23.7698 109.386 23.322 109.386 22.5222C109.386 21.6905 108.872 21.3066 108.004 21.3066H105.884V23.7698Z" fill="white"/>
<path d="M112.436 18.9713V21.2746H116.163V18.9713H117.223V24.7615H116.163V22.2343H112.436V24.7615H111.376V18.9713H112.436Z" fill="white"/>
<path d="M119.407 18.9713V20.3789H121.624C122.973 20.3789 123.969 21.2106 123.969 22.5542C123.969 23.8978 122.941 24.7615 121.624 24.7615H118.347V18.9713H119.407ZM119.407 23.7698H121.527C122.395 23.7698 122.908 23.322 122.908 22.5222C122.908 21.6905 122.395 21.3066 121.527 21.3066H119.407V23.7698ZM125.703 18.9713V24.7615H124.643V18.9713H125.703Z" fill="white"/>
<path d="M127.92 18.9713L129.526 21.3066H130.008L131.614 18.9713H132.835L130.875 21.7225L132.995 24.7615H131.743L130.04 22.2663H129.494L127.76 24.7615H126.507L128.627 21.7545L126.667 18.9713H127.92Z" fill="white"/>
<path d="M138.102 18.9713V21.2106H140.126L141.668 18.9713H142.888L141.025 21.6585L143.017 24.7615H141.764L140.158 22.1703H138.102V24.7615H137.042V18.9713H138.102Z" fill="white"/>
<path d="M146.55 24.8895C144.752 24.8895 143.306 23.6738 143.306 21.8504C143.306 20.027 144.752 18.8114 146.55 18.8114C148.349 18.8114 149.795 20.027 149.795 21.8504C149.795 23.6738 148.317 24.8895 146.55 24.8895ZM146.55 23.9937C147.771 23.9937 148.735 23.194 148.735 21.8824C148.735 20.5708 147.771 19.7711 146.55 19.7711C145.33 19.7711 144.366 20.5708 144.366 21.8824C144.366 23.194 145.33 23.9937 146.55 23.9937Z" fill="white"/>
<path d="M156.829 18.9713V24.7615H155.769V19.931H153.167L152.525 23.322C152.332 24.3137 151.722 24.7615 150.822 24.7615H150.244V23.7698H150.758C151.144 23.7698 151.433 23.6099 151.497 23.194L152.3 18.9713H156.829Z" fill="white"/>
<path d="M164.089 18.9713V24.7615H163.029V19.931H160.428L159.785 23.322C159.592 24.3137 158.982 24.7615 158.083 24.7615H157.504V23.7698H158.018C158.404 23.7698 158.693 23.6099 158.757 23.194L159.56 18.9713H164.089Z" fill="white"/>
<path d="M170.418 18.9713V19.931H166.274V21.3386H170V22.2983H166.274V23.8018H170.546V24.7615H165.182V18.9713H170.418Z" fill="white"/>
<path d="M172.665 18.9713V21.2106H174.689L176.231 18.9713H177.452L175.589 21.6585L177.58 24.7615H176.327L174.721 22.1703H172.665V24.7615H171.605V18.9713H172.665Z" fill="white"/>
<path d="M184.165 18.9713V19.931H181.692V24.7615H180.632V19.931H178.159V18.9713H184.165Z" fill="white"/>
<path d="M186.093 18.9713V23.354L189.98 18.9713H191.04V24.7615H189.98V20.4109L186.125 24.7615H185.065V18.9713H186.093Z" fill="white"/>
<path d="M195.858 18.9713C196.918 18.9713 197.624 19.5472 197.624 20.4749C197.624 20.9547 197.464 21.3066 197.142 21.5305C197.721 21.7865 198.042 22.2983 198.042 22.9701C198.042 23.9298 197.271 24.7615 196.114 24.7615H192.131V18.9713H195.858ZM193.223 21.2746H195.954C196.371 21.2746 196.596 20.9547 196.596 20.6028C196.596 20.2509 196.404 19.931 195.793 19.931H193.223V21.2746ZM193.223 23.8018H196.082C196.693 23.8018 197.014 23.4499 197.014 23.0021C197.014 22.5222 196.693 22.2023 196.179 22.2023H193.223V23.8018Z" fill="white"/>
<path d="M202.09 24.8895C200.291 24.8895 198.845 23.6738 198.845 21.8504C198.845 20.027 200.291 18.8114 202.09 18.8114C203.888 18.8114 205.334 20.027 205.334 21.8504C205.334 23.6738 203.888 24.8895 202.09 24.8895ZM202.09 23.9937C203.31 23.9937 204.274 23.194 204.274 21.8824C204.274 20.5708 203.31 19.7711 202.09 19.7711C200.869 19.7711 199.905 20.5708 199.905 21.8824C199.905 23.194 200.869 23.9937 202.09 23.9937Z" fill="white"/>
<path d="M210.024 18.9713C211.084 18.9713 211.79 19.5472 211.79 20.4749C211.79 20.9547 211.63 21.3066 211.308 21.5305C211.887 21.7865 212.208 22.2983 212.208 22.9701C212.208 23.9298 211.437 24.7615 210.28 24.7615H206.297V18.9713H210.024ZM207.39 21.2746H210.12C210.537 21.2746 210.762 20.9547 210.762 20.6028C210.762 20.2509 210.57 19.931 209.959 19.931H207.39V21.2746ZM207.39 23.8018H210.248C210.859 23.8018 211.18 23.4499 211.18 23.0021C211.18 22.5222 210.859 22.2023 210.345 22.2023H207.39V23.8018Z" fill="white"/>
<path d="M59.0823 30.2638L58.0544 31.5114L59.0823 32.759L58.5362 33.2709L56.7695 31.5114L58.5362 29.72L59.0823 30.2638ZM60.7848 30.2958L59.789 31.5114L60.7848 32.6951L60.2387 33.2389L58.5041 31.5114L60.2387 29.752L60.7848 30.2958Z" fill="white"/>
<path d="M67.273 28.6963V34.4864H66.213V29.656H62.6474V34.4864H61.5874V28.6963H67.273Z" fill="white"/>
<path d="M71.5139 34.6144C69.715 34.6144 68.2695 33.3988 68.2695 31.5754C68.2695 29.752 69.715 28.5363 71.5139 28.5363C73.3127 28.5363 74.7582 29.752 74.7582 31.5754C74.7582 33.3988 73.3127 34.6144 71.5139 34.6144ZM71.5139 33.6867C72.7345 33.6867 73.6982 32.887 73.6982 31.5754C73.6982 30.2638 72.7345 29.4641 71.5139 29.4641C70.2932 29.4641 69.3296 30.2638 69.3296 31.5754C69.3296 32.887 70.2932 33.6867 71.5139 33.6867Z" fill="white"/>
<path d="M81.8248 28.6963V34.4864H80.7647V29.656H78.1628L77.5204 33.0469C77.3277 34.0386 76.7174 34.4864 75.8179 34.4864H75.2397V33.4948H75.7216C76.107 33.4948 76.3961 33.3348 76.4604 32.9189L77.2634 28.6963H81.8248Z" fill="white"/>
<path d="M83.9766 28.6963V30.9676H85.1009C85.3579 29.4001 86.6428 28.5683 88.2167 28.5683C89.9513 28.5683 91.3647 29.624 91.3647 31.6074C91.3647 33.5908 89.9513 34.6464 88.2167 34.6464C86.5785 34.6464 85.2294 33.7187 85.0688 31.9273H84.0088V34.4865H82.9487V28.6963H83.9766ZM88.1846 33.6867C89.5659 33.6867 90.2726 32.855 90.2726 31.5754C90.2726 30.2958 89.5659 29.464 88.1846 29.464C86.8034 29.464 86.0967 30.2958 86.0967 31.5754C86.0967 32.855 86.8034 33.6867 88.1846 33.6867Z" fill="white"/>
<path d="M97.4355 30.4877C96.9858 29.8479 96.3112 29.4961 95.3797 29.4961C94.0627 29.4961 93.2275 30.3278 93.2275 31.5754C93.2275 32.791 94.0948 33.6547 95.3797 33.6547C96.3433 33.6547 96.9537 33.3029 97.4355 32.6631L98.2707 33.1429C97.6603 34.0706 96.6967 34.5825 95.3797 34.5825C93.5166 34.5825 92.1675 33.4308 92.1675 31.5434C92.1675 29.656 93.5808 28.5044 95.3797 28.5044C96.6967 28.5044 97.6603 29.0162 98.2707 29.9439L97.4355 30.4877Z" fill="white"/>
<path d="M100.712 33.7827C100.712 34.2306 100.359 34.5825 99.8773 34.5825C99.4276 34.5825 99.0742 34.2626 99.0742 33.7827C99.0742 33.3029 99.4276 32.951 99.8773 32.951C100.359 32.983 100.712 33.3349 100.712 33.7827Z" fill="white"/>
<path d="M108.711 30.9036C109.128 30.9036 109.417 30.7117 109.417 30.3278C109.417 29.784 108.871 29.496 107.683 29.496C106.687 29.496 106.077 29.656 105.338 30.1039L104.888 29.3041C105.788 28.7283 106.655 28.5363 107.651 28.5363C108.454 28.5363 109.225 28.6643 109.739 28.9842C110.188 29.2721 110.445 29.656 110.445 30.2638C110.445 30.7117 110.253 31.0316 109.931 31.2235C110.542 31.4474 110.831 31.9593 110.831 32.6311C110.831 33.2069 110.542 33.6547 110.06 34.0386C109.514 34.4545 108.646 34.6144 107.619 34.6144C106.398 34.6144 105.531 34.3905 104.599 33.7827L105.081 32.983C105.852 33.4308 106.655 33.6867 107.651 33.6867C108.903 33.6867 109.739 33.3668 109.739 32.5991C109.739 32.1192 109.45 31.8313 108.711 31.8313H106.43V30.9036H108.711Z" fill="white"/>
<path d="M114.91 34.6144C113.112 34.6144 111.666 33.3988 111.666 31.5754C111.666 29.752 113.112 28.5363 114.91 28.5363C116.709 28.5363 118.155 29.752 118.155 31.5754C118.155 33.3988 116.709 34.6144 114.91 34.6144ZM114.91 33.6867C116.131 33.6867 117.095 32.887 117.095 31.5754C117.095 30.2638 116.131 29.4641 114.91 29.4641C113.69 29.4641 112.726 30.2638 112.726 31.5754C112.726 32.887 113.69 33.6867 114.91 33.6867Z" fill="white"/>
<path d="M125.19 28.6963V34.4864H124.129V29.656H121.528L120.885 33.0469C120.692 34.0386 120.082 34.4864 119.183 34.4864H118.604V33.4948H119.118C119.504 33.4948 119.793 33.3348 119.857 32.9189L120.66 28.6963H125.19Z" fill="white"/>
<path d="M129.43 34.6144C127.631 34.6144 126.186 33.3988 126.186 31.5754C126.186 29.752 127.631 28.5363 129.43 28.5363C131.229 28.5363 132.674 29.752 132.674 31.5754C132.674 33.3988 131.229 34.6144 129.43 34.6144ZM129.43 33.6867C130.651 33.6867 131.614 32.887 131.614 31.5754C131.614 30.2638 130.651 29.4641 129.43 29.4641C128.209 29.4641 127.246 30.2638 127.246 31.5754C127.246 32.887 128.209 33.6867 129.43 33.6867Z" fill="white"/>
<path d="M139.227 28.6963V29.656H136.754V34.4864H135.694V29.656H133.22V28.6963H139.227Z" fill="white"/>
<path d="M143.017 34.6144C141.218 34.6144 139.772 33.3988 139.772 31.5754C139.772 29.752 141.218 28.5363 143.017 28.5363C144.816 28.5363 146.261 29.752 146.261 31.5754C146.261 33.3988 144.816 34.6144 143.017 34.6144ZM143.017 33.6867C144.237 33.6867 145.201 32.887 145.201 31.5754C145.201 30.2638 144.237 29.4641 143.017 29.4641C141.796 29.4641 140.832 30.2638 140.832 31.5754C140.832 32.887 141.796 33.6867 143.017 33.6867Z" fill="white"/>
<path d="M148.317 28.6963V33.0789L152.204 28.6963H153.264V34.4865H152.204V30.1359L148.35 34.4865H147.29V28.6963H148.317ZM151.883 27.3527C151.337 27.9285 150.823 28.1205 150.213 28.1205C149.602 28.1205 149.088 27.9285 148.542 27.3527L149.088 26.8089C149.41 27.1288 149.731 27.2887 150.213 27.2887C150.694 27.2887 151.016 27.1288 151.337 26.8089L151.883 27.3527Z" fill="white"/>
<path d="M162.708 30.4877C162.258 29.8479 161.584 29.4961 160.652 29.4961C159.335 29.4961 158.5 30.3278 158.5 31.5754C158.5 32.791 159.367 33.6547 160.652 33.6547C161.616 33.6547 162.226 33.3029 162.708 32.6631L163.543 33.1429C162.933 34.0706 161.969 34.5825 160.652 34.5825C158.789 34.5825 157.44 33.4308 157.44 31.5434C157.44 29.656 158.853 28.5044 160.652 28.5044C161.969 28.5044 162.933 29.0162 163.543 29.9439L162.708 30.4877Z" fill="white"/>
<path d="M169.678 28.6963V29.656H165.535V31.0315H169.261V31.9912H165.535V33.4948H169.839V34.4545H164.475V28.6963H169.678Z" fill="white"/>
<path d="M174.722 30.9036C175.14 30.9036 175.429 30.7117 175.429 30.3278C175.429 29.784 174.883 29.496 173.694 29.496C172.698 29.496 172.088 29.656 171.349 30.1039L170.899 29.3041C171.799 28.7283 172.666 28.5363 173.662 28.5363C174.465 28.5363 175.236 28.6643 175.75 28.9842C176.2 29.2721 176.457 29.656 176.457 30.2638C176.457 30.7117 176.264 31.0316 175.943 31.2235C176.553 31.4474 176.842 31.9593 176.842 32.6311C176.842 33.2069 176.553 33.6547 176.071 34.0386C175.525 34.4545 174.658 34.6144 173.63 34.6144C172.409 34.6144 171.542 34.3905 170.61 33.7827L171.092 32.983C171.863 33.4308 172.666 33.6867 173.662 33.6867C174.915 33.6867 175.75 33.3668 175.75 32.5991C175.75 32.1192 175.461 31.8313 174.722 31.8313H172.441V30.9036H174.722Z" fill="white"/>
<path d="M180.889 34.6144C179.09 34.6144 177.645 33.3988 177.645 31.5754C177.645 29.752 179.09 28.5363 180.889 28.5363C182.688 28.5363 184.133 29.752 184.133 31.5754C184.133 33.3988 182.688 34.6144 180.889 34.6144ZM180.889 33.6867C182.109 33.6867 183.073 32.887 183.073 31.5754C183.073 30.2638 182.109 29.4641 180.889 29.4641C179.668 29.4641 178.705 30.2638 178.705 31.5754C178.705 32.887 179.668 33.6867 180.889 33.6867Z" fill="white"/>
<path d="M186.221 28.6963V30.9995H189.947V28.6963H191.007V34.4864H189.947V31.9592H186.221V34.4864H185.161V28.6963H186.221Z" fill="white"/>
<path d="M192.356 29.752L194.091 31.5114L192.356 33.2389L191.81 32.6951L192.806 31.5114L191.81 30.2958L192.356 29.752ZM194.059 29.72L195.825 31.5114L194.059 33.2709L193.513 32.7271L194.54 31.4794L193.513 30.2318L194.059 29.72Z" fill="white"/>
</g>
<defs>
<clipPath id="clip0_20_3103">
<rect width="189.231" height="27.2555" fill="white" transform="translate(56.769 7.35898)"/>
</clipPath>
</defs>
</svg>
