<svg width="281" height="49" viewBox="0 0 281 49" fill="none" xmlns="http://www.w3.org/2000/svg">
<path fill-rule="evenodd" clip-rule="evenodd" d="M36.0832 11.1914L32.0967 15.0226L22.5903 24.5L32.0967 33.9774C32.5056 34.179 35.6744 37.3045 35.981 37.8086L47.3273 49L72.1665 24.6008C71.6554 23.8951 69.9177 22.2819 69.2022 21.5761C68.0778 20.4671 67.1578 19.5597 66.0334 18.4506L53.6649 6.04938C52.6427 5.04115 48.1451 0.403292 47.4295 0C45.4874 1.81481 43.6474 3.73045 41.7053 5.54527C40.8875 6.35185 36.4921 10.7881 36.0832 11.1914ZM36.0832 19.0556C36.3899 18.4506 37.4121 17.5432 38.0254 17.0391C38.6387 16.535 39.4565 15.5267 40.0698 15.1235C40.2742 14.821 40.5809 14.6193 40.9897 14.2161L45.5896 9.67901C45.9985 9.27572 47.2251 8.26749 47.4295 7.76337C48.4517 8.26749 50.905 10.9897 51.825 11.8971L63.989 23.8951C64.2957 24.2984 64.2957 24.1975 64.5001 24.6008L54.9937 33.8765C54.5849 34.179 54.3804 34.5823 53.9716 34.8848L47.7362 41.1358L43.8519 37.5062C43.1363 36.8004 40.4787 34.3807 40.172 33.7757C39.6609 33.4733 37.9232 31.6584 37.2076 30.9527C37.0032 30.751 36.901 30.6502 36.6966 30.4486L36.2877 29.9444C35.061 29.2387 31.79 25.3066 30.5634 24.6008C30.7678 24.1975 30.4612 24.6008 30.8701 24.0967C31.3812 23.5926 35.7766 19.1564 36.0832 19.0556Z" fill="#DD2B1A"/>
<path fill-rule="evenodd" clip-rule="evenodd" d="M35.9811 37.8086C35.6744 37.3045 32.5056 34.179 32.0968 33.9774L28.4169 37.5062C28.008 38.0103 27.8036 38.0103 27.4969 38.4136C26.8836 39.1193 25.2481 40.5309 24.8392 41.2366L13.084 29.642C12.6752 29.2387 8.17752 24.9033 7.97308 24.3992L24.737 7.8642C24.9414 7.96502 31.3812 14.1152 32.0968 15.0226L36.0833 11.1914C35.8789 10.9897 35.9811 10.9897 35.6744 10.7881C34.0389 9.07407 25.2481 0.302469 24.6348 0L0 24.3992C0.204438 24.9033 5.31539 29.8436 6.13314 30.6502C8.17752 32.6667 24.1237 48.5967 24.8392 48.8992L35.9811 37.8086Z" fill="#00A3D4"/>
<path fill-rule="evenodd" clip-rule="evenodd" d="M186.243 33.3726C186.55 32.2635 190.945 19.3582 191.456 18.854V33.3726H195.851V12.4014H189.309L184.505 26.6174L181.95 19.459C181.643 18.6524 179.803 12.5022 179.292 12.4014H172.75V33.3726L177.248 33.2717V19.0557L182.461 33.3726H186.243Z" fill="white"/>
<path fill-rule="evenodd" clip-rule="evenodd" d="M220.793 33.3726H234.286V38.7162H238.783V29.4405H236.535V12.4014H221.406C221.304 17.4425 221.611 25.4075 217.931 29.4405H216.397V38.7162H220.895L220.793 33.3726ZM223.246 29.4405C223.451 28.6339 224.166 27.5248 224.473 26.6174C224.882 25.6092 225.188 24.601 225.393 23.4919C226.108 19.7615 225.699 18.9549 226.006 16.1318H231.833V29.4405H223.246Z" fill="white"/>
<path fill-rule="evenodd" clip-rule="evenodd" d="M68.6911 0C68.6911 1.71399 68.6911 3.52881 68.6911 5.34362C68.6911 6.65432 68.4867 6.75514 69.2022 7.46091L86.375 24.3992C86.1705 24.8025 72.0643 38.716 70.4288 40.2284C68.3844 42.144 68.6911 41.6399 68.6911 43.7572C68.6911 45.4712 68.6911 47.1852 68.6911 48.8992C69.6111 48.4959 92.3037 25.4074 93.5303 24.6008C93.2236 23.9959 88.2149 19.2572 87.2949 18.3498C86.0683 17.0391 69.3044 0.403292 68.6911 0Z" fill="#0B9042"/>
<path fill-rule="evenodd" clip-rule="evenodd" d="M139.733 17.4425C140.347 18.35 140.96 19.1565 141.573 20.0639C141.982 20.5681 143.107 22.1812 143.311 22.5845C142.289 24.1977 141.062 25.8109 139.938 27.3232C139.324 28.1298 138.813 28.9364 138.2 29.743C137.689 30.4487 136.973 31.3561 136.564 32.0619C136.053 31.6586 134.622 27.7265 134.418 27.1216L130.431 17.1401C128.183 11.494 129.103 12.3006 126.24 12.3006L117.552 33.3726H119.698L122.356 26.8191H132.067L134.622 33.4734H137.996C139.12 31.9611 140.142 30.3479 141.267 28.8356C142.289 27.424 143.618 25.71 144.435 24.2985C144.844 24.5002 144.742 24.3993 144.946 24.9035L150.977 33.5742H154.453C154.964 32.9693 156.599 28.2306 157.111 27.0207H166.719C167.128 27.5249 169.07 32.7677 169.377 33.5742H171.626C171.217 32.0619 168.252 25.1051 167.435 22.9878C166.924 21.6771 163.55 13.0063 163.141 12.5022C160.484 12.5022 161.097 12.1998 160.484 13.6113L153.84 29.9446C153.533 30.6504 153.226 31.7594 152.817 32.3644C152.511 32.1627 149.751 28.2306 149.342 27.5249L145.969 22.6853C146.378 21.8788 147.195 20.7697 147.809 20.0639L153.124 12.5022H150.875C150.364 13.5104 145.458 19.6607 144.844 21.2738C144.538 21.0722 144.742 21.2738 144.538 20.9714C144.333 20.7697 144.538 20.9714 144.333 20.6689L141.675 16.7368C141.164 16.031 140.653 15.2244 140.142 14.5187C138.404 11.9981 139.018 12.4014 136.258 12.5022L139.733 17.4425ZM127.263 14.4179C127.365 14.6195 127.365 14.5187 127.467 14.8211L129.307 19.7615C129.92 21.2738 130.942 23.5928 131.351 25.2059H122.969L127.263 14.4179ZM157.826 25.1051C158.03 24.1977 161.71 15.0228 162.119 14.317L166.208 25.1051H157.826Z" fill="white"/>
<path fill-rule="evenodd" clip-rule="evenodd" d="M240.726 33.3726L246.041 33.4734C246.859 31.6586 254.014 19.0557 254.116 18.9549V33.4734H258.818V12.5022H253.503L247.574 23.1894C247.268 23.6935 245.837 26.5166 245.428 26.8191V12.4014H240.726V33.3726Z" fill="white"/>
<path fill-rule="evenodd" clip-rule="evenodd" d="M204.029 16.1318H215.376V12.4014H199.327V33.3726H215.58V29.5413H204.029V24.3993H214.353V20.7697H204.029V16.1318Z" fill="white"/>
<path fill-rule="evenodd" clip-rule="evenodd" d="M266.485 28.7347H274.151C274.56 28.8355 274.969 30.3479 275.174 31.0536C275.48 31.7594 275.685 32.8685 276.093 33.4734H280.898L272.925 12.4014H268.018L259.943 33.3726H264.747L266.485 28.7347ZM270.471 17.6442C270.778 18.1483 273.231 24.8026 273.231 25.3067H267.712L270.471 17.6442Z" fill="white"/>
<path fill-rule="evenodd" clip-rule="evenodd" d="M36.0835 19.0556C36.4924 19.4589 41.1944 23.8951 41.6033 24.6009L37.4123 28.6338C36.9012 29.2388 36.5946 29.2388 36.0835 30.0453L36.4924 30.5495C36.6968 30.7511 36.799 30.7511 37.0035 31.0536C37.719 31.7593 39.4567 33.675 39.9678 33.8766L44.7721 29.2388C45.4876 28.4322 46.3054 27.7264 47.1231 26.9198C47.9409 26.1132 48.7587 25.4075 49.4742 24.5001C49.1675 23.8951 45.5899 20.568 44.8743 19.7614L40.07 15.1235C39.4567 15.426 38.639 16.4342 38.0257 17.0392C37.5146 17.5433 36.4924 18.3499 36.0835 19.0556Z" fill="#00A3D4"/>
<path fill-rule="evenodd" clip-rule="evenodd" d="M117.45 25.3064H115.405C114.894 29.4401 112.236 32.6664 107.33 32.0615C103.139 31.5574 100.89 28.3311 100.583 23.9957C99.7657 14.9216 107.228 11.9977 111.828 14.4175C113.668 15.3249 114.383 16.4339 115.099 18.652H117.041C117.347 14.8208 111.521 10.4854 105.49 12.1994C100.992 13.5101 98.028 17.9463 98.5391 23.794C98.948 29.2385 101.81 33.2714 107.228 33.7755C113.361 34.2796 116.734 30.7508 117.45 25.3064Z" fill="white"/>
</svg>
