<svg width="268" height="37" viewBox="0 0 268 37" fill="none" xmlns="http://www.w3.org/2000/svg">
<g clip-path="url(#clip0_316_2)">
<path fill-rule="evenodd" clip-rule="evenodd" d="M0 18.0661C0 21.1428 0.384064 23.8251 1.53626 26.113C2.61164 28.3219 2.61164 28.3219 3.91745 30.1364C5.3769 32.1087 7.68128 33.8443 9.83204 35.1066C16.3611 38.7356 25.4251 37 30.5715 31.6354L32.4918 29.1897C34.3353 26.7441 35.7948 22.7207 35.7948 19.3283C35.7948 14.3582 35.1035 11.5181 32.4918 7.57354C32.1846 7.10019 31.8773 6.70573 31.4933 6.31128C31.0324 5.83793 30.8788 5.44347 30.4947 5.12791L29.4193 4.10232C29.0353 3.78676 28.5744 3.47119 28.1135 3.15563C22.8902 -0.394481 15.9771 -1.26228 10.3697 1.65669C8.83348 2.4456 7.68128 3.15563 6.37547 4.2601C2.68845 7.49465 0 12.7015 0 18.0661ZM21.8148 5.04902L21.738 4.73345C21.5844 4.10232 21.738 4.10232 21.4308 3.70786C21.4308 7.96799 21.9685 11.9126 22.0453 14.9104C22.0453 17.5138 22.7366 16.9616 21.2003 19.8017L20.6627 20.5117L19.0496 23.904C18.5119 24.8507 18.8191 24.614 18.4351 24.9296C18.4351 23.3518 19.4336 16.2516 19.2032 15.4627C18.7423 13.6482 17.7438 14.3582 19.3568 11.9914C19.8177 11.2814 19.8177 10.9659 19.8945 9.94027C19.9713 9.15136 20.2018 8.36245 20.2018 7.49465C18.9728 8.44134 19.6641 10.887 18.7423 11.597L18.5887 11.7548C18.5119 12.1492 18.2815 12.4648 17.9742 12.7015C17.7438 11.7548 16.9756 11.0448 17.3597 10.0981C17.667 9.30914 18.2046 8.59912 18.5887 7.81021C19.8945 5.2068 19.2032 5.75904 18.4351 2.28782C19.28 2.28782 19.4336 2.4456 20.3554 2.4456L20.125 2.5245C18.3583 3.31341 19.0496 4.97013 20.2018 3.86565C20.509 3.55008 20.5858 3.23452 20.5858 2.60339C22.2757 2.60339 25.2714 4.10232 26.6541 5.04902C26.6541 5.99571 25.1946 11.1236 24.2729 12.1492C23.6584 12.7804 23.4279 13.3326 22.6598 13.8848C22.4294 11.4392 22.0453 11.2814 22.8902 8.99358C23.5047 7.49464 23.8888 6.31128 24.2729 4.65456C23.5815 5.12791 22.6598 8.28356 22.0453 9.07247C22.1221 7.57354 21.8148 6.46906 21.8148 5.04902ZM16.2075 2.4456C16.8988 2.36671 16.5916 2.28782 17.8206 2.28782C17.8974 4.65456 19.0496 4.73345 17.9742 6.86351C17.7438 6.70573 16.8988 5.52236 16.6684 5.12791C16.3611 4.49678 16.2075 3.3923 16.2075 2.4456ZM11.2147 11.5181C10.677 10.887 9.14073 5.52236 9.14073 4.97013C11.5987 3.62897 11.906 3.23452 14.8249 2.60339C16.3611 2.20893 15.2089 3.3923 15.9771 5.12791L17.5901 7.57354C17.3597 8.04688 17.2829 8.44134 16.822 8.75691C16.3611 10.7292 15.4394 9.15136 17.2829 13.4115C17.5133 13.8848 18.1278 15.226 18.2046 15.6204C18.2815 16.0938 17.9742 17.7505 17.9742 18.6183C16.7452 17.1983 15.5162 14.5949 14.7481 14.0426C14.9785 15.226 16.5148 17.4349 17.2061 18.6183C18.051 20.1961 17.8206 19.3283 17.667 21.3006C17.5901 22.4051 17.3597 23.5096 17.3597 24.614C16.8988 24.2985 14.5176 19.2494 14.0568 18.3816C13.4422 17.3561 13.8263 16.9616 13.8263 15.6204C13.9031 13.2537 14.4408 9.30914 14.4408 6.54795C14.4408 5.12791 14.6713 4.10232 14.2872 3.70786C14.2104 4.2601 14.1336 4.33899 14.1336 5.04902C13.9799 4.73345 14.0568 4.57567 13.6727 4.2601C11.7524 4.73345 12.5205 7.49465 13.8263 5.44347L13.9799 5.2068C13.9799 6.46906 13.6727 7.41575 13.6727 8.8358L13.5191 8.67801C13.3654 8.44134 13.4422 8.59912 13.3654 8.36245C13.2886 8.20467 13.2118 8.04688 13.135 7.8891L11.6756 4.73345C11.6756 4.73345 11.6756 4.65456 11.5987 4.65456C11.5987 5.60125 11.5987 5.52236 11.906 6.23239L12.9046 9.15136C13.5959 11.1236 13.5191 10.8081 13.2886 13.3326C13.2886 13.5693 13.3654 13.4115 13.2118 13.7271C12.9814 14.1215 13.2886 14.0426 12.0596 12.7804C11.6756 12.307 11.3683 12.0703 11.2147 11.5181ZM8.29579 16.0938C8.29579 17.2772 7.60447 18.4605 7.52766 19.565C6.98997 19.2494 6.68272 18.7761 6.29865 18.3027C4.30152 15.6993 5.14646 17.1194 5.14646 11.2814C5.14646 10.887 5.06965 10.9659 4.83921 10.8081C4.83921 11.6759 4.53196 12.0703 4.53196 13.0959C4.53196 14.0426 4.37833 14.4371 4.37833 15.5416C4.22471 15.3838 4.14789 15.226 3.99427 14.9893C3.68702 14.516 3.22614 13.4904 3.22614 12.9381C3.22614 11.2025 6.60591 6.86352 8.52623 5.52236L10.5234 11.9914C10.7538 12.5437 11.061 12.8593 11.3683 13.1748C13.6727 15.5416 12.8277 15.5416 12.8277 17.7505C12.8277 18.6183 15.4394 22.7207 15.7466 24.1407C14.5176 23.5096 13.2118 22.9573 11.8292 22.4051C10.9074 21.9317 9.60161 21.6162 8.83348 21.0639C8.44941 20.7484 8.3726 20.6695 7.98854 20.3539C8.06535 19.4861 8.91029 16.5671 8.91029 16.2516C8.91029 15.6993 8.44941 14.2004 8.29579 13.5693C8.14216 12.7804 7.83491 11.5181 7.83491 10.6503H7.68128C7.68128 11.597 7.68128 12.8593 7.7581 13.5693C7.91172 14.2793 8.29579 15.4627 8.29579 16.0938ZM20.2018 23.9829C20.3554 23.194 21.5076 21.1428 21.8917 20.275C23.6584 16.646 23.0439 18.3027 22.967 16.0938C23.2743 16.2516 24.5801 16.3305 24.5801 14.5949C23.5815 14.5949 23.4279 14.7526 23.1207 15.3838L22.8902 15.7782C22.8902 14.0426 24.9642 13.6482 25.6555 11.2025L27.3454 5.52236C28.9584 6.62684 30.2643 8.20467 31.3396 9.94027C31.6469 10.4136 32.5686 12.1492 32.7223 12.7804C32.8759 13.3326 31.9541 15.226 31.4933 15.5416C31.4933 14.6738 31.4933 11.5181 30.8788 10.8081C30.4947 12.6226 31.0324 14.3582 30.9556 16.3305C30.9556 16.8038 30.2643 17.5927 29.8802 17.9872C29.5729 18.3816 28.8816 19.3283 28.4976 19.6439C28.0367 18.6972 27.499 16.4094 27.7294 15.3838L28.3439 11.9126C28.3439 11.3603 28.1903 11.4392 28.1903 10.7292C27.7294 11.1236 27.8831 11.597 27.5758 13.017C27.4222 13.8848 27.1917 14.6738 27.0381 15.4627C26.7309 17.3561 27.7294 18.7761 27.7294 20.5906C27.1917 20.7484 27.0381 21.0639 26.0396 21.6162C25.3482 21.9317 24.8105 22.1684 24.0424 22.484L20.2018 23.9829ZM2.76526 13.9637L4.68558 17.4349L2.15076 17.2772C2.22757 16.2516 2.61164 14.8315 2.76526 13.9637ZM31.1092 17.4349C31.5701 16.7249 32.7223 14.7526 32.8759 13.9637C33.26 14.2793 33.26 14.7526 33.3368 15.4627C33.4136 15.936 33.5672 16.7249 33.5672 17.3561L31.1092 17.4349ZM32.031 18.0661C34.3353 18.0661 33.7977 17.5138 33.644 19.565C33.5672 21.5373 33.26 21.8529 33.1832 22.8784C32.3382 22.8784 31.1092 22.484 30.4179 22.2473L27.5758 21.5373C27.8063 21.2217 28.6512 20.5906 29.2657 19.8017C30.4947 18.3027 30.1874 18.145 31.4933 18.145C31.4933 19.1706 31.5701 19.8017 33.1063 19.8017C33.1831 18.2239 32.415 18.6183 32.031 18.0661ZM4.30152 18.2239C5.45371 18.2239 5.14646 17.9872 6.45228 19.6439C7.45085 20.9062 7.91172 21.0639 8.29579 21.5373C7.14359 21.6162 3.84064 22.8784 2.68845 22.8784C2.68845 21.774 2.22757 21.1428 2.22757 17.9083L4.30152 18.2239ZM19.5873 34.7121C19.5873 32.7398 19.28 30.0575 19.1264 28.0064C19.1264 27.6119 19.1264 27.2175 19.1264 26.823C19.1264 26.3497 18.9728 26.2708 18.9728 25.7185C19.0496 25.7185 24.8874 22.6418 26.27 22.1684C27.0381 21.8529 29.7266 22.6418 30.6483 22.7995C31.0324 22.8784 32.7223 23.1151 32.7991 23.2729C32.9527 23.4307 32.9527 23.2729 32.6455 24.2196C30.9556 28.5586 28.0367 31.7932 23.8888 33.6077C22.967 34.0021 20.8931 34.7121 19.5873 34.7121ZM2.91889 23.194C4.45514 23.194 7.14359 22.3262 8.75666 22.0895C9.37117 22.0106 9.75523 22.3262 10.4465 22.5629C12.6741 23.5096 14.7481 24.614 16.822 25.7185C16.822 27.7697 16.2075 32.5032 16.2075 34.6332C14.1336 34.5543 11.1379 33.2921 9.44798 32.1876C7.68128 31.0042 5.9914 29.3475 4.83921 27.533C4.30152 26.823 2.9957 24.3774 2.91889 23.194Z" fill="#115DEA"/>
<path fill-rule="evenodd" clip-rule="evenodd" d="M84.9549 11.2027C83.7259 10.3349 84.2636 10.4927 82.5737 9.86157C80.1157 8.83598 76.1214 9.15155 73.817 10.256C72.2808 11.0449 71.8967 11.3605 70.7445 12.5439C66.0589 17.2773 67.0575 27.6121 73.6634 30.6889C76.4287 32.03 79.9621 32.2667 82.8041 31.0833C84.1099 30.5311 84.4172 30.0577 85.4158 29.4266C86.4911 31.7144 84.3404 31.5567 89.1028 31.5567C89.41 31.5567 89.5637 31.4778 89.5637 31.0833V3.62916C89.5637 3.3136 89.4868 3.15581 89.1028 3.15581C84.0331 3.15581 84.9549 2.28801 84.9549 6.94259C84.9549 8.44153 84.9549 9.78268 84.9549 11.2027ZM72.4344 20.5908C72.4344 17.0407 74.7388 13.8061 78.0417 13.8061C80.2693 13.8061 82.036 13.8061 84.0331 15.384C84.6476 15.8573 84.9549 16.0151 84.9549 16.4095V24.6142C84.9549 25.4031 81.9592 27.3754 79.6548 27.3754C76.9663 27.3754 76.0446 27.4543 74.0475 25.3243C72.9721 24.1409 72.4344 22.0108 72.4344 20.5908Z" fill="#115DEA"/>
<path fill-rule="evenodd" clip-rule="evenodd" d="M44.3979 20.5116C44.3979 22.2473 44.782 23.904 45.2429 25.0873C45.5501 25.7974 45.7806 26.2707 46.1646 26.9018C48.085 29.8997 51.3879 31.872 54.9981 31.872C58.6851 31.872 61.2968 31.3986 64.2925 29.1108C64.6765 28.7952 64.6765 28.6374 65.2142 28.4797C65.2142 27.6119 65.1374 27.7696 64.2925 26.5863C64.062 26.2707 63.9084 26.034 63.678 25.7185C62.7562 24.4562 62.7562 25.1662 61.5272 25.9551C57.3793 28.5586 50.4662 27.9274 49.314 22.7995H64.6765C66.7505 22.7995 66.4432 23.3517 66.4432 19.6438C66.4432 14.437 61.6808 9.30908 56.5344 9.30908C52.7705 9.30908 51.0807 9.70354 48.2386 11.9914C45.7806 13.8059 44.3979 17.356 44.3979 20.5116ZM55.6126 13.6481C56.9184 13.6481 58.5315 14.1214 59.6069 14.9893C60.5286 15.6993 61.604 16.8826 61.604 18.3816H49.2372C49.4676 15.7782 52.7705 13.6481 55.6126 13.6481Z" fill="#115DEA"/>
<path fill-rule="evenodd" clip-rule="evenodd" d="M91.7144 20.5116C91.7144 22.2472 92.0984 23.904 92.5593 25.0873C92.8665 25.7974 93.097 26.2707 93.481 26.9018C93.7883 27.4541 94.2492 28.0852 94.7101 28.5586C96.3999 30.5308 99.7029 31.9509 102.315 31.9509C106.002 31.9509 108.613 31.4775 111.609 29.1897C111.993 28.8741 111.993 28.7163 112.531 28.5586C112.531 27.6907 112.454 27.8485 111.609 26.6652C109.612 23.904 110.841 25.2451 107.307 26.8229C103.851 28.3219 97.7058 27.6119 96.6304 22.7995H111.993C114.067 22.7995 113.76 23.3517 113.76 19.6438C113.76 14.437 108.997 9.30908 103.851 9.30908C100.778 9.30908 98.858 9.54576 96.2463 11.3603C95.8623 11.5969 95.8623 11.6758 95.4782 11.9914C95.1709 12.2281 95.0941 12.3069 94.7869 12.6225C94.5564 12.8592 94.4028 13.0959 94.1724 13.4114C93.9419 13.727 93.8651 13.8059 93.6347 14.2003C93.2506 14.8315 93.0202 15.2259 92.7129 15.9359C92.1752 17.0404 91.7144 18.8549 91.7144 20.5116ZM102.929 13.6481C105.541 13.6481 108.92 15.5415 108.997 18.3816H96.6304C96.784 16.5671 98.858 14.7526 100.625 14.1214C101.009 13.9637 102.315 13.6481 102.929 13.6481Z" fill="#115DEA"/>
<path fill-rule="evenodd" clip-rule="evenodd" d="M156.775 12.7804C156.775 13.4115 158.619 15.7782 158.849 15.7782C159.848 15.7782 161.23 13.6482 166.223 13.6482C167.913 13.6482 170.525 14.2004 170.525 16.4094C170.525 16.9616 170.14 16.8038 169.68 16.8827L165.916 17.3561C163.381 17.7505 159.464 18.0661 157.543 20.4328C153.933 24.8507 156.698 31.7932 162.843 31.7932C165.685 31.7932 167.452 31.6354 169.833 29.9787C170.371 29.5842 170.755 29.1897 171.293 28.8742C172.752 31.9509 171.6 32.1087 174.365 31.2409L176.132 30.6887C176.132 28.9531 175.057 27.8486 175.133 24.1407C175.133 21.5373 175.133 18.9339 175.133 16.4094C175.057 11.6759 171.062 9.15137 167.145 9.15137C163.304 9.15137 160.693 9.46693 157.543 11.8337C157.159 12.1492 156.775 12.307 156.775 12.7804ZM163.995 27.4541C159.848 27.4541 159.694 23.7462 161.691 22.6418C163.151 21.8529 165.685 21.6162 167.452 21.3006C168.451 21.1428 169.603 20.8273 170.448 20.7484C170.448 21.4584 170.525 23.4307 170.448 24.0618C170.371 24.6141 170.525 24.1407 170.217 24.6141C169.526 25.6396 167.99 26.6652 166.761 26.9808C166.146 27.2175 164.84 27.4541 163.995 27.4541Z" fill="#115DEA"/>
<path fill-rule="evenodd" clip-rule="evenodd" d="M178.282 12.7804C178.282 13.4116 180.126 15.7783 180.356 15.7783C181.355 15.7783 182.738 13.6483 187.73 13.6483C189.42 13.6483 192.032 14.2005 192.032 16.4094C192.032 17.0406 191.264 16.8828 189.881 17.0406C186.732 17.435 183.045 17.6717 180.587 19.1706C180.203 19.4073 179.281 20.1173 179.051 20.4329C175.44 24.8508 178.206 31.7932 184.351 31.7932C187.193 31.7932 188.959 31.6355 191.341 29.9787C191.878 29.5843 192.262 29.1898 192.8 28.8743C194.259 31.951 193.107 32.1088 195.873 31.241L197.639 30.6888C197.639 28.9532 196.564 27.8487 196.641 24.1408C196.641 21.5374 196.641 18.934 196.641 16.4094C196.641 13.0171 194.644 10.7293 191.878 9.78258C185.196 7.57362 178.282 11.7549 178.282 12.7804ZM185.503 27.4542C181.355 27.4542 181.201 23.7463 183.198 22.6419C184.658 21.8529 187.193 21.6163 188.959 21.3007C189.958 21.1429 191.11 20.8274 191.955 20.7485C191.955 22.2474 192.186 23.8252 191.725 24.6141C191.648 24.693 191.417 25.0086 191.341 25.0875C190.649 25.8764 189.343 26.6653 188.268 26.9809C187.654 27.2176 186.348 27.4542 185.503 27.4542Z" fill="#115DEA"/>
<path fill-rule="evenodd" clip-rule="evenodd" d="M199.406 15.7785C199.406 20.6697 203.554 21.932 207.856 22.4053C209.93 22.642 212.925 22.7998 213.463 24.3776C214.538 27.7699 207.088 28.4011 202.863 25.8765C201.634 25.1665 201.25 24.2198 200.482 25.4821C198.945 27.9277 197.793 27.8488 200.405 29.5844C201.096 30.0578 201.634 30.3733 202.402 30.6889C208.24 33.0557 218.072 32.109 218.072 24.851C218.072 17.4352 207.933 18.2241 205.321 17.1985C203.17 16.3307 203.17 13.6484 208.086 13.6484C212.695 13.6484 214.538 16.094 215.153 16.094C215.614 16.094 217.534 13.4117 217.688 12.9384C217.457 12.5439 216.459 11.8339 216.075 11.5972C215.383 11.2028 214.846 10.8083 214.078 10.4927C208.24 7.81045 199.406 9.46716 199.406 15.7785Z" fill="#115DEA"/>
<path fill-rule="evenodd" clip-rule="evenodd" d="M135.959 15.7784C135.959 24.6932 148.787 20.8275 150.016 24.3776C151.091 27.7699 143.64 28.401 139.415 25.8765C137.265 24.5354 137.956 24.2987 136.497 26.271C135.268 27.9277 134.73 28.0855 136.957 29.5844C143.179 33.6079 154.701 32.5034 154.701 24.8509C154.701 21.3008 152.09 19.4074 149.248 18.6185C145.868 17.6718 140.491 17.9874 140.491 15.6207C140.491 12.9384 146.405 13.5695 148.633 14.3584C149.171 14.5162 149.785 14.9106 150.246 15.1473C152.397 16.4096 151.321 16.804 153.703 13.8062C154.087 13.3328 154.087 13.4906 154.24 12.8595C153.165 11.1239 148.326 9.23047 145.714 9.23047C143.026 9.23047 140.721 9.30936 138.571 10.9661C137.188 11.9917 135.959 13.4906 135.959 15.7784Z" fill="#115DEA"/>
<path fill-rule="evenodd" clip-rule="evenodd" d="M248.182 10.0193V22.8786C248.182 23.9831 248.489 25.6398 248.797 26.5076C249.181 27.5332 249.642 28.401 250.333 29.1899C252.637 32.03 257.937 32.5033 261.087 31.0833C262.239 30.5311 262.7 30.0577 263.622 29.4266C263.929 30.0577 263.852 31.5567 264.543 31.5567C266.617 31.5567 268.077 31.8722 268.077 31.0833V10.0193C268.077 9.70377 268 9.54599 267.616 9.54599C263.468 9.54599 263.468 9.23043 263.468 10.4138V23.7464C263.468 24.8509 263.007 25.0876 262.316 25.6398C260.319 27.1387 259.397 27.2176 256.939 27.2176C252.868 27.2176 252.791 23.1942 252.791 20.2752V10.5716C252.791 9.23042 253.098 9.54599 248.643 9.54599C248.336 9.54599 248.182 9.70377 248.182 10.0193Z" fill="#115DEA"/>
<path fill-rule="evenodd" clip-rule="evenodd" d="M232.589 11.6757C231.514 9.38783 233.511 9.54561 228.595 9.54561C228.288 9.54561 228.134 9.6245 228.134 10.019V31.0829C228.134 31.3985 228.211 31.5563 228.595 31.5563C232.743 31.5563 232.743 31.8718 232.743 30.6885V17.3558C232.743 16.2514 232.666 16.5669 233.818 15.4625C235.508 13.7268 239.042 12.859 241.116 15.1469C242.114 16.2514 242.037 17.1981 242.806 18.3025C243.497 18.1448 244.111 17.9081 244.803 17.6714C245.878 17.277 246.723 17.277 246.646 16.4091C246.646 15.068 245.264 12.7013 244.342 11.6757C241.961 9.23005 237.813 8.59892 234.74 10.2556C233.358 10.8079 233.281 11.2023 232.589 11.6757Z" fill="#115DEA"/>
<path fill-rule="evenodd" clip-rule="evenodd" d="M120.52 11.676C119.444 9.38816 121.441 9.54594 116.525 9.54594C116.218 9.54594 116.064 9.62483 116.064 10.0193V31.0833C116.064 31.3988 116.141 31.5566 116.525 31.5566C121.441 31.5566 120.673 32.1877 120.673 29.111V17.2773C120.673 16.1728 120.596 16.4884 121.749 15.3839C123.438 13.6483 126.972 12.7805 129.046 15.0683C130.044 16.1728 129.968 17.1195 130.736 18.224L133.731 17.1984C134.115 17.0406 134.653 17.0406 134.576 16.2517C134.576 16.2517 134.576 15.9361 134.5 15.9361L133.731 13.8061C132.963 12.2282 131.657 10.7293 130.044 10.0193C127.125 8.75703 124.207 8.91481 121.518 10.8082C121.057 11.1238 120.904 11.3604 120.52 11.676Z" fill="#115DEA"/>
<path fill-rule="evenodd" clip-rule="evenodd" d="M219.454 28.3218C219.454 33.5286 225.83 32.4241 225.599 28.5585C225.522 27.6118 225.215 26.9806 224.754 26.4284C223.064 24.535 219.454 25.7184 219.454 28.3218Z" fill="#115DEA"/>
<path fill-rule="evenodd" clip-rule="evenodd" d="M29.8036 21.8529C30.7253 21.8529 31.1862 21.3796 31.263 20.5118C30.879 20.4329 30.9558 20.354 30.6485 20.354C29.7268 20.354 28.8818 21.8529 29.8036 21.8529Z" fill="#115DEA"/>
<path fill-rule="evenodd" clip-rule="evenodd" d="M29.9571 14.1215C30.2643 14.1215 30.1107 14.0426 30.5716 13.9637C30.3411 13.0959 29.9571 12.6226 29.0353 12.6226C28.1136 12.6226 28.9585 14.1215 29.9571 14.1215Z" fill="#115DEA"/>
<path fill-rule="evenodd" clip-rule="evenodd" d="M5.30029 13.9637C7.06699 14.4371 7.75831 12.6226 6.75974 12.6226C5.60754 12.6226 5.68436 13.0959 5.30029 13.9637Z" fill="#115DEA"/>
<path fill-rule="evenodd" clip-rule="evenodd" d="M4.60889 20.5118C4.83933 21.3796 5.14658 21.8529 6.06833 21.8529C6.99008 21.8529 6.06833 19.8807 4.60889 20.5118Z" fill="#115DEA"/>
<path fill-rule="evenodd" clip-rule="evenodd" d="M4.30155 18.2241C3.14935 18.303 2.76529 18.7764 2.68848 19.8808C3.37979 19.8808 3.76386 19.8808 4.07111 19.4864C4.22473 19.1708 4.45517 18.6186 4.30155 18.2241Z" fill="#115DEA"/>
<path fill-rule="evenodd" clip-rule="evenodd" d="M14.2871 13.0169C14.2871 13.1747 14.4407 13.3325 14.5944 13.3325C15.977 13.3325 16.2842 11.6758 15.7466 11.6758C15.3625 11.6758 14.9784 11.8336 14.748 11.9913C14.5944 12.1491 14.2871 12.7803 14.2871 13.0169Z" fill="#115DEA"/>
<path fill-rule="evenodd" clip-rule="evenodd" d="M11.6758 19.2495C11.8294 20.9062 13.1352 20.5118 13.5961 20.4329C13.3657 19.4073 12.6743 18.855 11.6758 19.2495Z" fill="#115DEA"/>
<path fill-rule="evenodd" clip-rule="evenodd" d="M24.6567 5.91701C24.6567 6.86371 25.1176 7.25816 25.9626 7.41594C26.4234 5.60145 24.6567 5.04921 24.6567 5.91701Z" fill="#115DEA"/>
<path fill-rule="evenodd" clip-rule="evenodd" d="M8.14215 9.2302H9.29434C9.14072 7.73127 8.21896 7.88905 7.37402 7.88905C7.60446 8.91464 7.68127 8.59907 8.14215 9.2302Z" fill="#115DEA"/>
<path fill-rule="evenodd" clip-rule="evenodd" d="M28.0366 17.5928C30.2642 17.5928 29.9569 14.8316 28.4975 16.2517C28.1902 16.4884 28.0366 17.0406 28.0366 17.5928Z" fill="#115DEA"/>
<path fill-rule="evenodd" clip-rule="evenodd" d="M30.418 24.1408V24.4563C31.1861 25.0086 31.7238 25.8764 31.7238 24.2985C31.7238 23.8252 31.3397 23.2729 30.418 23.2729V24.1408Z" fill="#115DEA"/>
<path fill-rule="evenodd" clip-rule="evenodd" d="M21.8149 5.04917L21.8918 5.12806C21.9686 5.36473 23.0439 6.78477 23.2744 5.91697C23.5048 5.04917 22.6599 4.33915 21.9686 4.26025C21.8918 4.57582 21.8918 4.57582 21.8149 5.04917Z" fill="#115DEA"/>
<path fill-rule="evenodd" clip-rule="evenodd" d="M20.6628 20.5118C20.6628 19.644 20.8164 18.6973 19.3569 18.5396V19.7229C19.8178 20.0385 19.8946 20.2752 20.6628 20.5118Z" fill="#115DEA"/>
<path fill-rule="evenodd" clip-rule="evenodd" d="M25.6553 12.938C25.6553 14.358 27.1147 14.8314 27.1147 13.9636C27.1147 12.938 25.6553 11.9124 25.6553 12.938Z" fill="#115DEA"/>
<path fill-rule="evenodd" clip-rule="evenodd" d="M25.041 17.2774C25.1946 18.8552 26.9613 18.6185 26.9613 18.2241C26.9613 17.9085 26.3468 16.804 25.041 17.2774Z" fill="#115DEA"/>
<path fill-rule="evenodd" clip-rule="evenodd" d="M4.14795 24.3772C4.14795 24.7717 4.22476 24.7717 4.30157 25.1661C5.0697 25.0083 4.91608 24.7717 5.45377 24.3772V23.1938C4.99289 23.1938 4.83926 23.2727 4.53201 23.5094C4.37839 23.6672 4.14795 24.0617 4.14795 24.3772Z" fill="#115DEA"/>
<path fill-rule="evenodd" clip-rule="evenodd" d="M12.8279 16.2514C12.8279 14.9103 12.5207 14.5947 11.2148 14.5947C11.2148 15.9359 11.7525 16.0148 12.8279 16.2514Z" fill="#115DEA"/>
<path fill-rule="evenodd" clip-rule="evenodd" d="M9.29453 18.5396C10.1395 18.5396 10.6772 18.3819 10.754 17.3563C10.3699 17.2774 10.4467 17.1985 10.1395 17.1985C9.29453 17.1196 8.29596 18.5396 9.29453 18.5396Z" fill="#115DEA"/>
<path fill-rule="evenodd" clip-rule="evenodd" d="M11.2148 11.5181C12.0598 11.5181 12.0598 11.2025 12.5207 10.887V9.70361C11.2917 9.7825 11.2148 10.3347 11.2148 11.5181Z" fill="#115DEA"/>
<path fill-rule="evenodd" clip-rule="evenodd" d="M19.5874 15.9358C19.9715 16.0147 19.8947 16.0936 20.2019 16.0936C20.7396 16.0936 22.7367 14.7524 20.5092 14.7524H20.2019C19.8947 15.2258 19.6642 15.1469 19.5874 15.9358Z" fill="#115DEA"/>
<path fill-rule="evenodd" clip-rule="evenodd" d="M26.9612 9.23031H27.4221C27.9598 9.23031 28.4206 8.4414 28.4206 7.88916H27.2684C27.1148 8.12583 25.9626 9.23031 26.9612 9.23031Z" fill="#115DEA"/>
<path fill-rule="evenodd" clip-rule="evenodd" d="M21.5076 13.3325C21.5076 12.1491 21.0467 11.6758 19.8945 11.6758C19.8945 12.8591 20.4322 13.3325 21.5076 13.3325Z" fill="#115DEA"/>
<path fill-rule="evenodd" clip-rule="evenodd" d="M9.90869 6.70583C9.90869 7.49474 10.2159 7.65253 10.8304 7.10029C11.2913 6.70583 11.2145 6.31137 11.2145 5.52246C10.4464 5.52246 9.90869 5.83803 9.90869 6.70583Z" fill="#115DEA"/>
<path fill-rule="evenodd" clip-rule="evenodd" d="M23.2744 10.3347C23.2744 11.2025 23.8121 11.5181 24.5802 11.5181V10.887C24.5802 10.0192 24.0425 9.70361 23.2744 9.70361V10.3347Z" fill="#115DEA"/>
<path fill-rule="evenodd" clip-rule="evenodd" d="M17.4364 16.2518C17.8204 16.2518 17.8204 16.1729 18.2045 16.094C17.9741 14.9895 17.6668 14.9106 16.2842 14.9106C16.2842 15.5418 16.7451 16.2518 17.4364 16.2518Z" fill="#115DEA"/>
<path fill-rule="evenodd" clip-rule="evenodd" d="M6.37549 16.4094C6.37549 17.3561 6.91318 17.5928 7.83493 17.5928C7.83493 16.4094 7.52768 15.936 6.37549 15.936V16.4094Z" fill="#115DEA"/>
<path fill-rule="evenodd" clip-rule="evenodd" d="M18.5887 11.676L18.7423 11.5182C18.9727 10.5715 18.9727 9.62479 17.8205 9.5459C17.5133 10.8871 17.5901 11.1237 18.5887 11.676Z" fill="#115DEA"/>
<path fill-rule="evenodd" clip-rule="evenodd" d="M16.8222 8.83598C16.8222 7.57372 16.7454 7.02148 15.5163 7.02148C15.5163 7.57372 15.4395 7.96818 15.7468 8.36264C15.9004 8.59931 16.3613 8.75709 16.8222 8.83598Z" fill="#115DEA"/>
<path fill-rule="evenodd" clip-rule="evenodd" d="M15.209 19.8807V20.354C16.6684 20.354 16.5916 19.3285 16.5148 18.5396C15.7467 18.5396 15.209 19.0129 15.209 19.8807Z" fill="#115DEA"/>
<path fill-rule="evenodd" clip-rule="evenodd" d="M22.4292 20.5117H23.5814C23.8886 20.0384 24.1191 20.1172 24.1959 19.3283C23.1205 19.0128 22.4292 19.4072 22.4292 20.5117Z" fill="#115DEA"/>
<path fill-rule="evenodd" clip-rule="evenodd" d="M8.8335 13.1747V14.358C10.3698 13.9636 10.1393 13.4113 10.1393 12.3857L8.8335 13.1747Z" fill="#115DEA"/>
</g>
<defs>
<clipPath id="clip0_316_2">
<rect width="268" height="37" fill="white"/>
</clipPath>
</defs>
</svg>
