<svg width="266" height="53" viewBox="0 0 266 53" fill="none" xmlns="http://www.w3.org/2000/svg">
<path fill-rule="evenodd" clip-rule="evenodd" d="M188.644 29.1947L188.465 41.771C188.376 42.5794 188.286 43.9269 188.286 44.915H193.211C193.211 43.2082 195.18 40.4235 196.165 39.1659L198.403 36.2913C200.015 34.2252 206.909 26.3201 206.999 24.793H207.357C207.357 25.332 207.267 25.4218 207.267 25.9608C207.267 26.4099 207.267 26.8591 207.267 27.2184L207.178 29.7337C207.178 30.5421 207.088 31.2608 207.088 32.1591V37.2794C207.088 39.5252 206.819 42.6693 206.819 44.8252H213.266C213.266 43.9269 213.176 43.2981 213.176 42.4896C213.176 41.5015 213.087 40.9625 213.087 40.0642C213.087 38.3574 212.997 36.9201 212.997 35.2133V26.3201C212.997 24.3438 213.087 22.6371 213.087 20.6608C213.087 18.8642 213.266 16.9777 213.266 15.0015H208.342C208.342 16.7082 206.282 19.6727 205.476 20.7506C204.044 22.6371 202.97 23.8947 201.627 25.5116C199.836 27.8472 196.523 31.4404 195.001 33.9557C194.375 35.0337 194.554 35.1235 194.016 35.1235C194.285 31.8896 194.375 28.6557 194.375 25.1523C194.375 23.3557 194.464 21.8286 194.464 20.1218C194.464 18.415 194.643 16.7981 194.643 15.0913H188.197C188.197 16.7082 188.376 18.6845 188.376 20.3015C188.376 21.0201 188.465 21.3794 188.465 22.0082C188.555 24.4337 188.644 26.6794 188.644 29.1947Z" fill="white"/>
<path fill-rule="evenodd" clip-rule="evenodd" d="M23.6367 44.8257H30.5307C30.7098 44.1969 30.7098 43.568 30.8888 42.5799C31.0679 41.8613 31.247 41.1426 31.426 40.424C31.6051 39.7053 31.7841 39.0765 32.0527 38.3579C32.1423 37.9986 32.2318 37.7291 32.4109 37.2799C32.5004 37.0104 32.6795 36.4714 32.769 36.2918H43.2443L45.1244 43.6579C45.214 44.0172 45.214 44.4664 45.3035 44.8257H52.6451C52.4661 43.0291 48.3476 31.5308 47.8104 29.9138L44.0501 18.8647C43.871 18.2358 43.6919 17.6969 43.4233 16.9782C43.2443 16.3494 42.9757 15.5409 42.9757 14.9121H34.6492C34.291 14.9121 34.3806 15.0019 34.291 15.3613C33.9329 17.4274 28.3819 32.0697 26.9494 35.5731C26.5913 36.5613 24.4425 42.3104 24.0844 43.4782C23.8158 44.0172 23.7263 44.4664 23.6367 44.8257ZM37.7828 19.224H38.1409C38.1409 19.9426 39.2153 23.1765 39.4839 24.0748C39.842 25.1528 41.7222 31.3511 42.0803 31.8901H33.8434L37.4247 20.9308C37.5142 20.3918 37.7828 19.763 37.7828 19.224Z" fill="white"/>
<path fill-rule="evenodd" clip-rule="evenodd" d="M80.3105 44.8252H86.8464C87.4731 44.8252 87.115 44.7354 87.4731 43.2083C87.8312 41.4117 88.3684 39.7947 88.8161 38.0879C88.9952 37.549 89.1742 36.9201 89.3533 36.3812H99.8286L100.992 40.5134C101.261 41.5913 101.888 43.9269 101.888 44.9151H109.229C109.229 44.1964 108.245 41.0523 107.976 40.2439C105.559 32.8778 102.604 25.1523 100.366 17.8761L99.739 15.5405C99.6495 15.1812 99.739 15.1812 99.3809 15.1812H91.0544C90.9649 16.1693 89.98 18.8642 89.6219 19.9422C89.5324 20.2117 89.4428 20.571 89.2638 20.9303C88.0998 23.8947 87.0255 27.0388 85.772 30.093C85.3244 31.2608 84.8767 32.5184 84.3395 33.7761C83.8023 35.0337 83.4442 36.2015 82.907 37.4591C82.1012 39.4354 80.7582 42.849 80.3105 44.8252ZM94.7252 19.2235C94.8148 20.8405 97.5007 28.2066 98.1274 30.3625C98.217 30.7218 98.4856 31.5303 98.6646 31.8896H90.4277C90.6067 31.5303 90.7858 30.8117 90.9649 30.3625C91.1439 29.8235 91.323 29.3744 91.5021 28.7456C92.0393 27.0388 94.009 21.4693 94.2776 19.8523C94.3671 19.4032 94.188 19.2235 94.7252 19.2235Z" fill="white"/>
<path fill-rule="evenodd" clip-rule="evenodd" d="M63.0307 28.6557C63.0307 29.0151 62.6726 29.2846 62.3145 29.7337C62.0459 30.093 61.8668 30.3625 61.5982 30.632C61.3296 30.9913 61.1505 31.2608 60.9715 31.6201C59.3599 33.8659 56.853 38.0879 55.2414 40.6032C54.7938 41.3218 54.4356 41.9507 53.988 42.6693C53.7194 43.2083 52.9136 44.3761 52.9136 45.0049H59.9866C59.9866 44.1066 61.5982 40.4235 62.2249 39.3456L65.269 33.3269C66.0748 31.8896 66.3434 33.3269 67.6864 35.5727L70.9095 41.771C71.5363 43.2083 71.6258 43.2083 72.163 44.7354C72.2525 45.0049 72.163 45.0947 72.4316 45.0947H79.8628C79.8628 43.7473 74.9385 36.1117 74.0432 34.5846C73.3269 33.4168 71.6258 30.7218 70.7305 29.6439C69.7456 28.3863 69.6561 29.0151 71.1781 27.1286C73.2374 24.5235 75.4757 20.9303 77.4454 18.0557C77.893 17.4269 78.7884 15.9896 78.9674 15.271H72.163C71.9839 16.2591 71.5363 17.2473 71.1781 18.0557L70.0142 20.6608C69.8351 21.11 69.5666 21.4693 69.3875 21.9185C69.1189 22.4574 67.6864 25.4218 67.1492 25.4218C66.8806 25.4218 66.4329 24.6134 66.2539 24.3439C65.9853 23.8947 65.8062 23.5354 65.5376 23.1761C65.0899 22.2778 64.6423 21.4693 64.1946 20.6608L62.9412 18.0557C62.6726 17.4269 61.9563 15.9896 61.8668 15.271H54.5252C54.5252 16.1693 56.3158 18.8642 56.853 19.7625L58.4646 22.2778C59.4494 23.7151 61.4191 26.6795 62.404 27.9371C62.583 27.9371 63.0307 28.4761 63.0307 28.6557Z" fill="white"/>
<path fill-rule="evenodd" clip-rule="evenodd" d="M244.602 15.3612C244.602 16.2595 244.423 17.1578 244.333 17.9663C244.333 18.5053 244.065 20.0324 244.154 20.4816L245.497 20.2121C245.945 20.1222 246.661 19.9426 247.109 19.8527C251.764 19.0443 257.405 19.0443 259.643 23.8951C260.001 24.7036 260.449 26.1409 260.539 27.129C259.285 27.129 248.72 27.0392 248.452 26.8595V31.6205L260.539 31.5307C260.539 34.8544 258.927 38.4477 255.614 39.7951C252.928 40.8731 248.541 40.3341 245.497 39.7951C245.05 39.7053 244.512 39.5256 244.065 39.5256C243.975 40.5138 243.438 44.107 243.438 44.7358L247.198 45.0951C248.899 45.3646 251.406 45.3646 253.107 45.2748C258.032 45.0053 262.419 42.49 264.657 38.0883C264.926 37.5494 265.821 35.6629 265.821 34.9443V23.7155C265.821 22.7273 264.657 20.6612 264.12 19.8527C263.672 19.2239 263.404 18.8646 262.866 18.4155C259.554 15.0917 255.525 14.6426 250.869 14.6426C249.347 14.6426 247.288 14.9121 245.945 15.0917C245.766 15.1816 245.05 15.3612 244.602 15.3612Z" fill="white"/>
<path fill-rule="evenodd" clip-rule="evenodd" d="M221.234 15.0019H219.801C219.801 15.7205 219.891 16.4392 219.891 17.2476L219.98 19.5832C219.98 20.4815 220.07 21.1104 220.07 21.829L219.98 40.9629C219.98 41.5019 219.891 41.6815 219.891 42.2205C219.891 43.2087 219.801 43.9273 219.801 44.7358H226.248C226.248 40.9629 226.069 37.2798 226.069 33.4171C229.292 33.4171 230.545 33.507 233.679 32.6087C238.245 31.2612 241.468 28.3866 241.468 22.7273C241.468 18.4154 238.693 16.1697 234.843 15.2714C232.783 14.7324 230.635 14.912 228.217 14.912C227.053 14.912 226.069 15.0019 224.815 15.0019C223.562 15.0019 222.398 15.0019 221.234 15.0019ZM225.71 19.5832C226.248 19.5832 227.322 19.3137 228.486 19.3137C230.366 19.3137 232.246 19.4036 233.768 20.3917C236.186 22.0985 236.275 26.6798 233.052 28.2968C232.336 28.6561 231.709 28.9256 230.814 29.1053C229.202 29.4646 227.859 29.3748 226.248 29.3748C225.8 29.3748 225.979 28.8358 225.979 28.3866V24.6137C225.889 22.907 225.71 21.2002 225.71 19.5832Z" fill="white"/>
<path fill-rule="evenodd" clip-rule="evenodd" d="M133.671 53C137.611 53 140.476 52.6407 143.789 50.9339C146.295 49.6763 147.997 48.4186 149.787 46.5322C151.936 44.3763 153.727 41.322 154.711 38.4474C154.98 37.7288 155.07 37.1 155.249 36.3813C155.428 35.7525 155.517 34.8542 155.607 34.1356C155.786 31.4407 155.965 30.0034 155.249 27.039C155.07 26.3203 154.891 25.7813 154.711 25.0627C153.727 22.0983 152.115 19.1339 149.877 16.978C147.012 14.1034 144.236 12.3966 140.207 11.2288C136.895 10.2407 132.597 10.2407 129.284 11.139C127.852 11.4983 126.867 11.9475 125.524 12.5763C124.271 13.2051 123.375 13.6542 122.211 14.4627C119.257 16.6186 116.66 19.7627 115.228 23.0864C114.422 25.0627 113.437 28.1169 113.437 30.3627C113.437 30.9017 113.348 31.0813 113.348 31.6203L113.527 33.9559C113.616 34.8542 113.706 35.483 113.885 36.2017C114.512 39.1661 115.765 41.861 117.466 44.2864C118.272 45.3644 118.988 46.2627 119.883 47.0712C121.585 48.6881 123.196 49.7661 125.255 50.8441C127.315 51.922 130.717 53 133.671 53ZM131.523 13.2051C131.165 13.1152 130.717 12.6661 130.448 12.4864C130.627 12.2169 131.075 11.5881 131.254 11.4983C131.344 11.139 131.254 11.3186 131.523 11.139C131.612 10.8695 131.523 10.9593 131.791 11.139L133.045 12.0373C132.866 12.5763 132.149 13.1152 132.06 13.5644C131.791 13.4746 131.702 13.4746 131.523 13.2051ZM134.298 11.4085C134.477 11.2288 134.656 10.8695 134.835 10.7797L136.178 12.1271L134.835 13.5644L133.403 12.2169L134.298 11.4085ZM137.7 13.4746L137.521 13.6542C137.163 13.1152 136.716 12.5763 136.447 12.1271C136.895 11.7678 137.432 11.4085 137.879 11.0491C138.148 11.2288 138.864 12.2169 139.043 12.4864C138.954 12.6661 138.596 12.8458 138.417 13.0254C138.238 13.2051 137.969 13.3847 137.7 13.4746ZM128.479 11.9475C128.568 11.7678 128.479 11.7678 128.568 11.678C128.926 11.7678 129.732 12.2169 130.18 12.4864C130.18 12.9356 129.463 13.7441 129.374 14.1932C128.837 13.9237 128.21 13.5644 127.673 13.2949C127.852 13.0254 128.3 12.1271 128.479 11.9475ZM139.312 12.4864C139.581 12.3966 139.849 12.2169 140.118 12.1271C140.386 11.9475 140.655 11.8576 140.924 11.678C141.103 11.9475 141.192 12.2169 141.371 12.4864C141.55 12.7559 141.729 13.0254 141.819 13.3847C141.282 13.4746 140.565 14.1932 140.118 14.1932C140.028 13.8339 139.849 13.6542 139.67 13.3847C139.581 13.0254 139.402 12.8458 139.312 12.4864ZM126.867 15.1813C126.33 15.0915 125.614 14.7322 124.987 14.5525C125.166 14.283 125.614 13.1152 125.614 12.7559C126.151 12.7559 126.867 13.2051 127.494 13.3847L126.867 15.1813ZM142.087 13.3847C142.714 13.2051 143.43 12.8458 143.878 12.7559C143.878 13.0254 144.057 13.4746 144.147 13.7441C144.236 14.1034 144.415 14.3729 144.505 14.7322C144.147 14.7322 143.072 15.1813 142.714 15.361C142.625 14.7322 142.177 14.0136 142.087 13.3847ZM149.698 20.7508C149.25 20.3915 149.25 19.8525 149.608 19.4932C149.787 19.3136 149.966 19.2237 150.324 19.2237C150.772 19.2237 150.772 19.3136 150.951 19.583C150.414 19.4932 150.593 19.4932 150.056 19.583C150.145 20.122 150.324 19.7627 150.414 20.3017C150.145 20.2119 150.056 20.0322 149.966 19.7627L149.608 20.0322C149.608 20.4813 149.608 20.3915 149.698 20.7508ZM120.063 20.122C119.884 20.3915 119.973 20.3915 119.704 20.5712C119.615 20.8407 119.525 21.0203 119.257 21.1102C118.899 21.2898 118.809 21.0203 118.541 20.8407C118.541 20.3017 118.541 20.2119 118.809 20.0322V19.7627C118.361 19.6729 118.72 19.583 118.272 19.583C118.361 19.4034 118.451 19.3136 118.541 19.0441C118.541 19.0441 118.541 19.0441 118.541 19.1339L118.809 19.4034C119.167 19.583 119.794 20.122 120.063 20.122ZM151.041 19.6729L150.951 19.583L151.041 19.6729ZM151.041 19.6729C151.22 19.8525 151.22 19.7627 151.309 20.122C150.951 20.2119 151.22 20.2119 150.862 20.3017C151.13 19.8525 151.13 20.0322 151.041 19.6729ZM149.787 20.8407L149.698 20.7508L149.787 20.8407ZM149.787 20.8407C150.056 20.8407 150.056 20.8407 150.235 20.7508L149.966 21.0203L149.787 20.8407ZM117.287 21.2C117.377 20.7508 117.466 20.9305 117.556 20.5712C117.556 20.5712 117.556 20.5712 117.556 20.661C117.556 20.9305 118.361 21.2898 118.63 21.4695C118.899 21.6491 118.72 21.4695 118.809 21.5593H118.988C118.809 21.8288 118.72 22.0085 118.541 22.1881L118.63 21.8288C118.361 21.6491 118.182 21.4695 117.914 21.6491C117.914 21.4695 117.914 21.5593 117.824 21.4695L117.645 21.2898C117.556 21.1102 117.466 21.1102 117.287 21.2ZM152.115 21.3797C151.846 21.2898 151.667 21.3797 151.399 21.5593C151.13 21.739 150.951 21.9186 150.683 22.0085L150.772 22.3678C150.593 22.1881 150.145 21.3797 150.056 21.2C150.324 21.1102 150.324 21.1102 150.503 21.0203C150.414 21.4695 150.235 21.1102 150.414 21.739L151.846 20.7508C151.936 21.1102 152.026 20.9305 152.115 21.3797ZM117.287 21.2C117.287 21.3797 117.198 21.4695 117.198 21.5593C117.198 21.739 117.198 21.5593 117.287 21.9186L116.929 21.8288C117.018 21.5593 117.108 21.3797 117.287 21.2ZM118.003 21.6491V22.0085C117.735 21.9186 117.824 22.0085 117.645 21.8288C117.914 21.739 117.824 21.8288 118.003 21.6491ZM118.63 22.1881L118.541 22.3678L118.63 22.1881ZM118.541 22.3678C118.451 22.5474 118.541 22.5475 118.451 22.6373L118.093 22.3678H118.541ZM150.772 22.3678H151.309C151.13 22.5474 151.22 22.5475 150.862 22.6373C150.772 22.5475 150.862 22.5474 150.772 22.3678ZM151.936 22.9068C151.757 22.8169 151.846 22.8169 151.757 22.9068C151.757 22.9068 151.578 22.9966 151.578 23.0864C151.399 23.2661 151.399 23.3559 151.399 23.7152C151.309 23.6254 151.309 23.7152 151.309 23.5356C151.22 23.4458 151.22 23.4458 151.22 23.2661C151.22 22.7271 151.846 22.3678 152.205 22.3678C152.742 22.3678 153.637 23.4458 152.742 23.6254C152.831 23.2661 152.831 23.4458 153.01 23.1763C152.921 22.9966 152.742 22.9068 152.652 22.7271C151.846 22.6373 152.026 22.7271 151.936 22.9068ZM116.302 22.9966C116.571 21.8288 118.361 22.4576 118.003 23.6254C117.824 24.0746 117.735 24.1644 117.377 24.0746V23.8949C118.272 23.8949 117.914 23.1763 117.645 22.9966C117.018 22.6373 116.75 22.7271 116.302 22.9966ZM151.936 22.9068C152.115 22.9966 152.026 22.9068 152.205 23.1763C152.384 23.4458 152.384 23.2661 152.205 23.4458C152.026 23.2661 152.026 23.2661 151.936 22.9068ZM116.302 22.9966C116.302 23.5356 116.392 23.1763 116.481 23.6254C116.302 23.5356 116.392 23.5356 116.123 23.5356C116.123 23.1763 116.123 23.2661 116.302 22.9966ZM151.399 23.6254L151.488 23.8051L151.399 23.6254ZM151.488 23.8051H151.936C151.846 24.0746 151.936 23.9847 151.578 24.0746C151.578 23.9847 151.578 23.9847 151.488 23.8051ZM152.921 25.0627L153.727 24.6136L153.906 25.2424C153.458 25.0627 152.921 25.6017 152.384 25.6017C152.384 25.6915 152.384 25.7813 152.384 25.7813C152.294 25.961 152.384 25.8712 152.294 25.961C152.294 25.6017 152.205 25.6915 152.115 25.3322L152.384 25.2424C152.652 25.1525 152.563 25.1525 152.831 25.1525V24.883L152.205 24.7932C151.757 24.7932 152.115 25.1525 151.846 24.7932C151.757 24.7034 151.757 24.4339 151.757 24.3441C152.026 24.5237 152.384 24.7034 152.742 24.7034C153.01 24.2542 153.01 23.9847 153.369 23.6254C153.637 24.5237 153.01 24.4339 152.921 25.0627ZM117.466 24.4339C117.466 24.6136 117.466 24.7034 117.377 24.7932C117.287 24.9729 117.287 24.9729 117.198 25.1525C117.198 24.883 117.377 24.883 116.571 24.6136C116.213 24.5237 115.944 24.3441 115.675 24.4339L115.944 23.9847C116.123 24.1644 116.213 24.1644 116.571 24.2542C116.839 24.4339 117.108 24.6136 117.466 24.4339ZM115.317 25.5119C115.317 25.1525 115.407 25.2424 115.496 24.883C115.496 24.883 115.496 24.883 115.496 24.9729C115.586 25.2424 116.75 25.6017 117.018 25.6017L117.108 25.422C117.108 25.7813 116.929 25.8712 116.929 26.2305V26.1407C116.929 26.2305 117.287 26.0508 116.213 25.6915C115.855 25.6017 115.586 25.422 115.317 25.5119ZM117.198 25.1525C117.198 25.6017 117.198 25.3322 117.108 25.422C117.108 25.0627 117.108 25.2424 117.198 25.1525ZM154.353 26.6797C153.906 26.6797 153.727 26.8593 153.458 27.039C153.189 27.3085 153.1 27.578 152.831 27.7576C152.831 27.4881 152.831 27.3983 152.742 27.2186H152.831C153.1 27.1288 153.279 26.8593 153.458 26.5898C153.189 26.5 152.921 26.4102 152.652 26.4102C152.652 26.8593 152.652 26.5898 152.563 26.6797L152.473 26.1407C153.1 26.5 153.637 26.6797 154.174 26.3203C154.353 26.2305 154.085 26.1407 154.264 26.2305C154.353 26.4102 154.264 26.3203 154.353 26.6797ZM115.228 26.8593C114.959 26.6797 115.049 26.8593 115.049 26.4102H115.407C115.317 26.5898 115.317 26.5898 115.228 26.8593ZM116.481 27.6678V28.0271C115.944 27.4881 115.317 27.2186 115.228 26.8593C115.675 26.8593 116.571 26.5898 116.839 26.4102C116.75 26.5898 116.75 26.6797 116.75 26.9491C116.213 26.8593 116.302 27.039 115.675 27.039C115.765 27.3085 116.213 27.578 116.481 27.6678ZM154.353 26.6797L154.443 26.8593L154.353 26.6797ZM154.711 28.2966C153.995 28.2966 153.727 28.4763 153.1 28.4763V28.7458V28.6559V28.5661L153.01 27.8474C153.1 28.0271 153.1 28.0271 153.369 28.0271C153.637 28.0271 153.727 28.0271 153.816 27.9373C154.264 27.8474 154.443 27.8474 154.801 27.7576V28.2966H154.711ZM154.711 28.2966L154.801 28.4763L154.711 28.2966ZM115.496 28.9254C115.496 29.1949 115.496 29.3746 115.228 29.4644C114.959 29.5542 114.78 29.4644 114.601 29.2847C114.333 28.9254 114.601 28.2966 114.691 27.8474C114.78 28.0271 114.78 28.0271 114.959 28.1169C115.317 28.2966 116.123 28.3864 116.392 28.1169C116.392 28.5661 116.213 29.0152 116.213 29.4644C115.765 29.4644 115.944 29.5542 115.765 29.2847C116.213 29.2847 116.213 29.1051 116.213 28.6559C115.944 28.5661 115.944 28.5661 115.586 28.5661C115.586 29.1051 115.586 28.7458 115.496 28.9254ZM153.01 28.7458C153.1 28.8356 153.1 28.5661 153.1 29.0152C153.548 29.0152 153.548 28.9254 153.995 28.9254C154.353 28.9254 154.532 29.0152 154.801 29.1051V29.4644C154.532 29.5542 154.711 29.4644 154.532 29.5542V29.1051H153.189C153.1 29.3746 153.189 29.1949 153.01 29.3746V28.7458ZM114.691 30.183C115.317 30.3627 115.855 30.5424 116.123 30.2729C116.123 30.2729 116.123 30.2729 116.123 30.183C116.123 30.4525 116.123 30.722 116.123 30.9915C116.123 31.8 116.123 31.3508 115.049 31.3508C114.512 31.3508 114.601 31.261 114.333 31.5305V30.8119C114.601 31.0813 114.691 30.9915 115.228 30.9915C115.855 31.0813 116.034 31.261 116.034 30.5424C115.765 30.5424 115.138 30.4525 114.87 30.3627C114.512 30.2729 113.974 29.8237 114.78 29.7339C114.691 29.9135 114.691 29.9135 114.691 30.183ZM153.1 30.183V29.6441C153.637 30.0034 153.906 30.2729 154.532 30.2729C154.801 30.2729 154.622 30.3627 154.891 30.0932C154.891 30.0932 154.891 30.0932 154.891 30.0034V30.6322C154.264 30.2729 153.458 31.0813 153.189 31.4407L153.279 30.722C153.369 30.722 153.279 30.722 153.548 30.6322C153.727 30.5424 153.906 30.4525 153.995 30.2729C153.727 30.183 153.727 30.183 153.548 30.0932C153.01 29.8237 153.369 30.0932 153.1 30.183ZM153.279 32.1593V32.5186C153.816 32.5186 154.532 32.6983 154.891 32.5186V33.0576C154.532 32.7881 153.995 32.7881 153.548 32.878C153.279 32.878 153.279 32.878 153.189 33.0576V31.7102L153.637 31.8898C153.458 31.8898 153.279 31.8898 153.279 32.1593ZM154.085 32.2491C154.085 31.8 154.085 31.5305 154.622 31.6203C154.98 31.7102 154.98 31.9797 155.07 32.339C154.891 32.2491 154.622 31.6203 154.085 32.2491ZM114.959 32.6085C114.512 32.5186 114.691 32.2491 114.333 32.6085V31.8898C114.691 32.2491 114.959 32.0695 115.407 31.9797C116.123 31.8898 116.123 31.8 116.123 32.5186C115.855 32.2491 115.496 32.339 114.78 32.339L114.959 32.6085ZM154.085 32.2491L153.995 32.4288L154.085 32.2491ZM115.138 32.6983L114.959 32.6085L115.138 32.6983ZM115.228 32.7881L115.138 32.6983L115.228 32.7881ZM115.407 32.878L115.228 32.7881L115.407 32.878ZM115.496 32.9678L115.407 32.878L115.496 32.9678ZM115.675 33.0576L115.496 32.9678L115.675 33.0576ZM116.839 32.2491C116.839 29.4644 117.108 27.3085 118.182 24.883C118.272 24.6136 118.451 24.4339 118.541 24.1644C120.242 20.122 124.539 16.2593 128.747 14.9119C130.985 14.1932 132.418 13.9237 134.925 13.9237C137.969 13.9237 140.476 14.822 142.714 15.8102C143.789 16.3491 144.505 16.7983 145.4 17.5169C148.713 20.0322 150.862 23.1763 151.936 27.2186C153.637 33.5068 151.578 40.1542 147.191 44.5559C146.922 44.8254 146.833 44.8254 146.564 45.0949C146.385 45.2746 146.206 45.4542 146.027 45.6339C145.221 46.2627 143.699 47.3407 142.804 47.7898C136.716 50.5746 130.18 50.3949 124.718 46.5322C123.823 45.9034 123.017 45.2746 122.301 44.5559C121.495 43.7474 120.958 43.1186 120.331 42.2203C118.182 39.2559 116.839 36.022 116.839 32.2491ZM115.675 33.0576C115.944 33.2373 115.944 33.1474 116.123 32.9678V33.5966C115.765 33.4169 114.691 33.4169 114.422 33.7763V33.1474C114.691 33.3271 115.228 33.2373 115.675 33.2373V33.0576ZM153.637 35.8424C153.189 35.7525 153.458 35.6627 153.1 35.483H152.921C153.01 35.2136 153.1 34.5847 153.1 34.2254C153.458 34.5847 153.458 34.2254 153.995 34.1356C153.906 33.9559 153.816 33.8661 153.637 33.7763C153.279 33.5068 153.458 33.5068 153.189 33.7763C153.189 33.5068 153.189 33.4169 153.279 33.2373C153.458 33.5068 153.727 33.6864 153.995 33.8661C154.264 34.0458 154.622 34.2254 154.891 33.9559V34.4949C154.264 34.4051 154.353 34.2254 153.1 34.8542C153.01 35.5729 153.279 35.3932 153.637 35.8424ZM115.496 34.4949V34.7644C116.034 34.8542 116.034 35.2136 116.392 34.8542C116.392 35.3034 116.481 35.2135 116.481 35.5729C116.213 35.3034 116.034 35.0339 115.586 34.9441C115.317 35.1237 115.049 35.7525 114.691 35.8424C114.691 34.9441 115.228 35.2136 115.407 34.5847C114.512 34.5847 114.512 35.0339 114.512 34.2254C114.691 34.3152 115.855 34.3152 116.213 33.8661L116.302 34.5847C115.944 34.3152 116.123 34.4949 115.496 34.4949ZM153.637 35.8424C153.906 36.022 154.264 36.1119 154.532 36.022C154.532 36.3813 154.443 36.2915 154.443 36.6508V36.561C154.443 36.6508 154.264 36.2017 153.637 36.2915C153.279 36.3813 152.921 36.561 152.652 36.6508L152.742 35.9322C152.921 36.1119 152.831 36.1119 153.189 36.1119C153.548 36.1119 153.548 36.2017 153.637 35.8424ZM114.87 36.2017C115.228 36.2915 116.302 36.4712 116.75 36.4712C116.66 36.8305 116.302 37.0102 116.034 37.1898C115.765 37.4593 115.496 37.639 115.228 37.8186C115.228 37.5491 115.228 37.5491 115.138 37.3695C115.317 37.2796 115.586 37.3695 115.675 36.9203V36.8305C115.675 36.9203 115.586 36.022 114.87 36.561V36.2017ZM152.294 37.7288C152.294 37.3695 152.473 37.2796 152.473 36.9203C152.652 37.1898 152.384 37.1898 153.189 37.4593C153.548 37.5491 153.816 37.7288 154.085 37.639C154.085 37.9983 153.995 38.0881 153.816 38.2678C153.727 37.8186 153.906 38.0881 153.548 37.9085C153.458 37.9085 153.189 37.8186 153.1 37.8186C152.831 37.7288 152.563 37.639 152.294 37.5491V37.7288ZM151.936 38.7169C151.936 38.4474 151.936 38.4474 152.026 38.178L152.115 37.9085C152.205 37.7288 152.205 37.8186 152.294 37.7288C152.294 38.0881 152.205 37.9983 152.205 38.3576C152.831 38.4474 153.369 38.8966 153.727 38.7169L153.548 39.3458L153.279 39.0763C153.279 38.9864 152.205 38.5373 151.936 38.7169ZM116.123 40.0644C115.855 39.7949 115.855 39.4356 116.034 39.1661C116.302 38.6271 117.735 38.2678 117.914 39.7949C117.735 39.8847 117.735 39.8847 117.466 39.8847C117.466 39.8847 118.093 39.1661 117.377 38.9864C116.929 38.8966 116.481 39.2559 116.213 39.4356V40.0644H116.123ZM151.578 39.4356C151.667 39.1661 151.667 39.1661 151.757 38.9864C152.026 39.1661 151.936 38.9864 152.115 39.2559C151.757 39.2559 151.846 39.2559 151.578 39.4356ZM151.578 39.4356C151.578 40.6034 152.831 40.6034 153.1 40.1542C153.279 39.7949 153.1 39.7949 152.921 39.6152C153.727 39.7051 153.01 40.783 152.384 40.783C151.667 40.783 151.13 40.0644 151.578 39.4356ZM116.123 40.0644C116.392 40.1542 116.302 40.1542 116.66 40.1542C116.481 40.3339 116.571 40.3339 116.213 40.4237L116.123 40.0644ZM117.377 41.2322L117.287 41.0525L117.198 40.8729C116.839 40.8729 116.75 40.9627 116.571 41.1424L116.481 40.783C116.929 40.783 117.108 40.783 117.466 40.6932C117.645 40.6932 117.824 40.6932 118.003 40.6932C118.63 40.6932 118.541 40.6932 117.914 41.5017L117.198 42.4C117.108 42.1305 117.018 42.0407 116.929 41.861C117.018 41.7712 117.556 41.9508 117.377 41.2322ZM118.899 41.7712L118.809 41.5915L118.899 41.7712ZM152.115 42.1305C151.757 43.3881 149.787 42.2203 150.593 41.322C150.683 40.9627 150.683 41.1424 150.862 40.8729C151.309 40.8729 152.205 40.8729 152.294 41.5915C152.294 41.861 152.294 41.6813 152.294 41.861C152.205 42.2203 152.205 42.0407 152.115 42.1305ZM117.735 43.0288C117.556 42.8491 117.556 42.8491 117.466 42.5797C117.735 42.7593 118.093 42.6695 118.541 42.6695C118.72 42.4 118.72 42.0407 118.899 41.7712C119.167 41.9508 119.078 41.9508 119.257 42.2203C118.899 42.3102 118.988 42.4898 118.809 42.8491C119.436 42.8491 119.257 42.939 119.615 42.6695L119.794 43.0288L118.809 42.939C118.63 43.2085 118.451 43.6576 118.451 44.0169C118.272 43.9271 118.093 43.6576 118.003 43.478C118.272 43.478 118.182 43.478 118.361 43.2983C118.451 43.2085 118.451 43.0288 118.451 42.8491L117.735 43.0288ZM150.324 43.5678C150.414 43.7475 150.324 43.6576 150.414 43.7475C150.414 43.7475 150.503 43.8373 150.503 43.9271C150.683 44.1068 150.593 44.0169 150.862 44.0169C150.683 44.1966 150.593 44.3763 150.414 44.5559C150.414 44.1068 150.503 44.3763 150.235 44.1966L149.877 43.9271C149.608 43.7475 149.429 43.5678 149.161 43.478C149.25 43.1186 149.16 43.2983 149.429 43.1186C149.519 42.7593 149.966 42.4 150.324 42.5797C150.862 42.7593 150.683 43.2983 150.324 43.5678ZM119.704 44.6458L119.615 44.5559C119.078 44.1966 119.615 44.3763 118.988 44.3763C118.899 44.4661 118.899 44.4661 118.899 44.6458L118.63 44.3763L120.6 43.8373C120.421 44.5559 119.794 44.9152 119.794 45.7237C119.615 45.5441 119.436 45.3644 119.346 45.1847C119.794 45.1847 119.704 45.0949 119.704 44.6458ZM148.355 44.3763C148.444 44.1068 148.265 44.2864 148.534 44.1966C149.16 43.3881 150.683 44.6458 149.698 45.5441C148.802 46.4424 147.549 44.9152 148.355 44.3763ZM120.868 47.4305C120.689 47.0712 120.689 46.4424 121.047 46.1729C121.406 45.7237 121.674 45.7237 122.39 45.7237C122.211 45.9034 120.958 46.083 120.868 47.4305ZM147.728 47.3407V47.0712C147.549 46.9813 147.459 46.9813 147.191 46.9813L147.101 47.0712L146.833 47.4305C147.101 47.8797 146.743 47.7898 147.191 47.7898C147.012 48.0593 147.101 47.8797 146.833 48.0593C146.833 47.3407 146.385 46.7119 146.385 46.083C147.101 46.2627 147.459 46.8915 148.265 46.8915C148.086 47.161 147.907 47.2508 147.728 47.3407ZM123.375 46.5322C123.554 46.622 123.644 46.7119 123.823 46.8915C123.554 47.0712 123.465 47.2508 123.196 47.5203C123.107 47.6102 123.017 47.7 122.928 47.8797C122.659 48.239 122.749 47.9695 122.838 48.239C122.569 48.1491 122.569 48.1491 122.39 47.8797C122.659 47.7898 122.569 47.7 122.838 47.5203C122.749 47.2508 122.838 47.4305 122.749 47.2508C122.122 47.3407 121.943 47.8797 121.585 47.2508C121.853 47.2508 122.122 47.161 122.39 47.0712C122.122 45.9932 123.017 46.1729 123.375 46.5322ZM145.49 46.9813V47.9695C146.027 47.9695 146.027 48.239 146.564 48.239C146.475 48.4186 146.295 48.5085 146.027 48.5983C145.937 48.4186 145.848 48.239 145.311 48.239C145.311 48.8678 145.221 48.6881 145.49 49.0474L145.132 49.2271C145.132 48.8678 145.221 48.6881 145.221 48.1491C144.952 47.9695 144.594 47.8797 144.236 47.7898C144.326 47.6102 144.505 47.5203 144.773 47.4305C144.863 47.7898 144.952 47.7898 145.4 47.7898C145.4 47.5203 145.311 47.2508 145.221 47.0712C145.311 47.0712 145.311 47.0712 145.49 46.9813ZM125.524 48.0593C124.897 48.0593 124.897 48.239 124.45 48.239C124.45 48.5983 124.629 49.1373 124.629 49.4966C124.181 49.4068 124.181 49.0475 124.181 48.239C123.912 48.3288 124.002 48.239 123.823 48.4186C123.733 48.5983 123.733 48.5983 123.733 48.9576C123.465 48.778 123.375 48.8678 123.196 48.5983C123.554 48.5085 123.644 48.239 123.733 47.9695C123.912 47.7 124.092 47.5203 124.181 47.2508C124.539 47.3407 124.271 47.3407 124.629 47.4305C124.36 47.6102 124.271 47.8797 124.092 48.1491C124.36 48.239 124.539 48.239 124.808 47.9695C125.076 47.7898 124.897 48.1491 124.987 47.7L125.524 48.0593ZM126.24 49.4068C126.151 49.4966 125.345 50.4847 125.255 49.5864C125.882 49.6763 125.882 50.2152 125.703 48.5983C125.614 48.1491 125.703 48.3288 125.524 48.0593C125.882 48.1491 125.882 48.239 126.24 48.3288L126.151 48.4186C125.972 48.6881 126.061 48.778 126.061 49.4068H126.24ZM126.24 49.4068C126.33 49.0475 126.24 49.4068 126.509 49.0474C126.688 48.8678 126.688 48.9576 126.777 48.6881L127.136 48.778L126.24 49.4068ZM143.789 49.3169L143.61 49.4068L143.43 50.0356C143.878 50.0356 143.61 50.0356 143.699 50.1254C143.43 50.2152 143.43 50.2152 143.162 50.3051C143.43 49.7661 143.162 48.8678 143.162 48.3288C143.878 48.4186 144.147 49.3169 144.863 49.4068C144.684 49.6763 144.594 49.5864 144.326 49.7661C144.236 49.6763 144.326 49.3169 143.789 49.3169ZM142.267 50.6644L142.177 50.7542C140.924 51.0237 140.565 49.0475 142.177 48.8678C142.267 49.1373 142.267 48.9576 142.267 49.3169C142.087 49.1373 142.177 49.3169 142.087 49.0474C141.729 49.0474 141.729 49.1373 141.55 49.1373C141.371 49.9458 141.55 50.4847 142.267 50.6644ZM127.136 49.4068C127.136 49.1373 127.136 49.0475 127.225 48.8678C127.673 49.1373 128.3 49.2271 128.747 49.4966C128.747 49.7661 128.747 49.7661 128.658 49.9458H128.479C128.479 49.4966 128.568 49.5864 128.3 49.4068C127.941 49.4966 128.12 49.4068 127.852 50.2152L127.673 50.9339C127.315 50.8441 127.404 50.7542 127.046 50.7542C127.136 50.6644 126.957 50.6644 127.315 50.6644C127.404 50.0356 128.031 49.2271 127.583 49.1373C127.404 49.0475 127.315 49.2271 127.136 49.4068ZM129.374 50.8441C129.016 51.2932 129.374 50.6644 129.016 51.383C128.837 51.2932 128.747 51.2932 128.479 51.2932C128.747 51.0237 128.747 51.0237 128.837 50.4847C128.926 50.1254 129.105 49.7661 129.016 49.4966L129.553 49.5864C129.284 49.8559 129.105 50.4847 129.105 50.8441C129.284 50.8441 129.195 50.8441 129.374 50.8441ZM130.18 51.6525C129.195 51.6525 130.09 51.6525 130.09 50.3949H129.911C130.001 50.3051 130.09 50.1254 130.09 50.1254L130.18 49.8559C130.359 49.9458 130.627 49.9458 130.806 50.0356L130.538 50.3051L130.18 51.6525ZM132.239 52.0119C131.344 52.0119 131.881 51.922 131.881 51.2034C131.433 51.2034 131.344 51.5627 131.165 51.8322H130.627C130.717 51.7424 131.254 51.2932 131.344 51.2034C130.985 50.5746 130.896 51.0237 131.075 50.3051C131.97 50.1254 131.881 50.3051 132.597 50.3051C132.239 50.6644 132.149 51.8322 132.239 52.0119ZM129.911 50.3949L129.822 50.4847L129.911 50.3949ZM142.267 50.6644C142.625 50.3949 142.625 50.5746 142.625 50.1254C142.804 50.3051 142.714 50.2152 142.804 50.4847C142.625 50.5746 142.625 50.5746 142.267 50.6644ZM129.463 50.7542C129.643 50.4847 129.553 50.5746 129.822 50.4847C129.643 50.6644 129.822 50.6644 129.463 50.7542ZM132.955 50.3949C133.313 50.6644 133.582 51.0237 133.582 51.5627C133.492 52.1017 133.224 52.461 132.776 52.5508C132.955 52.2813 133.134 51.922 133.224 51.5627C133.224 50.8441 133.045 50.7542 132.955 50.3949ZM129.463 50.7542L129.374 50.8441L129.463 50.7542ZM136.895 51.2034C136.895 50.7542 137.79 50.3949 137.79 51.2932C137.79 51.7424 136.895 51.8322 136.895 51.2034ZM130.18 51.6525L130.359 51.7424L130.18 51.6525Z" fill="#2C3791"/>
<path fill-rule="evenodd" clip-rule="evenodd" d="M161.516 30.1829V30.9913C161.516 36.5608 164.65 41.0524 168.141 43.2083C170.201 44.4659 172.439 45.0947 175.304 45.3642L177.542 45.4541C178.08 45.4541 178.08 45.3642 178.617 45.3642C181.303 45.3642 182.735 44.7354 183.899 44.6456L184.168 40.0642C184.168 39.7947 184.257 39.7947 184.257 39.4354L181.661 39.9744C177.095 40.8727 172.26 40.2439 169.664 35.932C169.305 35.393 169.037 34.8541 168.858 34.3151C168.679 33.7761 168.41 33.1473 168.231 32.4286C168.052 31.4405 167.962 30.2727 167.962 29.1947C168.141 26.6795 168.5 24.8829 170.022 22.7269C170.648 21.8286 171.544 21.0202 172.708 20.4812C177.005 18.5049 181.124 20.3913 182.108 20.3913C182.288 19.5829 182.377 18.6846 182.556 17.7863L182.914 15.0913C182.646 14.9117 181.213 14.732 180.855 14.6422C176.199 14.0134 170.38 14.732 166.978 17.9659C165.993 18.9541 165.097 19.7625 164.292 21.0202C162.591 23.8947 161.516 26.6795 161.516 30.1829Z" fill="white"/>
<path fill-rule="evenodd" clip-rule="evenodd" d="M0 29.734C0 33.2374 0.268597 35.4832 2.14877 38.6272C6.26725 45.5442 14.5042 46.5323 22.383 44.7357C22.5621 43.9272 22.4726 43.0289 22.5621 42.1306C22.6516 41.2323 22.6516 40.2442 22.8307 39.4357C22.383 39.4357 21.9354 39.6154 21.4877 39.7052C18.3541 40.5137 14.8623 40.6933 11.9078 39.3459C9.84854 38.4476 7.96836 36.112 7.2521 34.0459C5.81959 30.1832 6.26725 25.9611 8.68462 22.6374C11.102 19.4035 15.7577 19.3137 19.4285 20.212C19.7866 20.3018 20.3238 20.4815 20.6819 20.4815L21.4877 15.2713C15.4891 13.834 9.13228 14.5527 4.56614 19.0442L2.86503 21.1103C1.25345 23.4459 0 26.9493 0 29.734Z" fill="white"/>
<path fill-rule="evenodd" clip-rule="evenodd" d="M132.239 25.6916H131.254C131.344 25.0628 131.523 24.4339 130.627 24.4339C130.448 24.4339 130.18 24.7034 130.18 24.8831C130.001 25.3323 130.269 25.4221 129.732 25.4221C129.016 25.5119 128.031 25.6916 128.658 26.5899C129.284 26.5 128.926 26.2306 129.642 26.1407L129.553 28.0272C129.016 28.0272 129.284 27.9373 128.926 27.7577V26.8594C128.568 26.6797 128.12 26.6797 128.21 26.2306C128.21 25.8712 128.389 25.9611 128.299 25.6916C128.12 25.4221 128.031 25.6916 127.673 25.6916C127.494 25.6916 127.225 25.2424 127.136 25.0628C126.777 24.7933 126.151 24.9729 125.703 24.9729C125.345 24.9729 125.434 24.3441 124.987 24.0746C124.181 23.7153 124.36 24.7933 123.823 25.1526C123.375 25.4221 123.196 25.6017 123.017 26.1407C123.465 26.5899 123.912 26.5899 123.912 27.578C123.912 28.117 123.465 28.7458 124.271 28.9255C125.166 28.2967 124.002 27.2187 125.614 27.578C125.972 28.9255 124.271 29.3746 124.271 31.5306C124.271 32.2492 124.718 32.878 124.987 33.2373C124.36 33.5967 124.181 33.956 123.733 34.4051L123.554 34.495C123.554 34.495 123.554 34.495 123.465 34.495C123.017 34.8543 122.838 35.3034 122.748 35.8424C122.659 36.2916 122.748 40.1543 123.196 40.1543C124.36 40.1543 123.644 38.2678 123.644 37.4594C123.644 35.5729 123.733 35.2136 125.255 34.0458C125.524 33.7763 125.703 33.6865 126.24 33.6865C125.882 35.1238 125.345 34.4051 125.793 36.7407C125.972 37.4594 126.151 40.334 126.867 40.334C127.315 40.334 127.225 39.8848 127.136 39.4356C127.046 39.0763 127.046 38.6272 126.956 38.178C126.598 36.0221 125.882 35.8424 127.225 34.5848C128.21 33.5967 128.389 33.6865 129.732 33.3272C130.269 33.1475 130.717 32.9678 131.165 32.878C131.165 34.495 130.269 38.178 130.538 39.3458C130.896 39.4356 130.896 39.4356 131.254 39.3458C131.433 38.4475 131.523 37.0102 131.612 36.0221C131.702 35.4831 131.702 34.9441 131.791 34.3153C131.881 33.6865 131.881 33.2373 131.881 32.5187L133.492 31.8001C134.119 31.6204 134.835 31.5306 135.462 31.3509C135.641 32.0695 136.178 32.4289 136.805 32.878C138.417 34.0458 138.775 34.2255 137.611 35.6628C136.805 36.6509 135.193 37.7289 135.193 39.6153C135.193 40.2441 135.82 40.0645 136.178 39.1662C137.163 36.7407 139.043 35.2136 139.222 34.5848C139.491 33.6865 138.506 32.9678 139.581 32.4289L141.192 34.2255C141.729 34.8543 141.192 37.1 141.013 37.7289C140.924 37.9984 139.849 40.1543 140.655 40.1543C141.729 40.1543 141.282 39.6153 141.819 37.7289C142.087 36.8306 142.446 35.7526 142.446 34.6746C142.446 33.956 141.729 33.1475 141.461 32.6984C141.998 32.339 142.266 31.7102 142.266 30.9017C143.251 30.9017 142.714 32.0695 143.43 32.9678C143.968 33.6865 144.773 33.6865 145.042 34.6746C145.132 35.0339 145.132 35.7526 145.132 36.2017C145.132 37.1899 145.49 37.9085 145.758 38.8068C145.848 39.256 146.295 40.4238 146.743 39.6153C147.28 38.8967 145.937 36.0221 145.848 34.7645C145.758 33.5068 145.579 33.7763 144.863 33.0577C143.072 31.5306 144.057 30.0933 142.446 30.0034C141.998 30.0034 141.908 29.9136 141.55 29.5543C140.834 28.9255 140.028 28.2068 139.222 27.7577C136.984 26.6797 134.567 27.578 132.507 27.578C132.507 26.1407 133.134 24.7034 133.134 23.2662C134.925 23.2662 136.268 23.9848 137.879 24.3441C137.969 24.1645 137.969 24.0746 137.969 23.8051C137.7 23.7153 137.79 23.7153 137.521 23.6255L136.178 23.0865C136.268 22.9068 136.357 22.4577 136.357 22.1882C137.074 22.1882 137.7 22.6373 138.417 22.6373L138.506 22.278C138.327 22.0085 137.969 21.9187 137.611 21.8289C137.253 21.6492 136.895 21.5594 136.626 21.3797C136.626 20.9306 136.715 20.6611 136.895 20.3916C137.7 20.4814 138.506 20.9306 139.222 20.9306C139.401 20.2119 138.954 20.3017 138.327 20.0323C137.879 19.8526 137.342 19.6729 136.895 19.5831C136.089 19.3136 134.746 18.7746 133.94 18.7746C133.94 18.056 134.119 17.6068 134.119 16.8882H133.582C133.492 18.2356 132.239 24.5238 132.239 25.6916ZM131.881 28.0272C130.896 28.0272 130.806 28.117 130.806 27.3984C130.806 26.7695 131.433 26.4102 132.06 26.4102C132.06 26.9492 131.881 27.3984 131.881 28.0272Z" fill="#DD291A"/>
<path fill-rule="evenodd" clip-rule="evenodd" d="M118.541 31.0812C118.541 34.0456 118.899 36.2913 120.063 38.7168C121.047 40.693 121.226 40.693 122.39 42.31L123.823 43.7473C124.002 43.9269 124.181 44.0168 124.36 44.1964C124.718 44.5557 125.076 44.7354 125.524 45.0049C126.33 45.5439 127.046 46.0829 128.031 46.4422C132.687 48.4185 137.969 48.4185 142.446 45.7235C142.625 45.6337 142.893 45.454 143.072 45.3642C143.878 44.8252 145.221 43.8371 145.848 43.1185C147.28 41.6812 147.459 41.3218 148.444 39.7947C148.713 39.3456 148.892 38.8964 149.161 38.4473C151.667 33.4168 151.041 26.5896 147.728 22.0981C147.101 21.1998 146.654 20.7507 145.937 19.9422C145.311 19.3134 145.042 19.0439 144.326 18.5947C143.251 17.8761 142.714 17.3371 141.192 16.7083C139.222 15.8998 137.342 15.271 134.656 15.271C130.359 15.271 125.882 17.1574 123.017 20.3015C122.838 20.4812 122.749 20.6608 122.569 20.8405C122.301 21.11 122.301 21.11 122.122 21.3795C120.063 24.1642 118.541 27.6676 118.541 31.0812ZM118.899 31.8896C118.899 24.1642 124.092 18.0557 131.075 16.349C131.612 16.2591 132.149 16.1693 132.776 16.0795L134.656 15.8998C135.104 15.8998 135.194 15.9896 135.462 15.9896C135.82 15.9896 136.089 15.9896 136.447 16.0795C139.133 16.4388 141.282 17.2473 143.61 18.7744C149.787 22.9964 152.205 31.3507 148.981 38.2676C147.549 41.3218 145.311 43.8371 142.446 45.454C142.087 45.7235 141.55 45.9032 141.103 46.0829C137.253 47.9693 132.149 47.8795 128.3 46.0829C125.614 44.8252 123.554 43.1185 121.853 40.7829C120.063 38.4473 118.899 35.1235 118.899 31.8896Z" fill="#CB281D"/>
<path fill-rule="evenodd" clip-rule="evenodd" d="M119.615 31.4406C119.615 36.4711 121.495 40.1541 124.987 43.2982C127.315 45.4541 131.433 46.8016 134.567 46.8016C138.596 46.8016 142.535 45.0948 145.131 42.3999C145.49 42.0406 145.669 41.7711 146.027 41.4118C148.355 38.9863 149.608 35.0338 149.608 31.5304C149.608 26.4101 147.191 22.727 144.236 20.1219L142.087 18.5948C141.819 18.505 141.729 18.4151 141.461 18.3253C139.849 17.427 138.416 17.0677 136.447 16.7084C133.94 16.349 130.896 16.888 128.568 17.8762C127.583 18.3253 126.956 18.6846 126.24 19.2236C124.808 20.2118 123.465 21.4694 122.48 22.9067C121.943 23.6253 121.495 24.344 121.137 25.2423C120.331 26.8592 119.615 29.1948 119.615 31.4406ZM119.883 32.4287C119.883 29.7338 120.152 27.6677 121.316 25.3321C122.122 23.6253 122.927 22.4575 124.36 21.1101C124.539 20.9304 124.629 20.8406 124.808 20.6609C124.987 20.4813 125.076 20.3914 125.255 20.2118C129.732 16.5287 136.626 15.7202 141.729 18.7745C143.878 20.1219 143.162 19.6728 144.863 21.1101L146.116 22.4575C147.37 24.0745 148.355 25.8711 148.802 27.8474C149.608 30.9016 149.429 33.6863 148.444 36.7406C147.817 38.4474 146.922 39.8846 145.758 41.3219C144.415 42.849 142.535 44.3762 140.565 45.1846C136.536 46.8914 132.686 46.9813 128.657 45.2745C127.583 44.8253 126.24 43.927 125.255 43.2084C124.539 42.5796 123.106 41.2321 122.659 40.4236C121.316 38.4474 121.584 38.8067 120.779 36.8304C120.331 35.5728 119.883 33.9558 119.883 32.4287Z" fill="#CB281D"/>
<path fill-rule="evenodd" clip-rule="evenodd" d="M58.2856 4.40169H58.8228C59.8077 4.40169 60.703 3.41356 60.703 2.42542V1.97627C60.703 0.988136 59.8077 0 58.8228 0C57.3903 0 56.4055 0.449153 56.3159 2.15593C56.3159 3.41356 57.0322 4.40169 58.2856 4.40169ZM58.4647 0.359322C58.8228 0.359322 59.36 0.628814 59.5391 0.808475C59.7181 0.988136 59.8972 1.61695 59.8972 1.97627H57.2112C57.1217 1.07797 57.5694 0.359322 58.4647 0.359322ZM58.5542 4.04237C57.6589 4.04237 57.2112 3.2339 57.2112 2.33559H59.8972C59.8972 3.2339 59.36 4.04237 58.5542 4.04237Z" fill="white"/>
<path fill-rule="evenodd" clip-rule="evenodd" d="M69.298 4.40169H69.8352C70.8201 4.40169 71.7154 3.41356 71.7154 2.42542V1.97627C71.7154 0.988136 70.8201 0 69.8352 0H69.7457C69.0294 0 68.4027 0 67.8655 0.628814C67.2388 1.43729 67.1492 2.78475 67.8655 3.68305C68.0446 4.1322 68.6713 4.40169 69.298 4.40169ZM69.4771 0.359322C70.3724 0.359322 70.9096 1.07797 70.9096 1.97627H68.2236C68.1341 1.07797 68.5818 0.359322 69.4771 0.359322ZM69.5666 4.04237C68.6713 4.04237 68.2236 3.2339 68.2236 2.33559H70.9096C70.9096 3.2339 70.3724 4.04237 69.5666 4.04237Z" fill="white"/>
<path fill-rule="evenodd" clip-rule="evenodd" d="M150.146 0.449166H150.683V3.95256H150.146V4.31188H151.936V3.95256H151.399V2.33561H153.548V3.95256H152.921V4.31188H154.801V3.95256H154.264V0.449166H154.801V0.0898438H152.921V0.449166H153.548V1.97628H151.399V0.449166H151.936V0.0898438H150.146V0.449166Z" fill="white"/>
<path fill-rule="evenodd" clip-rule="evenodd" d="M78.5195 0.449166H79.0567V3.95256H78.5195V4.31188H80.3997V3.95256H79.8625V0.449166H81.8322V3.95256H81.3846V4.31188H83.0857V3.95256H82.5485V0.449166H83.0857V0.0898438H78.5195V0.449166Z" fill="white"/>
<path fill-rule="evenodd" clip-rule="evenodd" d="M116.66 0.449166H117.197V3.95256H116.66V4.31188H118.451V3.95256H117.914V2.33561C118.63 2.42544 119.436 4.31188 119.883 4.31188H120.779V3.95256C120.241 3.95256 120.152 3.59323 119.704 3.05425C119.346 2.69493 118.988 2.33561 118.719 1.97628L119.973 0.718657C120.241 0.359335 120.062 0.449166 120.6 0.449166V0.0898438H119.078V0.449166H119.525C119.346 0.718657 119.078 1.07798 118.809 1.25764C118.451 1.61696 118.451 1.97628 117.914 1.97628V0.449166H118.451V0.0898438H116.66V0.449166Z" fill="white"/>
<path fill-rule="evenodd" clip-rule="evenodd" d="M95.3516 0.449166H95.8888V3.95256H95.3516V4.31188C96.4259 4.31188 97.7689 4.49154 98.3957 3.95256C99.3805 3.23391 98.8433 1.79662 97.5003 1.79662H96.605V0.449166C98.3061 0.449166 98.1271 0.269505 98.1271 1.16781H98.5747V0.0898438H95.3516V0.449166ZM96.9631 3.95256H96.605V2.15595C98.9328 2.15595 98.3061 3.95256 96.9631 3.95256Z" fill="white"/>
<path fill-rule="evenodd" clip-rule="evenodd" d="M106.185 0.449166H106.812C106.812 1.25764 106.723 3.59323 106.096 3.59323H105.559V4.31188C106.185 4.31188 106.723 4.49154 107.081 2.69493C107.26 1.97628 107.26 1.16781 107.26 0.359335H108.424V3.86273H107.976V4.22205H109.767V3.95256H109.229V0.449166H109.767V0.0898438H106.185V0.449166Z" fill="white"/>
<path fill-rule="evenodd" clip-rule="evenodd" d="M158.293 0.449166C158.919 0.449166 158.83 0.449166 159.367 1.25764C160.173 2.42544 160.262 1.88645 159.009 3.59323C158.74 3.95256 158.74 3.95256 158.203 3.95256V4.31188H159.815V3.95256H159.367C159.725 3.32374 160.173 2.87459 160.262 2.51527C160.352 2.6051 160.441 2.69493 160.531 2.87459L161.337 3.95256H160.889V4.31188H162.68V3.95256C162.053 3.95256 162.143 3.95256 161.516 3.05425C161.247 2.69493 161.068 2.42544 160.8 2.06612L161.784 0.628827C162.053 0.359335 161.874 0.449166 162.411 0.449166V0.0898438H160.889V0.449166H161.337C161.247 0.718657 161.068 0.898318 160.889 1.07798C160.71 1.34747 160.62 1.52713 160.441 1.70679C160.352 1.4373 159.815 0.808488 159.636 0.449166H160.083V0.0898438H158.293V0.449166Z" fill="white"/>
<path fill-rule="evenodd" clip-rule="evenodd" d="M169.484 0.449153H170.022V3.95254H169.484V4.31186H171.275V3.95254H170.738V2.24576C170.917 2.24576 172.439 1.61695 172.439 2.78475V3.95254H171.991V4.31186H173.692V3.95254H173.155C173.155 2.15593 173.424 1.25763 170.738 1.88644V0.449153H171.365V0H169.484V0.449153Z" fill="white"/>
<path fill-rule="evenodd" clip-rule="evenodd" d="M181.929 3.95254H181.661V4.31186H183.183V3.95254H182.646C182.735 3.77288 183.004 3.2339 183.004 2.96441H184.615C184.705 3.2339 184.884 3.68305 184.973 3.95254H184.436V4.31186H186.227V3.95254C185.6 3.95254 185.779 3.86271 185.421 3.05424L184.705 1.07797C184.615 0.718644 184.436 0.269492 184.347 0H183.63L182.287 3.59322C182.198 3.86271 182.198 3.95254 181.929 3.95254ZM183.899 0.628814C183.899 1.34746 184.347 1.97627 184.436 2.60508H183.183C183.451 1.97627 183.63 1.43729 183.809 0.898305L183.899 0.628814C183.899 0.718644 183.899 0.628814 183.899 0.628814Z" fill="white"/>
<path fill-rule="evenodd" clip-rule="evenodd" d="M191.778 3.95254H191.509V4.31186H193.031V3.95254H192.494C192.584 3.77288 192.852 3.2339 192.852 2.96441H194.464C194.553 3.2339 194.732 3.68305 194.822 3.95254H194.285V4.31186H196.075V3.95254C195.449 3.95254 195.628 3.86271 195.27 3.05424L194.553 1.07797C194.464 0.718644 194.285 0.269492 194.195 0H193.479L192.136 3.59322C192.046 3.86271 192.046 3.95254 191.778 3.95254ZM193.748 0.628814C193.748 1.34746 194.195 1.97627 194.285 2.60508H193.031C193.3 1.97627 193.479 1.43729 193.658 0.898305L193.748 0.628814C193.748 0.718644 193.748 0.628814 193.748 0.628814Z" fill="white"/>
<path fill-rule="evenodd" clip-rule="evenodd" d="M163.933 3.95254H163.665V4.31186H165.187V3.95254H164.739C164.828 3.77288 165.097 3.2339 165.097 2.96441H166.709C166.798 3.2339 166.977 3.68305 167.067 3.95254H166.53V4.31186H168.32V3.95254C167.693 3.95254 167.873 3.86271 167.514 3.05424C167.335 2.69492 167.246 2.42542 167.156 2.0661C166.977 1.70678 166.977 1.43729 166.798 1.07797C166.709 0.718644 166.53 0.269492 166.44 0H165.724L164.291 3.59322C164.202 3.86271 164.291 3.95254 163.933 3.95254ZM165.992 0.628814C165.992 1.34746 166.44 1.97627 166.53 2.60508H165.276C165.545 1.97627 165.724 1.43729 165.903 0.898305L165.992 0.628814C165.903 0.718644 165.992 0.628814 165.992 0.628814Z" fill="white"/>
<path fill-rule="evenodd" clip-rule="evenodd" d="M62.2246 0.449192H62.7618V3.95258H62.2246V4.3119H64.1048V3.95258H63.4781V2.69496C64.7315 2.69496 65.8059 2.69496 65.8059 1.16784C65.8059 -0.179621 63.3885 0.0898704 62.2246 0.0898704V0.449192ZM63.7467 2.33563H63.4781C63.4781 1.16784 63.299 0.449192 63.7467 0.449192C64.821 0.449192 65.0001 0.808515 65.0001 1.52716C65.0001 2.15597 64.3734 2.33563 63.7467 2.33563Z" fill="white"/>
<path fill-rule="evenodd" clip-rule="evenodd" d="M139.76 0.449192H140.297V3.95258H139.76V4.3119H141.64V3.95258H141.013V2.69496C142.267 2.69496 143.341 2.69496 143.341 1.16784C143.341 -0.179621 140.924 0.0898704 139.76 0.0898704V0.449192ZM141.282 2.33563H141.013C141.013 1.16784 140.834 0.449192 141.282 0.449192C142.356 0.449192 142.535 0.808515 142.535 1.52716C142.535 2.15597 141.909 2.33563 141.282 2.33563Z" fill="white"/>
<path fill-rule="evenodd" clip-rule="evenodd" d="M175.125 0.449166H175.662V3.95256H175.125V4.31188C176.558 4.31188 178.527 4.58137 178.706 3.05425C178.885 1.52713 177.363 1.61696 176.378 1.61696V0.449166H177.005V0.0898438H175.125V0.449166ZM176.737 3.95256H176.378C176.378 2.78476 176.199 2.06611 176.647 2.06611C177.9 2.06611 177.811 2.69493 177.811 3.14408C177.811 3.77289 177.274 3.95256 176.737 3.95256Z" fill="white"/>
<path fill-rule="evenodd" clip-rule="evenodd" d="M122.122 0.179661V1.1678H122.48L122.569 0.449153C122.928 0.449153 123.644 0.0898305 124.271 0.808475C124.718 1.25763 124.539 1.43729 124.718 1.97627H122.838V2.33559H124.718C124.539 2.96441 124.45 4.04237 123.107 4.04237C122.39 4.04237 122.48 3.68305 122.48 3.14407H122.032V4.22203C123.017 4.49153 122.39 4.40169 123.554 4.40169C124.539 4.40169 125.434 3.50339 125.434 2.51525C125.434 1.79661 125.524 0.898305 124.808 0.449153C124.45 0.179661 124.091 0 123.644 0H123.107C122.748 0 122.39 0.0898305 122.122 0.179661Z" fill="white"/>
<path fill-rule="evenodd" clip-rule="evenodd" d="M186.854 1.34747H187.391C187.391 0.269505 187.212 0.449166 188.465 0.449166V3.95256H187.838V4.31188H189.808V3.95256H189.181V0.449166C190.524 0.449166 190.345 0.269505 190.345 1.34747H190.882V0.0898438H186.854V1.34747Z" fill="white"/>
<path fill-rule="evenodd" clip-rule="evenodd" d="M75.5651 4.40169C76.4604 4.40169 76.1918 4.40169 76.9976 4.22203V3.2339H76.55C76.55 3.68305 76.6395 4.04237 75.9232 4.04237C73.864 4.04237 74.0431 1.43729 74.7593 0.718644C75.2965 0.179661 76.4604 0.0898305 76.4604 0.628814V1.1678H76.9081V0.179661C76.6395 0.0898305 76.2814 0 75.9232 0H75.386C74.9384 0.0898305 74.4012 0.269491 74.0431 0.628814C73.6849 1.07797 73.5059 1.52712 73.5059 2.24576C73.5059 3.59322 74.2221 4.40169 75.5651 4.40169Z" fill="white"/>
<path fill-rule="evenodd" clip-rule="evenodd" d="M131.523 4.40169C132.418 4.40169 132.15 4.40169 132.955 4.22203V3.2339H132.508C132.508 3.68305 132.597 4.04237 131.881 4.04237C129.822 4.04237 130.001 1.43729 130.717 0.718644C131.254 0.179661 132.418 0.0898305 132.418 0.628814V1.1678H132.866V0.179661C132.508 0.0898305 132.15 0 131.791 0H131.254C130.807 0.0898305 130.269 0.269491 129.911 0.628814C129.553 1.07797 129.374 1.52712 129.374 2.24576C129.464 3.59322 130.18 4.40169 131.523 4.40169Z" fill="white"/>
<path fill-rule="evenodd" clip-rule="evenodd" d="M84.3394 0.449166C84.9661 0.449166 84.8766 0.449166 85.1451 0.898318C86.3986 2.87459 86.2195 1.97628 86.2195 3.95256H85.6823V4.31188H87.473V3.95256H86.9358C86.9358 1.97628 86.7567 2.78476 87.9206 0.898318C88.1892 0.449166 88.0102 0.449166 88.7264 0.449166V0.0898438H87.2044V0.449166H87.7416C87.3835 0.988149 87.1149 1.52713 86.7567 2.06612C86.4881 1.88645 86.3986 1.52713 86.2195 1.25764C86.0405 0.988149 85.8614 0.718657 85.6823 0.449166H86.2195V0.0898438H84.3394V0.449166Z" fill="white"/>
<path fill-rule="evenodd" clip-rule="evenodd" d="M100.276 0.449166C100.992 0.449166 100.724 0.359335 101.44 1.4373C102.335 2.78476 102.156 2.24578 102.156 3.95256H101.619V4.31188H103.41V3.95256H102.962C102.962 1.97628 102.783 2.78476 103.947 0.898318C104.215 0.449166 104.036 0.449166 104.752 0.449166V0.0898438H103.23V0.449166H103.768C103.41 0.988149 103.141 1.52713 102.783 2.06612C102.514 1.88645 102.425 1.52713 102.246 1.25764C102.067 0.988149 101.887 0.718657 101.708 0.449166H102.246V0.0898438H100.276V0.449166Z" fill="white"/>
<path fill-rule="evenodd" clip-rule="evenodd" d="M110.93 0.449166C111.646 0.449166 111.378 0.359335 112.094 1.4373C112.989 2.78476 112.81 2.24578 112.81 3.95256H112.273V4.31188H114.064V3.95256H113.527C113.527 1.97628 113.348 2.78476 114.511 0.898318C114.78 0.449166 114.601 0.449166 115.317 0.449166V0.0898438H113.795V0.449166H114.332C113.974 0.988149 113.706 1.52713 113.348 2.06612C113.079 1.88645 112.989 1.52713 112.81 1.25764C112.631 0.988149 112.452 0.718657 112.273 0.449166H112.81V0.0898438H110.93V0.449166Z" fill="white"/>
<path fill-rule="evenodd" clip-rule="evenodd" d="M134.208 0.449166C134.835 0.449166 134.746 0.449166 135.014 0.898318C136.268 2.87459 136.089 1.97628 136.089 3.95256H135.551V4.31188H137.342V3.95256H136.805C136.805 1.97628 136.626 2.78476 137.79 0.898318C138.058 0.449166 137.879 0.449166 138.596 0.449166V0.0898438H137.074V0.449166H137.611C137.253 0.988149 136.984 1.52713 136.626 2.06612C136.357 1.88645 135.731 0.808488 135.551 0.449166H136.089V0.0898438H134.208V0.449166Z" fill="white"/>
<path fill-rule="evenodd" clip-rule="evenodd" d="M89.7114 0.449166C90.3382 0.449166 90.2486 0.449166 90.5172 0.898318C91.7707 2.87459 91.5916 1.97628 91.5916 3.95256H91.0544V4.31188H92.8451V3.95256H92.3079C92.3079 1.97628 92.1288 2.78476 93.2927 0.898318C93.5613 0.449166 93.3822 0.449166 94.0985 0.449166V0.0898438H92.5765V0.449166H93.1137C92.7555 0.988149 92.4869 1.52713 92.1288 2.06612C91.8602 1.88645 91.2335 0.808488 91.0544 0.449166H91.5916V0.0898438H89.7114V0.449166Z" fill="white"/>
<path fill-rule="evenodd" clip-rule="evenodd" d="M144.505 0.449166C145.132 0.449166 145.042 0.449166 145.311 0.898318C146.564 2.87459 146.385 1.97628 146.385 3.95256H145.848V4.31188H147.639V3.95256H147.101C147.101 1.97628 146.922 2.78476 148.086 0.898318C148.355 0.449166 148.176 0.449166 148.892 0.449166V0.0898438H147.37V0.449166H147.907C147.549 0.988149 147.28 1.52713 146.922 2.06612C146.654 1.88645 146.027 0.808488 145.848 0.449166H146.385V0.0898438H144.505V0.449166Z" fill="white"/>
<path fill-rule="evenodd" clip-rule="evenodd" d="M178.706 0.449166H179.243V3.95256H178.706V4.31188H180.497V3.95256H179.96V0.449166H180.497V0.0898438H178.706V0.449166Z" fill="white"/>
<path fill-rule="evenodd" clip-rule="evenodd" d="M143.341 14.0137C143.072 14.1035 142.893 14.1933 142.625 14.2832C142.625 14.6425 142.804 14.8221 142.893 15.0916C143.162 15.0018 143.341 14.912 143.609 14.8221C143.52 14.6425 143.43 14.2832 143.341 14.0137Z" fill="#2C3791"/>
<path fill-rule="evenodd" clip-rule="evenodd" d="M143.341 14.0135C143.52 13.9237 143.878 13.744 144.057 13.744C144.057 13.2949 143.968 13.2949 143.878 12.9355C143.52 13.0254 143.341 13.1152 143.072 13.205C143.072 13.5644 143.251 13.6542 143.341 14.0135Z" fill="#2C3791"/>
<path fill-rule="evenodd" clip-rule="evenodd" d="M125.972 14.8221C126.33 14.8221 126.419 15.0018 126.777 15.0018C126.867 14.6425 126.957 14.5527 126.957 14.1933C126.598 14.1933 126.509 14.1035 126.24 14.0137C126.151 14.2832 125.972 14.6425 125.972 14.8221Z" fill="#2C3791"/>
<path fill-rule="evenodd" clip-rule="evenodd" d="M125.524 13.6542C125.793 13.744 125.972 13.8339 126.24 13.9237C126.33 13.744 126.509 13.3847 126.509 13.205C126.24 13.0254 126.061 12.9355 125.703 12.9355C125.613 13.205 125.524 13.3847 125.524 13.6542Z" fill="#2C3791"/>
<path fill-rule="evenodd" clip-rule="evenodd" d="M131.254 11.4985C131.165 11.768 131.165 11.6781 131.254 11.9476C131.612 12.0375 131.433 12.0375 131.702 12.2171C131.97 12.0375 132.06 11.8578 132.239 11.5883C131.881 11.3188 131.791 11.229 131.523 11.1392C131.433 11.4985 131.523 11.3188 131.254 11.4985Z" fill="#2C3791"/>
<path fill-rule="evenodd" clip-rule="evenodd" d="M139.849 13.2949C139.939 13.6542 140.118 13.744 140.207 14.0135C140.565 13.9237 140.565 13.8339 140.923 13.744C140.834 13.3847 140.744 13.2051 140.565 13.0254C140.207 13.1152 140.207 13.2051 139.849 13.2949Z" fill="#2C3791"/>
<path fill-rule="evenodd" clip-rule="evenodd" d="M140.208 12.2167C140.297 12.5761 140.476 12.6659 140.566 12.9354C141.64 12.3964 141.103 12.4862 140.924 11.8574C140.655 11.9473 140.476 12.0371 140.208 12.2167Z" fill="#2C3791"/>
<path fill-rule="evenodd" clip-rule="evenodd" d="M134.298 11.4086C134.388 11.7679 134.388 11.4985 134.477 11.8578L134.567 11.9476L134.925 12.0374L135.373 11.5883C135.283 11.4086 135.104 11.229 134.925 10.9595C134.567 11.1391 134.656 11.3188 134.298 11.4086Z" fill="#2C3791"/>
<path fill-rule="evenodd" clip-rule="evenodd" d="M128.658 13.744C128.926 13.8339 129.105 13.9237 129.284 14.0135C129.463 13.744 129.553 13.5644 129.643 13.2949L128.926 12.9355C128.837 13.3847 128.658 13.205 128.658 13.744Z" fill="#2C3791"/>
<path fill-rule="evenodd" clip-rule="evenodd" d="M131.523 13.205C131.881 13.2948 131.612 13.2948 131.97 13.3846C132.06 13.205 132.239 12.9355 132.418 12.8456L132.239 12.5761C131.881 12.4863 132.15 12.4863 131.791 12.3965C131.523 12.5761 131.523 12.5761 131.344 12.9355L131.523 13.205Z" fill="#2C3791"/>
<path fill-rule="evenodd" clip-rule="evenodd" d="M137.7 13.4745C137.879 13.205 137.879 13.205 138.237 13.0253C138.148 12.9355 138.148 12.8456 137.969 12.7558C137.79 12.4863 137.879 12.5761 137.7 12.3965C137.521 12.4863 137.253 12.666 137.163 12.8456C137.253 13.1151 137.432 13.3846 137.7 13.4745Z" fill="#2C3791"/>
<path fill-rule="evenodd" clip-rule="evenodd" d="M137.342 11.6782C137.342 11.9476 137.432 11.8578 137.7 12.307C138.059 12.1273 138.148 12.0375 138.327 11.768C138.238 11.5883 138.059 11.4087 137.969 11.229C137.79 11.3188 137.342 11.4985 137.342 11.6782Z" fill="#2C3791"/>
<path fill-rule="evenodd" clip-rule="evenodd" d="M128.479 11.9473C128.389 12.3066 128.3 12.2168 128.3 12.5761C128.658 12.666 128.658 12.7558 129.016 12.8456C129.106 12.3965 129.195 12.5761 129.285 12.2168C129.106 11.9473 128.837 11.7677 128.479 11.9473Z" fill="#2C3791"/>
<path fill-rule="evenodd" clip-rule="evenodd" d="M152.115 42.1308C152.115 41.6816 152.026 41.5019 151.668 41.4121C151.399 41.5918 151.309 41.9511 151.13 42.2206C151.668 42.4901 151.757 42.4002 152.115 42.1308Z" fill="#2C3791"/>
<path d="M134.83 12.2352L134.24 12.7852L134.788 13.3777L135.378 12.8277L134.83 12.2352Z" fill="#2C3791"/>
<path fill-rule="evenodd" clip-rule="evenodd" d="M148.802 45.3646C149.787 45.9036 150.056 45.0053 149.429 44.5562C149.25 44.7358 148.892 45.185 148.802 45.3646Z" fill="#2C3791"/>
<path fill-rule="evenodd" clip-rule="evenodd" d="M148.355 44.3764V44.9154L148.624 45.1849C148.892 45.0053 149.161 44.6459 149.25 44.3764C148.892 44.1968 149.071 44.1968 148.534 44.1968L148.355 44.3764Z" fill="#2C3791"/>
<path fill-rule="evenodd" clip-rule="evenodd" d="M150.593 41.3222V41.7714L151.041 42.1307L151.489 41.2324C150.951 41.1426 151.041 41.0527 150.593 41.3222Z" fill="#2C3791"/>
<path fill-rule="evenodd" clip-rule="evenodd" d="M118.899 20.0322C118.809 20.2119 118.809 20.2119 118.809 20.4814L119.257 20.8407C119.436 20.7509 119.525 20.6611 119.704 20.5712C119.615 20.3017 119.525 20.3017 119.346 20.2119C119.167 19.9424 119.167 19.9424 118.899 20.0322Z" fill="#2C3791"/>
<path fill-rule="evenodd" clip-rule="evenodd" d="M131.344 50.6645C131.344 50.8442 131.344 50.8442 131.433 50.934L131.523 51.0238C131.881 51.2933 131.97 51.0238 132.06 50.3052H131.523L131.344 50.6645Z" fill="#2C3791"/>
<path fill-rule="evenodd" clip-rule="evenodd" d="M149.519 43.029C149.608 43.2087 149.698 43.2087 149.877 43.2985C150.056 43.4781 150.056 43.4781 150.324 43.568C150.414 43.1188 150.414 43.2985 150.324 42.8493C149.787 42.6697 149.966 42.7595 149.519 43.029Z" fill="#2C3791"/>
<path fill-rule="evenodd" clip-rule="evenodd" d="M122.749 47.2509C123.017 47.2509 123.017 47.2509 123.196 47.0712C123.196 46.9814 123.286 46.8915 123.375 46.8915C123.465 46.7119 123.375 46.8916 123.465 46.6221C123.286 46.5322 123.196 46.5322 122.928 46.5322C122.838 46.7119 122.749 46.8017 122.659 46.9814L122.749 47.2509Z" fill="#2C3791"/>
<path fill-rule="evenodd" clip-rule="evenodd" d="M115.496 28.9252C115.496 28.3862 115.228 28.5659 114.69 28.4761V29.0151L115.049 29.1947C115.228 29.1049 115.317 29.0151 115.496 28.9252Z" fill="#2C3791"/>
<path fill-rule="evenodd" clip-rule="evenodd" d="M143.61 49.4066L143.789 49.3168L143.878 49.1371C143.61 48.9575 143.61 48.7778 143.251 48.688C143.341 48.9575 143.341 49.0473 143.341 49.4066H143.61Z" fill="#2C3791"/>
<path fill-rule="evenodd" clip-rule="evenodd" d="M115.675 36.9203L115.855 37.0102C116.123 36.7407 116.123 36.9203 116.392 36.561C115.944 36.561 116.034 36.4712 115.586 36.4712C115.675 36.7407 115.675 36.6509 115.675 36.9203Z" fill="#2C3791"/>
<path fill-rule="evenodd" clip-rule="evenodd" d="M143.52 14.0136C143.52 14.4628 143.699 14.2831 143.699 14.7323H143.878C143.878 14.373 143.789 14.4628 143.789 14.1035C144.057 14.1035 144.057 14.1035 144.236 14.0136V13.834C143.789 13.9238 143.878 14.0136 143.52 14.0136Z" fill="#2C3791"/>
<path fill-rule="evenodd" clip-rule="evenodd" d="M147.101 47.0712L147.191 46.9814C147.101 46.7119 147.101 46.7119 146.564 46.4424C146.653 46.7119 146.743 46.8017 146.743 47.161L147.101 47.0712Z" fill="#2C3791"/>
<path fill-rule="evenodd" clip-rule="evenodd" d="M119.615 44.5561L119.704 44.6459C119.973 44.5561 119.883 44.6459 120.062 44.3764C120.152 44.1967 120.241 44.1069 120.331 43.9272C120.062 44.0171 119.973 44.1069 119.615 44.1069V44.5561Z" fill="#2C3791"/>
<path fill-rule="evenodd" clip-rule="evenodd" d="M117.287 41.0527L117.377 41.2324L117.556 41.3222L118.093 40.7832C117.645 40.7832 117.735 40.873 117.287 40.873V41.0527Z" fill="#2C3791"/>
<path fill-rule="evenodd" clip-rule="evenodd" d="M134.567 11.9472L134.477 11.8574C134.298 11.6777 134.388 11.7676 134.119 11.6777C134.209 12.0371 134.209 11.8574 134.388 12.1269C134.209 12.3964 134.209 12.2167 134.119 12.576C134.477 12.4862 134.388 12.3964 134.656 12.2167C134.567 11.9472 134.656 12.1269 134.567 11.9472Z" fill="#2C3791"/>
<path fill-rule="evenodd" clip-rule="evenodd" d="M131.254 11.9473H130.985L131.343 12.3964C131.164 12.6659 131.164 12.5761 131.075 12.8456C131.343 12.7557 131.343 12.7557 131.612 12.3066L131.254 11.9473Z" fill="#2C3791"/>
<path fill-rule="evenodd" clip-rule="evenodd" d="M125.435 14.0136C125.703 14.0136 125.703 14.0136 125.882 14.1035C125.793 14.2831 125.793 14.4628 125.703 14.6425C125.703 14.6425 126.061 14.6425 126.061 14.1035C126.061 13.9238 125.614 13.834 125.435 13.834V14.0136Z" fill="#2C3791"/>
<path fill-rule="evenodd" clip-rule="evenodd" d="M126.419 13.8339C126.419 14.0136 126.867 14.1034 127.136 14.1034C126.957 13.9237 126.957 13.8339 126.598 13.8339C126.688 13.6542 126.688 13.4746 126.778 13.2949C126.509 13.3848 126.688 13.2051 126.509 13.4746C126.509 13.5644 126.419 13.7441 126.419 13.8339Z" fill="#2C3791"/>
<path fill-rule="evenodd" clip-rule="evenodd" d="M142.983 13.8339L142.714 13.9238C142.535 14.0136 142.625 13.9238 142.535 14.1933C142.893 14.1034 142.804 14.0136 143.162 14.0136C143.162 13.2051 142.893 13.295 142.804 13.295C142.804 13.5645 142.893 13.6543 142.983 13.8339Z" fill="#2C3791"/>
<path fill-rule="evenodd" clip-rule="evenodd" d="M135.015 12.1269C135.194 12.3964 135.283 12.4862 135.552 12.576C135.462 12.2167 135.462 12.3964 135.283 12.1269C135.462 11.8574 135.462 12.0371 135.552 11.6777C135.194 11.7676 135.373 11.6777 135.015 12.1269Z" fill="#2C3791"/>
<path fill-rule="evenodd" clip-rule="evenodd" d="M141.282 12.9355C141.371 12.8457 141.282 12.8457 141.371 12.666C140.924 12.7558 141.103 12.8457 140.745 12.9355C140.834 13.4745 140.924 13.4745 141.192 13.5643L140.924 13.0253L141.282 12.9355Z" fill="#2C3791"/>
<path fill-rule="evenodd" clip-rule="evenodd" d="M137.163 12.1269L137.342 12.3066C137.074 12.4862 137.074 12.3964 136.984 12.6659C137.343 12.5761 137.343 12.5761 137.522 12.3066C137.522 12.2167 137.522 12.0371 137.253 11.8574C137.163 11.7676 137.253 11.8574 137.074 11.7676L137.163 12.1269Z" fill="#2C3791"/>
<path fill-rule="evenodd" clip-rule="evenodd" d="M140.118 12.9355C139.76 13.0253 139.849 12.9355 139.76 13.2049C140.028 13.1151 140.207 13.0253 140.386 12.9355C140.297 12.5761 140.207 12.3965 139.939 12.3066C140.028 12.666 140.118 12.5761 140.118 12.9355Z" fill="#2C3791"/>
<path fill-rule="evenodd" clip-rule="evenodd" d="M132.239 12.5761C132.418 12.6659 132.418 12.5761 132.507 12.6659C132.418 12.3066 132.418 12.4862 132.239 12.2167C132.328 11.8574 132.328 12.1269 132.418 11.7676C132.149 11.8574 132.239 11.7676 131.97 12.2167L132.239 12.5761Z" fill="#2C3791"/>
<path fill-rule="evenodd" clip-rule="evenodd" d="M129.105 12.8456C129.374 13.0253 129.464 13.1151 129.732 13.2049C129.643 12.8456 129.732 13.0253 129.374 12.8456C129.464 12.5761 129.464 12.5761 129.553 12.3066C129.285 12.3965 129.285 12.5761 129.105 12.8456Z" fill="#2C3791"/>
<path fill-rule="evenodd" clip-rule="evenodd" d="M128.568 13.0253C128.479 13.205 128.389 13.2948 128.389 13.5643C128.568 13.3847 128.747 13.205 128.747 12.8457C128.389 12.7558 128.479 12.666 128.121 12.666C128.3 12.8457 128.389 12.9355 128.568 13.0253Z" fill="#2C3791"/>
<path fill-rule="evenodd" clip-rule="evenodd" d="M138.417 12.6659C138.148 12.4862 138.238 12.5761 138.148 12.3066C138.417 12.2168 138.417 12.2168 138.506 11.9473C138.148 12.1269 138.148 12.1269 137.969 12.3964C138.148 12.6659 138.059 12.7557 138.417 12.8456V12.6659Z" fill="#2C3791"/>
<path fill-rule="evenodd" clip-rule="evenodd" d="M128.299 13.3847L128.389 13.0254C128.21 12.9355 128.299 12.9355 128.031 12.9355L128.12 13.1152C128.12 13.1152 128.12 13.1152 128.12 13.205V13.2949C128.21 13.4745 128.031 13.2949 128.299 13.3847Z" fill="#2C3791"/>
<path fill-rule="evenodd" clip-rule="evenodd" d="M125.614 14.5527L125.703 14.1933C125.524 14.1035 125.614 14.1035 125.345 14.1035L125.614 14.5527Z" fill="#2C3791"/>
<path fill-rule="evenodd" clip-rule="evenodd" d="M126.777 13.7441L127.135 13.8339L126.867 13.3848L126.777 13.7441Z" fill="#2C3791"/>
<path fill-rule="evenodd" clip-rule="evenodd" d="M136.895 12.3964C137.163 12.3066 137.074 12.3964 137.163 12.1269L136.895 11.9473C136.984 12.2168 136.984 12.2168 136.895 12.3964Z" fill="#2C3791"/>
<path fill-rule="evenodd" clip-rule="evenodd" d="M141.282 13.2949C141.371 13.0254 141.282 13.1152 141.461 12.9355H141.282L141.103 13.205L141.282 13.2949Z" fill="#2C3791"/>
<path fill-rule="evenodd" clip-rule="evenodd" d="M139.67 12.9355C139.849 12.9355 139.939 12.9355 139.939 12.7558C139.939 12.4863 139.939 12.5762 139.759 12.4863C139.849 12.8456 139.849 12.666 139.67 12.9355Z" fill="#2C3791"/>
<path fill-rule="evenodd" clip-rule="evenodd" d="M143.968 14.5527H144.057C144.057 14.1035 144.057 14.4628 144.326 14.1035C143.968 14.1933 143.968 14.1933 143.968 14.5527Z" fill="#2C3791"/>
<path fill-rule="evenodd" clip-rule="evenodd" d="M142.446 13.8339H142.714C142.714 13.5644 142.714 13.5644 142.625 13.3848C142.535 13.6543 142.714 13.6543 142.446 13.8339Z" fill="#2C3791"/>
<path fill-rule="evenodd" clip-rule="evenodd" d="M132.597 12.0371L132.418 12.2168C132.687 12.3964 132.508 12.3066 132.776 12.3964C132.597 12.2168 132.597 12.3066 132.597 12.0371Z" fill="#2C3791"/>
<path fill-rule="evenodd" clip-rule="evenodd" d="M130.986 12.5761L131.165 12.3964L130.896 12.127C130.986 12.3066 130.986 12.3066 130.986 12.5761Z" fill="#2C3791"/>
<path fill-rule="evenodd" clip-rule="evenodd" d="M134.119 12.2167L134.209 12.0371L133.94 11.8574C133.94 12.1269 133.94 12.0371 134.119 12.2167Z" fill="#2C3791"/>
<path fill-rule="evenodd" clip-rule="evenodd" d="M135.551 12.2167C135.731 12.0371 135.641 12.1269 135.731 11.8574L135.462 12.0371L135.551 12.2167Z" fill="#2C3791"/>
<path fill-rule="evenodd" clip-rule="evenodd" d="M129.643 12.7558C129.733 12.5761 129.733 12.666 129.733 12.3965C129.553 12.5761 129.733 12.2168 129.643 12.5761C129.553 12.9355 129.553 12.666 129.643 12.7558Z" fill="#2C3791"/>
<path fill-rule="evenodd" clip-rule="evenodd" d="M127.316 13.4746H127.046C127.226 13.7441 127.136 13.7441 127.316 13.4746Z" fill="#2C3791"/>
<path fill-rule="evenodd" clip-rule="evenodd" d="M135.731 12.217H136C135.91 12.1272 135.731 11.9475 135.731 12.217Z" fill="#2C3791"/>
<path fill-rule="evenodd" clip-rule="evenodd" d="M130.627 12.4866H130.896C130.807 12.3967 130.717 12.2171 130.627 12.4866Z" fill="#2C3791"/>
<path fill-rule="evenodd" clip-rule="evenodd" d="M125.166 14.4626H125.435C125.345 14.3728 125.166 14.1932 125.166 14.4626Z" fill="#2C3791"/>
<path fill-rule="evenodd" clip-rule="evenodd" d="M133.671 12.217H133.94C133.85 12.1272 133.671 11.9475 133.671 12.217Z" fill="#2C3791"/>
<path fill-rule="evenodd" clip-rule="evenodd" d="M138.417 12.3965C138.685 12.3066 138.596 12.3965 138.685 12.2168C138.416 12.3066 138.596 12.2168 138.417 12.3965Z" fill="#2C3791"/>
<path fill-rule="evenodd" clip-rule="evenodd" d="M141.461 13.2048C141.461 13.2947 141.641 13.3845 141.551 13.2048C141.551 13.2048 141.461 13.0252 141.461 13.2048Z" fill="#2C3791"/>
<path fill-rule="evenodd" clip-rule="evenodd" d="M138.417 12.666H138.596L138.417 12.4863V12.666Z" fill="#2C3791"/>
<path fill-rule="evenodd" clip-rule="evenodd" d="M127.941 13.2051C127.941 13.4746 128.121 13.2051 128.031 13.2051C127.852 13.1152 127.941 13.1152 127.941 13.2051Z" fill="#2C3791"/>
<path fill-rule="evenodd" clip-rule="evenodd" d="M138.686 12.4863C138.686 12.7558 138.865 12.4863 138.775 12.4863C138.596 12.3965 138.686 12.3965 138.686 12.4863Z" fill="#2C3791"/>
<path fill-rule="evenodd" clip-rule="evenodd" d="M139.491 12.6663C139.491 12.7561 139.67 12.8459 139.67 12.6663C139.581 12.4866 139.939 12.6663 139.67 12.6663C139.491 12.6663 139.491 12.4866 139.491 12.6663Z" fill="#2C3791"/>
<path fill-rule="evenodd" clip-rule="evenodd" d="M132.776 12.1272C132.776 12.217 132.955 12.3069 132.955 12.1272C132.866 11.9476 133.224 12.1272 132.955 12.1272C132.687 12.1272 132.776 11.9476 132.776 12.1272Z" fill="#2C3791"/>
<path fill-rule="evenodd" clip-rule="evenodd" d="M142.267 13.5642C142.267 13.6541 142.446 13.7439 142.446 13.5642C142.356 13.3846 142.714 13.5642 142.446 13.5642C142.267 13.5642 142.267 13.3846 142.267 13.5642Z" fill="#2C3791"/>
<path fill-rule="evenodd" clip-rule="evenodd" d="M144.236 14.4627C144.236 14.5525 144.416 14.6423 144.416 14.4627C144.326 14.283 144.684 14.4627 144.416 14.4627C144.147 14.4627 144.236 14.283 144.236 14.4627Z" fill="#2C3791"/>
<path fill-rule="evenodd" clip-rule="evenodd" d="M129.822 12.6663H129.912C129.912 12.6663 130.091 12.8459 129.912 12.6663C130.002 12.6663 129.822 12.4866 129.822 12.6663Z" fill="#2C3791"/>
<path fill-rule="evenodd" clip-rule="evenodd" d="M136.626 12.2171H136.716C136.716 12.2171 136.896 12.3967 136.716 12.2171C136.806 12.2171 136.626 12.0374 136.626 12.2171Z" fill="#2C3791"/>
<path fill-rule="evenodd" clip-rule="evenodd" d="M129.643 12.7559L129.822 12.9355C129.822 12.7559 129.912 12.8457 129.643 12.7559Z" fill="#2C3791"/>
<path fill-rule="evenodd" clip-rule="evenodd" d="M142.446 13.834H142.356L142.446 13.9238V13.834Z" fill="#2C3791"/>
<path fill-rule="evenodd" clip-rule="evenodd" d="M136.895 12.3965H136.805L136.895 12.4863V12.3965Z" fill="#2C3791"/>
<path fill-rule="evenodd" clip-rule="evenodd" d="M141.282 13.2949V13.3848L141.462 13.2949H141.282Z" fill="#2C3791"/>
<path fill-rule="evenodd" clip-rule="evenodd" d="M132.597 12.0371H132.687L132.597 11.9473V12.0371Z" fill="#2C3791"/>
<path fill-rule="evenodd" clip-rule="evenodd" d="M135.641 12.3066V12.3965L135.731 12.3066H135.641Z" fill="#2C3791"/>
<path fill-rule="evenodd" clip-rule="evenodd" d="M130.09 50.395H130.18L130.09 50.3052V50.395Z" fill="#2C3791"/>
<path fill-rule="evenodd" clip-rule="evenodd" d="M130.986 12.5762H130.896L130.986 12.666V12.5762Z" fill="#2C3791"/>
<path fill-rule="evenodd" clip-rule="evenodd" d="M134.03 12.3066H133.94V12.3965L134.03 12.3066Z" fill="#2C3791"/>
<path fill-rule="evenodd" clip-rule="evenodd" d="M135.642 12.3066L135.552 12.2168L135.642 12.3066Z" fill="#2C3791"/>
<path fill-rule="evenodd" clip-rule="evenodd" d="M134.12 12.2168L134.03 12.3066L134.12 12.2168Z" fill="#2C3791"/>
</svg>
