<svg width="240" height="45" viewBox="0 0 240 45" fill="none" xmlns="http://www.w3.org/2000/svg">
<g clip-path="url(#clip0_316_153)">
<path fill-rule="evenodd" clip-rule="evenodd" d="M160.877 12.1766C160.176 11.8237 160.176 11.6472 159.474 11.2943C149.123 5.20603 136.93 16.7649 141.93 27.5296C145.176 34.5884 153.421 37.3237 159.562 33.5296C160 33.2649 160.527 32.8237 161.053 32.4707V34.7649C164.123 34.7649 166.491 35.206 166.491 34.1472V0.706026C166.491 0.176614 166.316 0.0883789 165.877 0.0883789H160.79V12.1766H160.877ZM154.562 29.559H153.07C148.421 29.559 145.088 24.1766 147.193 19.4119C147.456 18.7943 148.158 17.7354 148.597 17.206C149.035 16.7648 150 16.1472 150.614 15.7943C157.193 12.706 163.948 20.559 159.211 27.0001C158.334 28.059 156.316 29.559 154.562 29.559Z" fill="#3D6D59"/>
<path fill-rule="evenodd" clip-rule="evenodd" d="M182.105 35.2941C184.21 35.2941 185.088 35.2059 186.93 34.4118C187.456 34.1471 188.07 33.8824 188.596 33.6177C189.123 33.2647 189.561 32.9118 190.088 32.5589V34.853H195.351V10.0589H190.088V12.353C186.667 10.0589 186.14 9.61768 181.491 9.61768C178.07 9.61768 175.351 11.7353 173.246 13.7647C165.526 21.4412 171.667 35.2941 182.105 35.2941ZM175.351 22.5883C175.351 20.4706 176.316 18.5294 177.368 17.4706C182.193 12.6177 189.649 16.2353 189.649 22.4118C189.649 24.4412 188.86 26.2941 187.807 27.353C183.07 32.2059 175.351 28.5883 175.351 22.5883Z" fill="#3D6D59"/>
<path fill-rule="evenodd" clip-rule="evenodd" d="M91.1401 34.8527C97.6314 34.8527 96.1401 35.8233 99.2103 31.3233C100.263 29.7351 106.052 20.9115 107.193 19.588V34.8527H112.28C112.807 34.8527 112.895 34.6762 112.895 34.2351V10.0586H107.017C106.842 10.6762 105.088 13.0586 104.649 13.7645L96.8419 24.7057V10.0586H91.1401V34.8527Z" fill="white"/>
<path fill-rule="evenodd" clip-rule="evenodd" d="M117.017 17.9117C117.017 21.9706 119.123 25.5 122.105 26.2059C121.93 27.0882 121.228 27.7059 120.702 28.4117C120.175 29.2059 119.737 29.7353 119.21 30.5294L116.93 33.7059C116.491 34.3235 116.403 34.2353 116.228 34.8529H122.719C122.807 34.4117 127.544 27 128.158 27H131.491V34.8529H137.193V10.5C137.193 9.97056 137.017 9.88232 136.579 9.88232H126.053C123.421 9.88232 121.14 10.7647 119.825 12.0882C118.509 13.2353 117.017 15.3529 117.017 17.9117ZM122.544 18.5294C122.544 16.8529 123.947 15.5294 125.702 15.5294H131.579V21.2647H125.263C123.947 21.2647 122.544 19.7647 122.544 18.5294Z" fill="white"/>
<path fill-rule="evenodd" clip-rule="evenodd" d="M0.877193 18.3529C0.877193 20.1176 1.66667 22.2353 2.45614 23.3823C3.07018 24.3529 4.82456 26.1176 6.14035 26.2059C5.96491 26.8235 0.614035 34.0588 0 34.8529H6.49123C6.92982 34.147 11.3158 27 12.193 27H15.3509V34.2353C15.3509 34.7647 15.5263 34.8529 15.9649 34.8529H21.0526V9.88232H10.0877C4.5614 9.88232 0.877193 13.9411 0.877193 18.3529ZM6.49123 18.7059C6.49123 14.5588 10.5263 15.5294 15.3509 15.5294V21.2647C11.7544 21.2647 6.49123 22.147 6.49123 18.7059Z" fill="white"/>
<path fill-rule="evenodd" clip-rule="evenodd" d="M222.105 45.0001H227.982L234.035 27.5295C235 24.6178 236.14 21.706 237.018 18.8825L240 9.9707H233.86C233.772 10.8531 232.018 16.1472 231.579 17.6472C231.316 18.5295 229.737 24.706 229.035 25.2354C229.035 24.0883 228.246 22.5001 227.982 21.4413C227.281 18.7942 224.912 12.0884 224.386 9.9707H218.246L225.877 31.7648C226.403 33.3531 225.877 33.5295 225 36.0884C224.474 37.6766 223.947 38.9119 223.509 40.5001C223.158 41.6472 222.193 43.8531 222.105 45.0001Z" fill="#3D6D59"/>
<path fill-rule="evenodd" clip-rule="evenodd" d="M48.2454 44.9998H54.3858C54.4735 44.1174 62.7191 20.4704 63.2454 18.9704L66.1402 10.0586H60.263L56.7542 21.3527C56.4033 22.588 55.7016 23.9998 55.6138 25.3233C55.0875 24.9704 54.4735 22.4115 54.2103 21.6174C53.7717 20.1174 53.4209 19.1468 52.9823 17.7351L50.5261 10.0586H44.6489C44.7366 10.9409 47.1928 17.7351 47.5437 18.7939L52.1051 31.7645C52.4559 32.9115 52.4559 32.9998 52.0173 33.9704L48.2454 44.9998Z" fill="white"/>
<path fill-rule="evenodd" clip-rule="evenodd" d="M25.0877 34.8527H30.7018V24.7057C31.2281 25.0586 32.0175 26.4704 32.3684 27.088C32.9825 28.1468 37.0175 34.2351 37.193 34.9409H43.5088C43.3333 34.2351 43.0702 33.9704 42.7193 33.4409L35.7895 22.588C35.614 21.8821 36.7544 20.6468 37.3684 19.4998C38.9474 16.7645 41.9298 12.7057 43.2456 10.1468H37.1053L30.7018 20.0292V10.0586H25V34.8527H25.0877Z" fill="white"/>
<path fill-rule="evenodd" clip-rule="evenodd" d="M67.3687 15.5292H74.9125V34.8527H80.6143V15.5292H88.2458V10.0586H67.3687V15.5292Z" fill="white"/>
<path fill-rule="evenodd" clip-rule="evenodd" d="M209.912 0.705932V34.1471C209.912 35.2942 212.105 34.7648 215.175 34.7648C215.702 34.7648 215.789 34.5883 215.789 34.1471V0.705932C215.789 -0.441127 213.596 0.0882851 210.526 0.0882851C210 0.0882851 209.912 0.264756 209.912 0.705932Z" fill="#3D6D59"/>
<path fill-rule="evenodd" clip-rule="evenodd" d="M199.825 34.8529H204.912C205.439 34.8529 205.526 34.6764 205.526 34.2353V10.5C205.526 9.97056 205.351 9.88232 204.912 9.88232H199.825V34.8529Z" fill="#3D6D59"/>
<path fill-rule="evenodd" clip-rule="evenodd" d="M199.386 4.32344C199.386 9.17638 205.877 8.99991 205.877 4.32344C205.877 0.0881492 199.386 0.0881492 199.386 4.32344Z" fill="#F10101"/>
</g>
<defs>
<clipPath id="clip0_316_153">
<rect width="240" height="45" fill="white"/>
</clipPath>
</defs>
</svg>
