<svg width="221" height="47" viewBox="0 0 221 47" fill="none" xmlns="http://www.w3.org/2000/svg">
<path d="M15.6868 0H11.9244C11.5211 0 11.1905 0.334123 11.1905 0.746621V4.44673L5.23028 14.9984V0.750746C5.23028 0.338248 4.90364 0.00412498 4.50038 0.00412498H0.733932C0.32664 0 0 0.338248 0 0.750746V46.2534C0 46.6659 0.32664 47 0.733932 47H4.49634C4.8996 47 5.22624 46.6659 5.22624 46.2534V29.407L11.1864 18.8429V46.2493C11.1864 46.6618 11.5131 46.9959 11.9204 46.9959H15.6828C16.086 46.9959 16.4127 46.6618 16.4127 46.2493V0.750746C16.4167 0.338248 16.0901 0 15.6868 0Z" fill="white"/>
<path d="M138.745 0H134.811C134.39 0 134.044 0.334123 134.044 0.746621V4.44673L127.813 14.9943V0.750746C127.813 0.338248 127.471 0.00412498 127.05 0.00412498H123.116C122.695 0.00412498 122.349 0.338248 122.349 0.750746V46.2534C122.349 46.6659 122.691 47 123.116 47H127.05C127.471 47 127.813 46.6659 127.813 46.2534V29.407L134.044 18.8429V46.2493C134.044 46.6618 134.386 46.9959 134.811 46.9959H138.745C139.166 46.9959 139.508 46.6618 139.508 46.2493V0.750746C139.508 0.338248 139.166 0 138.745 0Z" fill="white"/>
<path d="M51.6573 21.757C52.3723 20.5029 52.977 19.4427 53.3488 18.7868C55.0281 15.8124 56.6175 13.3909 56.6175 10.8744V4.71114C56.5603 1.42324 53.3774 -0.0330027 51.7922 0.00825068C51.4898 0.00825068 44.785 0 42.5174 0C42.1088 0 41.7778 0.334153 41.7778 0.746687V46.2492C41.7778 46.6617 42.1088 47 42.5174 47C44.9975 46.9959 52.8708 46.9794 53.3652 46.9794C54.9546 47.0206 58.1374 45.5644 58.1905 42.2765V42.0455V37.3632V34.756C58.1905 33.1389 57.5409 32.0456 57.5409 32.0456L51.6573 21.757ZM47.073 10.169C47.073 9.87194 47.31 9.63267 47.6042 9.63267H51.0118C52.3356 9.64505 52.4295 10.9817 52.1966 11.5303C52.0536 11.8686 49.545 16.5302 47.0771 21.0351V10.169H47.073ZM52.8953 37.5695C52.8095 37.9449 52.5235 38.6297 51.5552 38.6297H47.6042C47.31 38.6297 47.073 38.3904 47.073 38.0934V29.7685C47.7104 28.6546 48.454 27.3551 49.2099 26.035L52.1926 31.2495C52.1926 31.2495 52.8953 32.2973 52.8953 33.638V37.5695Z" fill="white"/>
<path d="M160.61 0C158.391 0 150.065 0.00824923 149.676 0.00824923C148.047 -0.0371215 144.784 1.42299 144.73 4.71031V10.8725C144.73 13.3885 146.359 15.8097 148.08 18.7835C148.378 19.295 148.822 20.058 149.349 20.9613L145.651 27.2678C145.651 27.2678 144.985 28.365 144.985 29.9777C144.985 31.3842 144.99 43.0074 144.99 46.2493C144.99 46.6618 145.329 46.9959 145.748 46.9959H149.655C150.074 46.9959 150.413 46.6618 150.413 46.2493C150.413 42.9455 150.409 30.9635 150.409 30.7449C150.409 29.4003 151.129 28.3567 151.129 28.3567L152.402 26.1872C153.705 28.4104 154.965 30.551 155.715 31.8255V46.2493C155.715 46.6618 156.054 47 156.473 47H160.598C160.899 47 161.142 46.7608 161.142 46.4638V0.5362C161.155 0.239228 160.912 0 160.61 0ZM155.723 23.1762C152.875 18.1401 149.437 11.9243 149.265 11.5283C149.027 10.9797 149.123 9.64335 150.48 9.63098H154.965C155.384 9.63098 155.723 9.96507 155.723 10.3775V23.1762Z" fill="white"/>
<path d="M99.432 38.6249H90.457C89.624 38.6249 88.9451 37.9567 88.9451 37.1276L88.9368 11.1404C88.9368 10.3113 89.6157 9.64301 90.4486 9.64301H97.2539C97.587 9.64301 97.8411 9.35014 97.787 9.02427L96.4417 0.728989C96.3751 0.312369 96.0128 0.00712239 95.588 0.00712239H88.8952C87.4333 -0.0918765 83.5184 0.799113 83.5559 5.33656V41.665C83.5226 46.2355 87.4958 47.1058 88.9285 46.9903V46.9862H97.9702C98.395 46.9862 98.7573 46.681 98.824 46.2644L99.961 39.2437C100.015 38.9219 99.7652 38.6249 99.432 38.6249Z" fill="white"/>
<path d="M32.3472 20.4121H32.339C32.987 19.2854 33.5777 18.2579 33.8525 17.7709C35.5382 14.7955 36.5389 13.4006 36.5389 10.8833V4.71367C36.4815 1.4246 33.2865 -0.040421 31.691 0.00084716H23.5659C23.1476 0.00084716 22.7907 0.306231 22.7251 0.718913L21.4003 9.02206C21.347 9.34808 21.5972 9.64108 21.9253 9.64108H29.9191C30.4441 9.62458 31.1004 9.9052 31.2562 10.7594L31.2603 11.428C31.2603 11.428 31.1824 13.9577 30.0094 15.885C29.2506 17.123 27.245 20.4162 27.245 20.4162H25.3296C24.9645 20.4162 24.6528 20.6844 24.5954 21.0476L23.9556 25.0547C23.9022 25.3808 24.1524 25.6738 24.4806 25.6738H27.3639C28.4057 25.6738 28.8979 25.6696 29.0496 25.6738C29.8453 25.7026 31.2685 26.1195 31.2685 28.2117V30.4856C31.2644 32.516 31.2603 34.8477 31.2603 37.1587C31.2603 37.984 30.5918 38.6526 29.7715 38.6526H21.4208C21.0927 38.6526 20.8425 38.9456 20.8959 39.2716L22.0156 46.2748C22.0812 46.6916 22.438 46.9929 22.8564 46.9929H31.289C32.7287 47.0919 36.5841 46.2005 36.5512 41.6652V34.9756H36.5553V26.8829C36.5553 20.7051 32.3472 20.4121 32.3472 20.4121Z" fill="white"/>
<path d="M78.5576 9.63595C78.8793 9.63595 79.1246 9.34307 79.0723 9.0172L77.7735 0.730121C77.7092 0.317623 77.3594 0.0123749 76.9492 0.0123749L64.6814 0C64.3919 0 64.1587 0.239249 64.1587 0.536247V46.4637C64.1587 46.7607 64.3919 47 64.6814 47L77.0457 46.9917C77.4559 46.9917 77.8057 46.6865 77.87 46.274L78.9677 39.2533C79.02 38.9274 78.7747 38.6345 78.4531 38.6345H69.3698V25.6079H73.6199C73.9416 25.6079 74.1869 25.315 74.1346 24.9891L73.5073 20.9796C73.443 20.563 73.0932 20.2619 72.683 20.2619H69.3698V9.63595H78.5576Z" fill="white"/>
<path d="M117.287 0.721934C117.22 0.305275 116.861 0 116.44 0H102.151C101.73 0 101.371 0.305275 101.305 0.721934L99.9755 8.98499C99.9218 9.31089 100.174 9.60379 100.504 9.60379L106.602 9.60792V46.2533C106.602 46.6658 106.936 47 107.349 47H111.205C111.618 47 111.952 46.6658 111.952 46.2533C111.952 46.2533 111.952 20.4782 111.957 9.59967H118.083C118.414 9.59967 118.665 9.30677 118.612 8.98087L117.287 0.721934Z" fill="white"/>
<path d="M186.214 6.59823H179.682V0H173.08V47H220.08V0H186.214V6.59823ZM186.214 40.3812H179.682V13.1263H186.214V40.3812ZM193.27 33.8489L204.165 19.6586H193.27V13.1263H213.461V19.6586L202.565 33.8489H213.461V40.3812H193.27V33.8489Z" fill="white"/>
</svg>
