<svg width="243" height="40" viewBox="0 0 243 40" fill="none" xmlns="http://www.w3.org/2000/svg">
<path fill-rule="evenodd" clip-rule="evenodd" d="M0 40.0002H37.295V0.992725C37.295 0.694959 37.1978 0.595703 36.9065 0.595703H27.8741C24.5719 0.595703 21.9496 1.68751 19.7158 3.87114C18.9388 4.56593 17.8705 6.25327 17.3849 7.24583C15.3453 11.5138 16.3165 17.1714 19.6187 20.4468C20.1043 20.9431 21.1727 21.9357 21.7554 22.1342C21.7554 22.6304 21.7554 22.4319 21.464 22.829L16.6079 29.5783C16.3165 29.9754 14.9568 31.762 14.8597 32.159H20.4928C21.1727 31.1664 26.1259 24.417 26.3201 23.8215H32.4389V35.1366H4.56475V5.55848H15.9281C16.2194 5.55848 17.3849 3.77188 17.7734 3.37486C19.3273 1.68751 21.464 0.89347 21.7554 0.595703H0V40.0002ZM20.9784 12.4071C20.9784 8.33764 23.8921 5.35997 27.5827 5.35997H32.536V18.8587H27.0971C23.795 18.958 20.9784 15.7818 20.9784 12.4071Z" fill="#B62A26"/>
<path fill-rule="evenodd" clip-rule="evenodd" d="M74.4927 32.1586H79.4459C79.8344 32.1586 80.1258 31.4638 80.5143 30.9676L91.2948 15.4837C91.6833 14.8882 94.8884 10.1239 95.2768 9.92537V32.1586H100.716V0.496094H95.1797C95.0826 0.893116 94.597 1.38939 94.3056 1.88567L87.6042 11.4142C86.2445 13.3001 85.079 15.0867 83.7193 16.8733C83.0394 17.8658 80.6114 21.439 79.8344 22.3323V0.496094H74.4927V32.1586Z" fill="#B62A26"/>
<path fill-rule="evenodd" clip-rule="evenodd" d="M103.921 32.1586H110.04L112.176 26.104H125.968L127.036 29.0817C127.23 29.578 127.424 30.0743 127.619 30.5705C127.813 31.0668 128.007 31.6623 128.201 32.1586H134.223C134.126 31.5631 133.737 30.769 133.543 30.1735C133.252 29.4787 133.058 28.8832 132.766 28.1884C130.824 23.0271 128.784 17.3695 126.842 12.4068L123.151 2.48121C122.957 1.88567 122.568 1.09163 122.374 0.496094H115.673C115.673 0.992372 115.187 1.98493 114.993 2.48121C114.701 3.17599 114.507 3.77153 114.216 4.46632L111.302 12.3075C109.068 18.0643 106.835 24.4167 104.601 30.0743C104.407 30.8683 104.212 31.5631 103.921 32.1586ZM119.169 6.25292L124.511 21.1413H113.73C114.022 20.645 114.216 19.8509 114.41 19.3547L119.169 6.25292Z" fill="#B62A26"/>
<path fill-rule="evenodd" clip-rule="evenodd" d="M57.5935 32.7543C61.1871 32.7543 63.0324 32.1588 65.6547 30.5707C66.1403 30.273 66.5288 29.9752 67.0144 29.4789C68.5684 28.0893 67.8885 28.7841 69.3454 26.9975C69.5396 26.6998 69.6367 26.6005 69.831 26.3027C70.0252 26.005 70.2195 25.9057 70.2195 25.5087L66.8202 23.7221C66.4317 23.5236 66.0432 23.2258 65.5576 23.2258C65.4605 23.8213 64.1979 25.2109 63.7123 25.6079C58.9533 29.3797 53.0288 28.0893 49.6295 23.3251C47.1043 19.7519 47.1043 13.7965 49.4353 9.92556C50.5036 8.23821 51.9605 6.94789 53.7087 6.05459C59.536 3.07692 65.1691 7.64268 65.6547 9.62779C66.1403 9.62779 66.4317 9.33002 66.8202 9.13151C67.2087 8.933 67.5971 8.73449 67.9856 8.53598L70.3166 7.34491C70.2195 6.74938 69.831 6.2531 69.5396 5.85608C66.2374 1.58809 62.8382 0 57.3993 0C55.1655 0 52.5432 0.694789 51.0864 1.48883C49.1439 2.48139 47.9784 3.27543 46.5216 4.76427C44.482 6.74938 43.0252 9.8263 42.5396 12.7047C42.2482 14.6898 42.3453 14.3921 42.2482 15.4839C42.054 16.9727 42.054 15.8809 42.2482 17.3697C42.2482 17.6675 42.2482 17.9653 42.2482 18.3623C42.3453 20.8437 43.4137 23.7221 44.7734 25.8064C47.2015 29.6774 52.1547 32.7543 57.5935 32.7543Z" fill="#B62A26"/>
<path fill-rule="evenodd" clip-rule="evenodd" d="M158.018 12.4068V12.9031C153.745 12.9031 153.842 18.8584 158.018 18.9577V19.851H159.475V18.9577C163.651 18.9577 163.846 12.9031 159.475 12.9031V12.0098C158.407 12.109 158.018 11.9105 158.018 12.4068ZM156.173 15.98C156.173 14.1934 157.727 14.0941 157.921 14.0941V17.8658C156.95 17.7666 156.173 17.0718 156.173 15.98ZM159.378 17.7666V13.9949C159.864 14.0941 160.252 14.1934 160.544 14.4912C161.612 15.1859 161.515 17.7666 159.378 17.7666Z" fill="white"/>
<path fill-rule="evenodd" clip-rule="evenodd" d="M177.54 19.6527H178.803C178.803 18.2632 179.094 16.1788 179.191 15.087L179.58 15.881C179.677 16.1788 179.774 16.4766 179.968 16.7743C180.162 17.2706 180.454 17.9654 180.648 18.4617H181.813L183.27 14.9877C183.27 15.881 183.367 16.5758 183.367 17.4691C183.562 20.0498 183.173 19.6527 184.921 19.6527C184.921 18.958 184.824 18.5609 184.824 17.8661L184.339 12.5063H182.882C182.688 13.0026 181.425 16.5758 181.134 16.8736C181.036 16.0795 179.871 13.7967 179.58 12.5063H178.026C177.929 14.9877 177.54 17.2706 177.54 19.6527Z" fill="white"/>
<path fill-rule="evenodd" clip-rule="evenodd" d="M140.438 19.6528H141.895L144.809 14.8886C145.003 14.69 144.809 14.7893 145.003 14.69C145.003 15.3848 144.906 15.4841 144.906 16.2781V19.6528H146.363V12.5064C144.42 12.5064 145.197 12.2087 143.449 14.8886C143.158 15.3848 142.964 15.6826 142.672 16.0796L141.895 17.4692V12.5064H140.633V19.6528H140.438Z" fill="white"/>
<path fill-rule="evenodd" clip-rule="evenodd" d="M200.169 19.6528H201.626L204.539 14.8886C204.734 14.69 204.539 14.7893 204.734 14.69C204.734 15.3848 204.637 15.4841 204.637 16.2781V19.6528H206.093V12.5064C204.151 12.5064 204.928 12.2087 203.18 14.8886L201.529 17.4692V12.5064H200.266V19.6528H200.169Z" fill="white"/>
<path fill-rule="evenodd" clip-rule="evenodd" d="M192.594 19.6527H197.838V21.1416H199.101C199.101 18.1639 199.295 18.4617 198.227 18.4617V12.5063H196.77V18.4617H193.856V12.5063H192.594V19.6527Z" fill="white"/>
<path fill-rule="evenodd" clip-rule="evenodd" d="M163.165 16.0792C163.165 17.9651 164.719 19.8509 166.564 19.8509C167.73 19.8509 168.507 19.7516 169.478 18.7591C171.712 16.377 170.158 12.4067 167.244 12.4067C166.079 12.4067 165.205 12.506 164.233 13.4985C163.651 14.0941 163.165 15.0866 163.165 16.0792ZM164.622 16.1784C164.622 12.7045 169.09 13.1015 169.09 15.7814V16.4762C169.09 17.4688 167.924 18.5606 166.953 18.5606C165.593 18.6598 164.622 17.568 164.622 16.1784Z" fill="white"/>
<path fill-rule="evenodd" clip-rule="evenodd" d="M177.637 3.87119C177.637 5.75704 179.191 7.6429 181.036 7.6429C182.201 7.6429 182.978 7.54364 183.95 6.55109C186.183 4.16895 184.63 0.19873 181.716 0.19873C180.55 0.19873 179.676 0.297986 178.705 1.29054C178.122 1.88608 177.637 2.87863 177.637 3.87119ZM178.996 3.97044C178.996 0.496497 183.464 0.893519 183.464 3.57342V4.26821C183.464 5.26077 182.299 6.35258 181.327 6.35258C180.065 6.45183 178.996 5.36002 178.996 3.97044Z" fill="white"/>
<path fill-rule="evenodd" clip-rule="evenodd" d="M230.083 16.0792C230.083 17.9651 231.637 19.8509 233.482 19.8509C234.648 19.8509 235.425 19.7516 236.396 18.7591C238.63 16.377 237.076 12.4067 234.162 12.4067C232.997 12.4067 232.123 12.506 231.151 13.4985C230.569 14.0941 230.083 15.0866 230.083 16.0792ZM231.54 16.1784C231.54 12.7045 236.007 13.1015 236.007 15.7814V16.4762C236.007 17.4688 234.842 18.5606 233.871 18.5606C232.608 18.6598 231.54 17.568 231.54 16.1784Z" fill="white"/>
<path fill-rule="evenodd" clip-rule="evenodd" d="M189.777 28.3873C189.777 30.2732 191.331 32.159 193.177 32.159C194.342 32.159 195.119 32.0598 196.09 31.0672C198.324 28.6851 196.77 24.7148 193.856 24.7148C192.691 24.7148 191.817 24.8141 190.846 25.8067C190.263 26.4022 189.777 27.3947 189.777 28.3873ZM191.234 28.4866C191.234 25.0126 195.702 25.4096 195.702 28.0895V28.7843C195.702 29.7769 194.536 30.8687 193.565 30.8687C192.205 30.9679 191.234 29.8761 191.234 28.4866Z" fill="white"/>
<path fill-rule="evenodd" clip-rule="evenodd" d="M207.162 16.0792C207.162 17.9651 208.716 19.8509 210.561 19.8509C211.727 19.8509 212.504 19.7516 213.475 18.7591C215.709 16.377 214.155 12.4067 211.241 12.4067C210.076 12.4067 209.202 12.506 208.23 13.4985C207.648 14.0941 207.162 15.0866 207.162 16.0792ZM208.619 16.1784C208.619 12.7045 213.087 13.1015 213.087 15.7814V16.4762C213.087 17.4688 211.921 18.5606 210.95 18.5606C209.59 18.6598 208.619 17.568 208.619 16.1784Z" fill="white"/>
<path fill-rule="evenodd" clip-rule="evenodd" d="M184.047 32.0595C186.378 32.0595 189 32.5558 189 29.8759C189 29.0818 188.612 28.4863 187.932 28.2878C189.68 26.7989 188.417 24.9131 186.863 24.9131H184.047V32.0595ZM186.281 27.7915H185.309V26.1042C186.281 26.1042 186.378 26.0049 187.155 26.2034C187.349 26.9975 187.543 27.7915 186.281 27.7915ZM186.961 30.7692H185.309V28.8833H186.766C187.932 28.8833 187.835 30.7692 186.961 30.7692Z" fill="white"/>
<path fill-rule="evenodd" clip-rule="evenodd" d="M140.244 2.3819C140.244 3.67222 140.536 3.96999 141.41 4.56553C141.313 4.96255 140.827 5.65734 140.633 6.05436C140.342 6.55064 140.05 7.04692 139.759 7.44394H141.313C141.507 6.94766 141.798 6.55064 141.993 6.15361C142.187 5.85585 142.575 5.16106 142.672 4.86329H143.741V7.54319H145.003V0.396791C142.964 0.396791 140.244 -0.198743 140.244 2.3819ZM141.701 2.77892C141.701 1.38935 142.09 1.58786 143.838 1.58786V3.77148C142.964 3.77148 141.701 3.87074 141.701 2.77892Z" fill="white"/>
<path fill-rule="evenodd" clip-rule="evenodd" d="M215.709 19.6526H216.972V16.7742H220.177V19.6526H221.536V12.6055H220.177V15.5831H216.972V12.6055H215.709V19.6526Z" fill="white"/>
<path fill-rule="evenodd" clip-rule="evenodd" d="M223.188 19.6526H224.45V16.7742H227.655V19.6526H228.918V12.6055H227.655V15.5831H224.45V12.6055H223.188V19.6526Z" fill="white"/>
<path fill-rule="evenodd" clip-rule="evenodd" d="M147.917 19.6526H149.277V16.7742H152.385V19.6526H153.744V12.6055H152.385V15.5831H149.277V12.6055H147.917V19.6526Z" fill="white"/>
<path fill-rule="evenodd" clip-rule="evenodd" d="M157.532 32.0595H158.795V29.0818H162V32.0595H163.262V24.9131H162V27.8908H158.795V24.9131H157.532V32.0595Z" fill="white"/>
<path fill-rule="evenodd" clip-rule="evenodd" d="M171.906 7.44425H173.169V4.46659C174.626 4.46659 173.946 4.46659 175.306 6.65021C175.5 6.94798 175.597 7.04723 175.694 7.44425H177.248L175.208 3.7718C175.306 3.27552 175.791 2.48147 176.083 2.08445C176.374 1.68743 176.957 0.694874 177.054 0.297852H175.597L174.334 2.58073C173.946 3.27552 174.14 3.17626 173.169 3.17626V0.397107H171.906V7.44425Z" fill="white"/>
<path fill-rule="evenodd" clip-rule="evenodd" d="M146.752 7.44425H148.015V4.46659C149.471 4.46659 148.792 4.46659 150.151 6.65021C150.345 6.94798 150.443 7.04723 150.54 7.44425H152.094L150.054 3.7718C150.151 3.27552 150.637 2.48147 150.928 2.08445C151.22 1.68743 151.802 0.694874 151.899 0.297852H150.54C150.248 0.79413 149.957 1.29041 149.666 1.78669C148.792 3.27552 149.083 3.17626 148.015 3.17626V0.397107H146.752V7.44425Z" fill="white"/>
<path fill-rule="evenodd" clip-rule="evenodd" d="M139.759 32.0593H141.021C141.119 31.6623 141.216 31.4638 141.313 31.0668C141.604 30.0742 141.216 30.2727 143.741 30.2727C144.226 30.2727 144.518 31.6623 144.615 32.0593H146.072L143.838 25.707C143.547 24.8137 143.741 24.9129 142.381 24.9129C141.993 24.9129 141.895 25.707 141.604 26.501C141.41 27.1958 141.216 27.6921 141.021 28.2876C140.73 29.0817 139.856 31.3646 139.759 32.0593ZM142.964 26.501C142.964 27.3943 143.644 28.2876 143.644 29.1809H141.993C142.09 28.6847 142.672 26.6995 142.964 26.501Z" fill="white"/>
<path fill-rule="evenodd" clip-rule="evenodd" d="M171.81 19.6524H173.072V17.2702C174.723 17.2702 176.763 17.4688 176.763 14.6896C176.763 12.0097 173.849 12.506 171.81 12.506V19.6524ZM174.141 16.0792H173.072V13.7963H174.626C175.209 13.7963 175.403 14.5903 175.403 15.0866C175.306 15.7814 174.917 16.0792 174.141 16.0792Z" fill="white"/>
<path fill-rule="evenodd" clip-rule="evenodd" d="M214.737 7.4444H216C216.485 5.16152 216.485 5.6578 218.719 5.6578C219.205 5.6578 219.496 7.04738 219.593 7.4444H221.05C220.759 6.94812 220.662 6.35259 220.37 5.6578L219.108 1.98534C218.331 0.0994851 219.011 0.297996 217.36 0.297996C216.971 0.297996 216.971 0.595763 216.874 0.992785C216.486 2.28311 214.834 6.84886 214.737 7.4444ZM217.942 1.88609C217.942 2.77939 218.622 3.67269 218.622 4.56599H216.971C217.068 4.16896 217.651 2.18385 217.942 1.88609Z" fill="white"/>
<path fill-rule="evenodd" clip-rule="evenodd" d="M202.209 7.4444H203.472C203.957 5.16152 203.957 5.6578 206.191 5.6578C206.677 5.6578 206.968 7.04738 207.065 7.4444H208.522C208.231 6.94812 208.133 6.35259 207.842 5.6578L206.579 1.98534C205.803 0.0994851 206.482 0.297996 204.831 0.297996C204.443 0.297996 204.443 0.595763 204.346 0.992785C203.957 2.28311 202.306 6.84886 202.209 7.4444ZM205.414 1.88609C205.414 2.77939 206.094 3.67269 206.094 4.56599H204.443C204.54 4.16896 205.123 2.18385 205.414 1.88609Z" fill="white"/>
<path fill-rule="evenodd" clip-rule="evenodd" d="M185.504 19.6526H186.766C187.252 17.3697 187.252 17.866 189.486 17.866C189.972 17.866 190.263 19.2556 190.36 19.6526H191.817C191.525 19.1563 191.428 18.5608 191.137 17.866L189.583 13.3003C189.292 12.407 189.486 12.5062 188.126 12.5062C187.738 12.5062 187.641 13.3003 187.349 14.0943L186.087 17.6675C185.99 18.1638 185.601 19.2556 185.504 19.6526ZM188.709 14.0943C188.709 14.9876 189.389 15.8809 189.389 16.7742H187.738C187.932 16.2779 188.418 14.3921 188.709 14.0943Z" fill="white"/>
<path fill-rule="evenodd" clip-rule="evenodd" d="M167.731 7.6429C169.77 7.6429 169.576 7.54364 171.033 6.55109C170.839 6.25332 170.547 5.75704 170.353 5.55853C169.77 5.8563 169.285 6.45183 168.508 6.45183C165.205 6.45183 165.205 1.48905 168.411 1.48905C169.187 1.48905 169.77 1.88608 170.256 2.18384C170.45 1.78682 170.741 1.58831 170.839 1.09203C169.479 0.198731 169.285 0.19873 167.731 0.19873C165.108 0.19873 163.457 4.0697 165.497 6.35258C165.885 6.94811 166.759 7.6429 167.731 7.6429Z" fill="white"/>
<path fill-rule="evenodd" clip-rule="evenodd" d="M173.46 32.159C175.5 32.159 175.305 32.0598 176.762 31.0672C176.568 30.7694 176.277 30.2732 176.082 30.0746C175.5 30.3724 175.014 30.9679 174.237 30.9679C170.935 30.9679 170.935 26.0052 174.14 26.0052C174.917 26.0052 175.5 26.4022 175.985 26.7C176.18 26.3029 176.471 26.1044 176.568 25.6081C175.208 24.7148 175.014 24.7148 173.46 24.7148C170.838 24.7148 169.187 28.5858 171.226 30.8687C171.712 31.4642 172.489 32.159 173.46 32.159Z" fill="white"/>
<path fill-rule="evenodd" clip-rule="evenodd" d="M238.629 19.6526H243V18.4615H239.892V16.6749H242.223V15.4839H239.892V13.7965C243.291 13.7965 242.806 14.0943 242.806 12.6055H238.532V19.6526H238.629Z" fill="white"/>
<path fill-rule="evenodd" clip-rule="evenodd" d="M186.086 7.44412H190.456V6.25305H187.446V4.46645H189.777V3.27538H187.446V1.58804C190.845 1.58804 190.359 1.88581 190.359 0.396973H186.086V7.44412Z" fill="white"/>
<path fill-rule="evenodd" clip-rule="evenodd" d="M151.997 32.0595H156.367V30.7692H153.259V28.9826H155.59V27.7915H153.259V26.1042C156.658 26.1042 156.173 26.4019 156.173 24.9131H151.899V32.0595H151.997Z" fill="white"/>
<path fill-rule="evenodd" clip-rule="evenodd" d="M198.712 7.6429C200.752 7.6429 200.558 7.54364 202.014 6.55109C201.82 6.25332 201.529 5.75704 201.335 5.55853C200.752 5.8563 200.266 6.45183 199.489 6.45183C196.187 6.45183 196.187 1.48905 199.392 1.48905C200.169 1.48905 200.752 1.88608 201.237 2.18384C201.432 1.78682 201.723 1.58831 201.82 1.09203C200.46 0.198731 200.266 0.19873 198.712 0.19873C197.838 0.19873 196.964 0.794264 196.478 1.29054C194.245 3.77193 196.09 7.6429 198.712 7.6429Z" fill="white"/>
<path fill-rule="evenodd" clip-rule="evenodd" d="M210.756 3.87092L208.619 7.54338H210.173C210.367 6.74933 211.241 5.85603 211.436 4.86347C211.727 5.06199 212.893 7.24561 212.99 7.54338H214.544C214.252 7.0471 212.504 4.26794 212.504 3.97017C212.504 3.67241 212.698 3.37464 212.893 3.07687C213.087 2.77911 213.281 2.48134 213.475 2.18357C213.864 1.58804 214.155 0.992506 214.544 0.396973H212.99C212.795 1.09176 212.018 2.08432 211.824 2.77911H211.63C211.533 2.28283 211.241 1.98506 211.047 1.58804C210.853 1.19102 210.562 0.893251 210.464 0.396973H208.911C208.813 0.893251 210.367 3.17613 210.756 3.87092Z" fill="white"/>
<path fill-rule="evenodd" clip-rule="evenodd" d="M154.813 5.95529C154.813 6.94784 153.356 6.1538 153.356 6.1538C153.162 6.45156 152.967 6.84859 152.773 7.14635C154.036 7.84114 155.104 8.03965 155.881 6.35231L158.212 0.396973H156.755C156.658 0.793995 156.561 1.09176 156.464 1.38953L155.784 3.37464C155.687 3.67241 155.687 3.67241 155.59 3.97017C155.59 4.06943 155.59 4.06943 155.493 4.26794C155.395 4.46645 155.493 4.3672 155.395 4.46645L153.647 0.496228H152.19L154.521 5.2605C154.618 5.45901 154.813 5.45901 154.813 5.95529Z" fill="white"/>
<path fill-rule="evenodd" clip-rule="evenodd" d="M177.151 26.1042H179.385V32.0595H180.842V26.1042C183.464 26.1042 183.076 26.4019 183.076 24.9131H177.151V26.1042Z" fill="white"/>
<path fill-rule="evenodd" clip-rule="evenodd" d="M158.31 1.58804H160.543V7.54338H162V1.58804C164.623 1.58804 164.234 1.88581 164.234 0.396973H158.31V1.58804Z" fill="white"/>
<path fill-rule="evenodd" clip-rule="evenodd" d="M164.233 26.1042H166.467V32.0595H167.924V26.1042C170.546 26.1042 170.158 26.4019 170.158 24.9131H164.233V26.1042Z" fill="white"/>
<path fill-rule="evenodd" clip-rule="evenodd" d="M146.849 32.0596H148.111V26.1043H150.636C150.928 26.1043 151.025 26.005 151.025 25.7073V24.814H146.849V32.0596Z" fill="white"/>
<path d="M194.536 3.37451H191.428V4.56558H194.536V3.37451Z" fill="white"/>
</svg>
