<svg width="188" height="44" viewBox="0 0 188 44" fill="none" xmlns="http://www.w3.org/2000/svg">
<g clip-path="url(#clip0_316_46)">
<path fill-rule="evenodd" clip-rule="evenodd" d="M3.17063 9.83966C3.17063 13.4599 4.47619 16.5232 7.55357 18.4726C8.01984 18.7511 8.48611 19.0295 8.95238 19.2152C9.3254 19.4008 10.1647 19.6793 10.631 19.6793C10.5377 20.0506 9.41865 21.7215 9.13889 22.1856C8.57937 23.0211 8.1131 23.7637 7.64683 24.692C7.0873 25.5274 6.62103 26.27 6.15476 27.1983C5.875 27.5696 4.75595 29.4262 4.6627 29.7046H0V35.8312H9.13889C9.3254 35.8312 9.60516 35.3671 9.79167 34.9958L13.2421 29.1477C13.4286 28.7764 13.6151 28.4979 13.8016 28.1266C14.9206 26.0844 16.7857 23.1139 18.0913 20.8861C18.4643 20.2363 18.2778 20.4219 20.7956 20.4219V29.7975H17.252V35.7384H33.4782V29.7975H29.6548V5.8481C29.6548 5.66245 29.748 5.66245 29.8413 5.66245H33.4782V0H12.9623C10.9107 0 8.85913 0.649789 7.27381 1.67089C6.52778 2.22785 5.40873 3.24894 4.84921 4.08439C4.47619 4.64135 4.28968 5.01266 4.00992 5.66245C3.54365 6.77637 3.17063 8.35443 3.17063 9.83966ZM12.5893 10.5823C12.5893 9.46835 12.5893 9.00422 13.0556 7.98312C14.4544 5.10548 18.1845 5.56962 21.0754 5.56962V14.8523C19.4901 14.8523 16.7857 15.038 15.4802 14.481C13.8948 13.924 12.5893 12.346 12.5893 10.5823Z" fill="white"/>
<path fill-rule="evenodd" clip-rule="evenodd" d="M128.317 10.4894V15.7806H131.675V30.0759H128.504C128.317 30.0759 128.317 30.1687 128.317 30.2616V35.5527C128.317 35.7384 128.411 35.7384 128.504 35.7384H138.575C138.762 35.7384 139.042 35.0886 139.228 34.7173L143.331 26.9198C143.518 26.5485 143.704 26.1772 143.891 25.8059L147.901 18.1941C147.994 18.0084 147.901 18.1012 147.994 18.1012C147.994 19.2152 147.901 20.0506 147.901 21.0717C147.901 21.5358 147.807 21.9071 147.807 22.4641C147.807 23.1139 147.714 23.4852 147.714 23.9493C147.714 25.0633 147.621 25.8987 147.621 26.9198L147.434 29.8903H144.077V35.6455H157.599V29.8903H154.242V15.6877H157.599V10.2109H146.968L144.264 15.4093C144.077 15.7806 143.891 16.1519 143.704 16.4303L138.296 26.6413C138.202 26.7341 138.202 26.827 138.109 26.9198C138.109 26.4557 138.109 25.9915 138.109 25.5274L138.389 15.7806H141.746V10.2109H128.317C128.317 10.2109 128.317 10.3038 128.317 10.4894Z" fill="white"/>
<path fill-rule="evenodd" clip-rule="evenodd" d="M161.889 17.9156C161.889 21.0717 163.288 23.7637 166.086 24.9704C166.459 25.1561 166.925 25.2489 167.298 25.4346L164.687 29.9831H160.77V35.7384H168.976C169.256 35.7384 169.536 35.0886 169.722 34.6244L171.121 32.2109C171.308 31.7468 171.587 31.3755 171.774 31.0042C172.52 29.7974 173.359 28.0337 174.105 26.827C174.572 26.0844 174.012 26.27 176.716 26.27V35.6455H188.093V29.8903H184.457V15.3164H188.093V10.2109H173.359C171.867 10.2109 170.095 10.3038 168.883 10.4894C166.365 10.9536 164.314 11.8818 163.008 14.1097C162.169 15.1308 161.889 16.616 161.889 17.9156ZM169.909 18.3797C169.909 17.6371 169.816 17.4514 170.189 16.8017C170.375 16.5232 170.562 16.2447 170.748 16.059C171.214 15.6877 171.867 15.3164 172.707 15.3164H176.623V20.9789H172.986C171.308 20.886 169.909 19.8649 169.909 18.3797Z" fill="white"/>
<path fill-rule="evenodd" clip-rule="evenodd" d="M68.0752 15.6877H71.2458C71.5256 15.6877 71.8054 16.5232 71.8986 16.8017C72.0851 17.2658 72.2716 17.6371 72.4581 18.1012C72.6446 18.4725 72.8312 18.9367 73.0177 19.4008C74.0435 21.9071 80.1982 35.5527 80.1982 35.7384C80.1982 36.1097 79.2657 37.8734 79.1724 38.5232H74.23C73.9502 38.5232 73.6704 38.4303 73.6704 38.8017V44.0928H82.8093L93.72 16.1519C93.8133 15.9662 93.8133 15.7806 93.9998 15.7806H97.2637V10.4894C97.2637 10.3038 97.1704 10.3038 97.0772 10.3038H85.3272V15.7806H87.9383L84.1149 26.27C84.0216 26.5485 84.0216 26.827 83.8351 26.9198C83.7419 26.4557 83.4621 25.9915 83.2756 25.5274L80.9442 19.9578C80.7577 19.4936 80.5712 19.0295 80.3847 18.5654L79.1724 15.7806H82.0633V10.2109H68.0752V15.6877Z" fill="white"/>
<path fill-rule="evenodd" clip-rule="evenodd" d="M99.5952 10.4896V19.958C99.5952 20.1437 99.6885 20.1437 99.7817 20.1437H104.538C104.724 20.1437 104.724 20.0508 104.724 19.958V15.7808H108.548V30.0761H105.19C105.004 30.0761 105.004 30.169 105.004 30.2618V35.5529C105.004 35.7386 105.097 35.7386 105.19 35.7386H119.738C119.925 35.7386 119.925 35.6458 119.925 35.5529V30.2618C119.925 30.0761 119.831 30.0761 119.738 30.0761H116.381V15.688H120.204V20.2365H125.427V10.4896C125.427 10.304 125.333 10.304 125.24 10.304H99.7817C99.5952 10.2112 99.5952 10.304 99.5952 10.4896Z" fill="white"/>
<path fill-rule="evenodd" clip-rule="evenodd" d="M36.4624 10.4894V15.7806H39.633C39.8195 15.7806 39.8195 15.8734 39.8195 15.9662V30.0759H36.6489C36.4624 30.0759 36.4624 30.1687 36.4624 30.2616V35.5527C36.4624 35.7384 36.5557 35.7384 36.6489 35.7384H50.8235V29.9831H47.5596V15.6877H50.1707V10.3966C50.1707 10.2109 50.0775 10.2109 49.9842 10.2109H36.6489C36.4624 10.2109 36.4624 10.3038 36.4624 10.4894Z" fill="white"/>
<path fill-rule="evenodd" clip-rule="evenodd" d="M53.3413 15.6877H56.0457L47.7461 22.6498C47.9326 22.9282 48.1191 23.2067 48.3989 23.4852L50.3572 25.9915C50.8235 26.5485 51.1965 27.0126 51.6628 27.5696C52.129 28.1266 52.5953 28.6835 53.0616 29.2405C53.2481 29.519 53.4346 29.7046 53.7143 30.0759L57.0715 34.1603C57.258 34.4388 57.5378 34.7173 57.7243 34.9957C57.9108 35.2742 58.2838 35.7384 58.4703 35.7384H65.8373V30.2616C65.8373 29.8903 64.5318 30.0759 63.7858 30.0759C63.506 30.0759 62.9465 30.1687 62.6667 30.0759L59.6826 26.6413C59.5893 26.5485 59.4961 26.4557 59.4028 26.3628C59.2163 26.0844 59.1231 25.9915 58.8433 25.713L57.5378 24.135C57.4445 24.0422 57.3512 23.9493 57.258 23.8565L55.6727 21.9071C56.0457 21.7215 56.3255 21.443 56.6052 21.1645C58.2838 19.6793 60.5219 18.0084 62.2004 16.5232C62.387 16.3375 63.0397 15.7806 63.2262 15.7806H65.8373V10.2109H53.3413V15.6877Z" fill="white"/>
<path fill-rule="evenodd" clip-rule="evenodd" d="M94.7461 3.2489H97.8235V4.08434H98.4762V2.69194H98.01V0.928223H97.2639V2.69194H96.7044V0.928223H96.0516V2.69194H95.3989V0.928223H94.7461V3.2489Z" fill="white"/>
<path fill-rule="evenodd" clip-rule="evenodd" d="M91.2958 1.11387C91.2958 1.94931 91.1093 3.34172 92.4149 3.34172C94.1867 3.34172 93.8137 -5.35846e-05 91.8554 1.11387C92.0419 0.1856 93.4407 1.11387 93.5339 0.0927734C93.1609 0.0927734 92.3216 0.0927734 92.0419 0.1856C91.5756 0.1856 91.2958 0.649735 91.2958 1.11387ZM92.5081 2.78476C91.7621 2.78476 91.8554 1.39235 92.4149 1.39235C93.1609 1.39235 92.9744 2.78476 92.5081 2.78476Z" fill="white"/>
<path fill-rule="evenodd" clip-rule="evenodd" d="M52.8749 1.11387C52.8749 1.94931 52.6884 3.34172 53.994 3.34172C55.7658 3.34172 55.3928 -5.35846e-05 53.4345 1.11387C53.621 0.1856 55.0198 1.11387 55.113 0.0927734C54.74 0.0927734 53.9007 0.0927734 53.621 0.1856C53.0614 0.1856 52.8749 0.649735 52.8749 1.11387ZM54.0872 2.78476C53.3412 2.78476 53.4345 1.39235 53.994 1.39235C54.6468 1.39235 54.4603 2.78476 54.0872 2.78476Z" fill="white"/>
<path fill-rule="evenodd" clip-rule="evenodd" d="M36.5557 3.24891H37.2084V2.13499C38.2342 2.13499 38.9803 2.22781 38.9803 0.928235C38.9803 -0.0928621 37.3017 0.0927919 36.5557 0.0927919V3.24891ZM37.8612 1.57802H37.2084V0.556927C37.9545 0.556927 38.2342 0.4641 38.2342 1.11389C38.2342 1.39237 38.0477 1.57802 37.8612 1.57802Z" fill="white"/>
<path fill-rule="evenodd" clip-rule="evenodd" d="M109.107 3.24903C110.506 3.24903 111.345 3.43469 111.345 2.50642C111.345 2.32076 111.159 2.13511 110.972 2.13511C111.065 1.7638 111.345 1.85663 111.252 1.39249C110.972 0.742704 109.853 0.928358 109.107 0.928358V3.24903ZM110.039 1.85663H109.853V1.39249H110.226C110.506 1.39249 110.226 1.39249 110.412 1.48532C110.412 1.85663 110.412 1.85663 110.039 1.85663ZM110.412 2.69207H109.853V2.22794H110.412C110.599 2.22794 110.599 2.32076 110.599 2.41359C110.599 2.50642 110.599 2.69207 110.412 2.69207Z" fill="white"/>
<path fill-rule="evenodd" clip-rule="evenodd" d="M138.575 3.2489C139.414 3.2489 139.228 3.34173 139.601 2.69194C139.788 2.41346 139.788 2.13497 140.067 1.94932V3.2489H140.72V0.928223C139.787 0.928223 140.067 0.928223 139.508 1.85649L139.228 2.2278V0.928223H138.575V3.2489Z" fill="white"/>
<path fill-rule="evenodd" clip-rule="evenodd" d="M145.196 3.2489C146.036 3.2489 145.849 3.34173 146.222 2.69194C146.409 2.41346 146.409 2.13497 146.688 1.94932V3.2489H147.341V0.928223C146.409 0.928223 146.688 0.928223 146.129 1.85649L145.849 2.2278V0.928223H145.196V3.2489Z" fill="white"/>
<path fill-rule="evenodd" clip-rule="evenodd" d="M59.5894 3.2489C60.4286 3.2489 60.2421 3.34173 60.6151 2.69194C60.8017 2.41346 60.8017 2.13497 61.0814 1.94932V3.2489H61.7342V0.928223C60.8017 0.928223 61.0814 0.928223 60.5219 1.85649C60.5219 1.94932 60.4286 1.94932 60.4286 2.04215C60.3354 2.2278 60.4286 2.13497 60.3354 2.2278V0.928223H59.6826V3.2489H59.5894Z" fill="white"/>
<path fill-rule="evenodd" clip-rule="evenodd" d="M79.5458 1.67095H80.1986C80.1986 1.20681 80.7581 1.20681 80.7581 1.8566C80.2918 1.8566 79.9188 1.76377 79.639 2.04225C78.893 2.59922 79.5458 3.80597 80.8513 2.97052C80.8513 3.43466 81.1311 3.249 81.5974 3.249C81.3176 1.94943 81.7839 0.742676 80.5716 0.742676C80.2918 0.742676 80.0121 0.835503 79.8255 0.92833C79.639 1.20681 79.5458 1.29964 79.5458 1.67095ZM80.1053 2.69204C80.1053 2.41356 80.1053 2.13508 80.3851 2.13508H80.7581V2.32073C80.8513 2.78487 80.3851 2.78487 80.1053 2.69204Z" fill="white"/>
<path fill-rule="evenodd" clip-rule="evenodd" d="M185.669 1.67095H186.322C186.322 1.20681 186.881 1.20681 186.881 1.8566C186.415 1.8566 186.042 1.76377 185.762 2.04225C185.016 2.59922 185.669 3.80597 186.974 2.97052C186.974 3.43466 187.254 3.249 187.72 3.249C187.441 1.94943 187.907 0.742676 186.695 0.742676C186.228 0.835503 185.669 1.02116 185.669 1.67095ZM186.322 2.69204C186.322 2.41356 186.322 2.13508 186.601 2.13508H186.974V2.32073C186.974 2.78487 186.601 2.78487 186.322 2.69204Z" fill="white"/>
<path fill-rule="evenodd" clip-rule="evenodd" d="M161.609 1.67095H162.262C162.262 1.20681 162.822 1.20681 162.822 1.8566C162.355 1.8566 161.982 1.76377 161.703 2.04225C160.956 2.59922 161.609 3.80597 162.915 2.97052C162.915 3.43466 163.195 3.249 163.661 3.249C163.381 1.94943 163.847 0.742676 162.635 0.742676C162.076 0.835503 161.609 1.02116 161.609 1.67095ZM162.169 2.69204C162.169 2.41356 162.169 2.13508 162.449 2.13508H162.822V2.32073C162.822 2.78487 162.449 2.78487 162.169 2.69204Z" fill="white"/>
<path fill-rule="evenodd" clip-rule="evenodd" d="M172.8 1.67095H173.452C173.452 1.20681 174.012 1.20681 174.012 1.8566C173.546 1.8566 173.173 1.76377 172.893 2.04225C172.147 2.59922 172.8 3.80597 174.105 2.97052C174.105 3.43466 174.385 3.249 174.851 3.249C174.572 1.94943 175.038 0.742676 173.825 0.742676C173.359 0.835503 172.893 1.02116 172.8 1.67095ZM173.452 2.69204C173.452 2.41356 173.452 2.13508 173.732 2.13508H174.105V2.32073C174.105 2.78487 173.732 2.78487 173.452 2.69204Z" fill="white"/>
<path fill-rule="evenodd" clip-rule="evenodd" d="M66.3969 1.67089H67.0496C67.0496 1.20676 67.6092 1.20676 67.6092 1.85655C67.1429 1.85655 66.7699 1.76372 66.4901 2.0422C65.7441 2.59916 66.3969 3.80591 67.7024 2.97047C67.7024 3.43461 67.9822 3.24895 68.4484 3.24895C68.2619 2.59916 68.3552 2.41351 68.2619 1.67089C68.3552 0.464143 66.3969 0.55697 66.3969 1.67089ZM66.9564 2.69199C66.9564 2.41351 66.9564 2.13503 67.2361 2.13503H67.6092V2.32068C67.7024 2.78482 67.2361 2.78482 66.9564 2.69199Z" fill="white"/>
<path fill-rule="evenodd" clip-rule="evenodd" d="M62.9463 3.2489H63.6923V2.32063C63.9721 2.41345 63.9721 2.41346 64.0653 2.69194C64.1586 2.87759 64.2518 3.06324 64.3451 3.2489H65.2776C65.0911 2.87759 64.7181 2.41345 64.4383 1.94932C64.5316 1.76367 64.7181 1.57801 64.8114 1.39236C64.9979 1.29953 65.0911 1.11388 65.2776 0.928223H64.4383C64.3451 1.11388 64.2518 1.2067 64.1586 1.39236C63.9721 1.67084 64.0653 1.76367 63.7856 1.85649V0.928223H63.0395V3.2489H62.9463Z" fill="white"/>
<path fill-rule="evenodd" clip-rule="evenodd" d="M76.0952 3.24895H76.8413V2.32068C77.121 2.41351 77.2143 2.69199 77.494 3.24895H78.4266C78.3333 2.97047 78.1468 2.87764 77.9603 2.59916C77.7738 2.32068 77.6805 2.22785 77.5873 1.94937C77.6805 1.76372 77.867 1.57807 77.9603 1.39241C78.0536 1.20676 78.2401 1.0211 78.3333 0.835449H77.494C77.121 1.29958 77.121 1.67089 76.8413 1.76372V0.928276H76.0952V3.24895Z" fill="white"/>
<path fill-rule="evenodd" clip-rule="evenodd" d="M158.159 3.2489H158.905V2.32063C159.184 2.41345 159.278 2.69194 159.557 3.2489H160.49C160.304 2.87759 159.93 2.41345 159.651 1.94932L160.397 0.928223H159.557C159.184 1.39236 159.184 1.76367 158.905 1.85649V0.928223H158.159V3.2489Z" fill="white"/>
<path fill-rule="evenodd" clip-rule="evenodd" d="M164.78 1.76385C164.78 2.04233 165.06 2.22798 165.246 2.32081C165.06 2.59929 164.873 2.9706 164.687 3.24908H165.433C165.526 2.9706 165.526 2.9706 165.712 2.78494C165.899 2.50646 165.806 2.50646 166.179 2.50646V3.3419H166.831V0.928403C165.992 0.928403 164.78 0.649922 164.78 1.76385ZM165.433 1.76385C165.526 1.57819 165.526 1.48537 165.712 1.48537H166.179V2.04233H165.992C165.619 2.04233 165.526 1.9495 165.433 1.76385Z" fill="white"/>
<path fill-rule="evenodd" clip-rule="evenodd" d="M82.7163 1.76385C82.7163 2.04233 82.9961 2.22798 83.1826 2.32081C82.9961 2.59929 82.8096 2.9706 82.623 3.24908H83.3691C83.4623 2.9706 83.4623 2.9706 83.6488 2.78494C83.8353 2.50646 83.7421 2.50646 84.1151 2.50646V3.3419H84.8611V0.928403C84.0219 0.928403 82.7163 0.649922 82.7163 1.76385ZM83.3691 1.76385C83.4623 1.57819 83.4623 1.48537 83.6488 1.48537H84.1151V2.04233H83.9286C83.6488 2.04233 83.5556 1.9495 83.3691 1.76385Z" fill="white"/>
<path fill-rule="evenodd" clip-rule="evenodd" d="M49.7046 3.71303C49.7046 3.99151 49.6113 4.26999 49.8911 4.26999C51.1034 4.26999 51.0101 2.50628 51.7562 0.928223H51.0101L50.6371 1.94932L50.5439 2.13497C50.5439 2.13497 50.5439 2.13497 50.5439 2.2278L50.4506 2.32063C50.5439 1.85649 50.2641 1.29953 50.2641 0.928223H49.5181C49.7978 2.13497 51.0101 3.62021 49.7046 3.71303Z" fill="white"/>
<path fill-rule="evenodd" clip-rule="evenodd" d="M128.504 3.2489H129.25V1.39236H129.996V3.2489H130.649V0.928223H128.504V3.2489Z" fill="white"/>
<path fill-rule="evenodd" clip-rule="evenodd" d="M46.4404 3.2489H47.0932V1.39236H47.8392V3.2489H48.492V0.928223H46.4404V3.2489Z" fill="white"/>
<path fill-rule="evenodd" clip-rule="evenodd" d="M112.464 1.76372C112.464 2.32068 112.464 3.24895 113.583 3.24895C113.956 3.24895 114.143 3.0633 114.516 3.0633C114.516 2.87764 114.516 2.78482 114.423 2.59916C113.956 2.59916 113.304 3.0633 113.117 2.22785H114.516C114.516 1.57807 114.516 0.835449 113.49 0.835449C112.931 0.835449 112.464 1.29958 112.464 1.76372ZM113.863 1.76372H113.117C113.21 1.57807 113.21 1.39241 113.49 1.29958C113.77 1.39241 113.863 1.57807 113.863 1.76372Z" fill="white"/>
<path fill-rule="evenodd" clip-rule="evenodd" d="M40.0059 1.76372C40.0059 2.32068 40.0059 3.24895 41.1249 3.24895C41.4979 3.24895 41.6844 3.0633 42.0574 3.0633C42.0574 2.87764 42.0574 2.78482 41.9642 2.59916C41.4979 2.59916 40.8451 3.0633 40.6586 2.22785H42.0574C42.0574 1.57807 42.0574 0.835449 41.0317 0.835449C40.5654 0.835449 40.0059 1.29958 40.0059 1.76372ZM41.4047 1.76372H40.6586C40.7519 1.57807 40.7519 1.39241 41.0317 1.29958C41.3114 1.39241 41.4047 1.57807 41.4047 1.76372Z" fill="white"/>
<path fill-rule="evenodd" clip-rule="evenodd" d="M151.817 1.76372C151.817 2.32068 151.817 3.24895 152.936 3.24895C153.309 3.24895 153.496 3.0633 153.869 3.0633C153.869 2.87764 153.869 2.78482 153.776 2.59916C153.309 2.59916 152.657 3.0633 152.47 2.22785H153.869C153.869 1.57807 153.869 0.835449 152.843 0.835449C152.377 0.835449 151.817 1.29958 151.817 1.76372ZM153.216 1.76372H152.47C152.563 1.57807 152.563 1.39241 152.843 1.29958C153.123 1.39241 153.216 1.57807 153.216 1.76372Z" fill="white"/>
<path fill-rule="evenodd" clip-rule="evenodd" d="M179.327 1.76372C179.327 2.32068 179.327 3.24895 180.446 3.24895C180.819 3.24895 181.006 3.0633 181.379 3.0633C181.379 2.87764 181.379 2.78482 181.285 2.59916C180.819 2.59916 180.166 3.0633 179.98 2.22785H181.379C181.379 1.57807 181.379 0.835449 180.353 0.835449C179.887 0.835449 179.327 1.29958 179.327 1.76372ZM180.726 1.76372H179.98C180.073 1.57807 180.073 1.39241 180.353 1.29958C180.726 1.39241 180.726 1.57807 180.726 1.76372Z" fill="white"/>
<path fill-rule="evenodd" clip-rule="evenodd" d="M99.5952 1.76372C99.5952 2.32068 99.5952 3.24895 100.714 3.24895C101.087 3.24895 101.274 3.0633 101.647 3.0633C101.647 2.87764 101.647 2.78482 101.554 2.59916C101.087 2.59916 100.434 3.0633 100.248 2.22785H101.647C101.647 1.57807 101.647 0.835449 100.621 0.835449C100.155 0.835449 99.5952 1.29958 99.5952 1.76372ZM100.994 1.76372H100.248C100.341 1.57807 100.341 1.39241 100.621 1.29958C100.901 1.39241 100.994 1.57807 100.994 1.76372Z" fill="white"/>
<path fill-rule="evenodd" clip-rule="evenodd" d="M88.0317 1.76377C88.0317 2.32073 88.0317 3.249 89.1508 3.249C90.6428 3.249 90.6428 0.742676 89.1508 0.742676C88.5913 0.835503 88.0317 1.29964 88.0317 1.76377ZM89.1508 2.78487C88.498 2.78487 88.498 1.39246 89.1508 1.39246C89.7103 1.39246 89.8036 2.78487 89.1508 2.78487Z" fill="white"/>
<path fill-rule="evenodd" clip-rule="evenodd" d="M135.498 1.76367C135.498 2.2278 135.405 2.2278 135.405 2.59911C135.218 2.69194 135.312 2.69194 135.032 2.69194V3.2489C136.244 3.2489 136.151 2.59911 136.151 1.48518H136.71V3.2489H137.363V0.928223H135.498V1.76367Z" fill="white"/>
<path fill-rule="evenodd" clip-rule="evenodd" d="M56.5117 1.76367C56.5117 2.2278 56.4184 2.2278 56.4184 2.59911C56.2319 2.69194 56.3252 2.69194 56.0454 2.69194V3.2489C57.2577 3.2489 57.1645 2.59911 57.1645 1.48518H57.724V3.2489H58.3768V0.928223H56.5117V1.76367Z" fill="white"/>
<path fill-rule="evenodd" clip-rule="evenodd" d="M122.349 1.76377C122.349 2.32073 122.349 3.249 123.468 3.249C124.96 3.249 124.96 0.742676 123.468 0.742676C122.909 0.835503 122.349 1.29964 122.349 1.76377ZM123.468 2.78487C122.815 2.78487 122.815 1.39246 123.468 1.39246C124.028 1.39246 124.121 2.78487 123.468 2.78487Z" fill="white"/>
<path fill-rule="evenodd" clip-rule="evenodd" d="M131.861 1.76377C131.861 2.32073 131.861 3.249 132.98 3.249C134.472 3.249 134.472 0.742676 132.98 0.742676C132.421 0.835503 131.861 1.29964 131.861 1.76377ZM132.98 2.78487C132.328 2.78487 132.328 1.39246 132.98 1.39246C133.54 1.39246 133.633 2.78487 132.98 2.78487Z" fill="white"/>
<path fill-rule="evenodd" clip-rule="evenodd" d="M69.6606 3.2489H70.3134V2.32063H71.0595V3.2489H71.7122V0.928223H71.0595V1.85649H70.3134V0.928223H69.6606V3.2489Z" fill="white"/>
<path fill-rule="evenodd" clip-rule="evenodd" d="M119.085 3.2489H119.738V2.32063H120.484V3.2489H121.23V0.928223H120.484V1.85649H119.738V0.928223H119.085V3.2489Z" fill="white"/>
<path fill-rule="evenodd" clip-rule="evenodd" d="M115.635 3.2489H116.381V2.32063H117.127V3.2489H117.78V0.928223H117.127V1.85649H116.381V0.928223H115.635V3.2489Z" fill="white"/>
<path fill-rule="evenodd" clip-rule="evenodd" d="M176.063 1.67075H176.716C176.809 1.29944 177.369 1.11379 177.369 1.76358C177.183 1.8564 176.996 1.8564 176.623 1.8564V2.32054C177.276 2.32054 177.369 2.22771 177.462 2.59902C177.276 2.8775 177.089 2.8775 176.809 2.78467L175.877 2.59902C175.97 3.71294 178.115 3.71294 178.115 2.59902C178.115 2.41337 177.929 2.32054 177.835 2.13488C178.022 1.8564 178.302 1.67075 178.022 1.29944C177.742 0.742479 176.063 0.463998 176.063 1.67075Z" fill="white"/>
<path fill-rule="evenodd" clip-rule="evenodd" d="M73.9506 3.34166C74.6034 3.34166 74.8832 2.97035 74.9764 2.41339H74.3236C74.2304 2.97035 73.5776 2.87752 73.5776 2.22773C73.5776 0.928154 74.3236 1.20663 74.3236 1.7636C74.8831 1.7636 75.1629 1.85642 74.8832 1.29946C74.5101 0.464019 72.9248 0.556846 72.8315 2.04208C72.8315 2.78469 73.2978 3.34166 73.9506 3.34166Z" fill="white"/>
<path fill-rule="evenodd" clip-rule="evenodd" d="M156.014 3.34166C156.667 3.34166 156.947 2.97035 157.04 2.41339H156.387C156.294 2.97035 155.641 2.87752 155.641 2.22773C155.641 0.928154 156.387 1.20663 156.387 1.7636C156.947 1.7636 157.226 1.85642 156.947 1.29946C156.574 0.464019 154.988 0.556846 154.895 2.04208C154.988 2.78469 155.361 3.34166 156.014 3.34166Z" fill="white"/>
<path fill-rule="evenodd" clip-rule="evenodd" d="M44.2025 3.34166C44.8553 3.34166 45.1351 2.97035 45.2283 2.41339H44.5756C44.5756 2.97035 43.8295 2.87752 43.8295 2.22773C43.8295 0.928154 44.5756 1.20663 44.5756 1.7636C45.1351 1.7636 45.4148 1.85642 45.1351 1.29946C44.7621 0.464019 43.1768 0.556846 43.0835 2.04208C43.1768 2.78469 43.5498 3.34166 44.2025 3.34166Z" fill="white"/>
<path fill-rule="evenodd" clip-rule="evenodd" d="M103.792 3.3416C104.445 3.3416 104.724 2.97029 104.818 2.41333H104.165C104.165 2.69181 103.978 2.78464 103.699 2.78464C103.326 2.69181 103.326 2.22768 103.326 1.9492C103.326 1.39224 103.978 1.11375 104.072 1.85637C104.631 1.85637 104.911 1.9492 104.631 1.39224C104.258 0.556792 102.673 0.649619 102.58 2.13485C102.673 2.78464 103.139 3.3416 103.792 3.3416Z" fill="white"/>
<path fill-rule="evenodd" clip-rule="evenodd" d="M148.46 1.76367C148.46 2.50628 149.3 2.50628 149.859 2.50628V3.15607H150.512V0.928223H149.859V2.04215C149.02 2.04215 149.113 2.13497 149.113 0.928223H148.46V1.76367Z" fill="white"/>
<path fill-rule="evenodd" clip-rule="evenodd" d="M182.405 1.39236H183.151V3.2489H183.897V1.39236H184.643V0.928223H182.405V1.39236Z" fill="white"/>
<path fill-rule="evenodd" clip-rule="evenodd" d="M105.75 1.39236H106.496V3.2489H107.242V1.39236H107.988V0.928223H105.75V1.39236Z" fill="white"/>
<path fill-rule="evenodd" clip-rule="evenodd" d="M141.839 1.39236H142.585V3.2489H143.238V1.39236H143.984V0.928223H141.839V1.39236Z" fill="white"/>
<path fill-rule="evenodd" clip-rule="evenodd" d="M170.095 3.2489H170.748V1.39236H171.774V0.928223H170.095V3.2489Z" fill="white"/>
<path d="M127.292 1.57812H125.893V2.13509H127.292V1.57812Z" fill="white"/>
</g>
<defs>
<clipPath id="clip0_316_46">
<rect width="188" height="44" fill="white"/>
</clipPath>
</defs>
</svg>
