<svg width="86" height="24" viewBox="0 0 86 24" fill="none" xmlns="http://www.w3.org/2000/svg">
<g clip-path="url(#clip0_316_300)">
<path d="M34.2415 7.57983C33.6675 7.57983 33.1925 7.67827 32.7768 7.85547C32.3612 8.03266 32.0049 8.28861 31.7278 8.60362V7.81609H29.1943V19.57H31.7278V15.4158C32.0049 15.7308 32.3612 15.9867 32.7768 16.1639C33.1925 16.3411 33.6873 16.4396 34.2415 16.4396C34.7957 16.4396 35.3103 16.3214 35.8052 16.1048C36.2802 15.8883 36.7156 15.5733 37.0917 15.1598C37.4678 14.766 37.7449 14.2935 37.9626 13.7619C38.1803 13.2304 38.2793 12.6397 38.2793 12.0097C38.2793 11.3797 38.1605 10.789 37.9626 10.2574C37.7449 9.72585 37.4678 9.25333 37.0917 8.85957C36.7156 8.4658 36.3 8.15079 35.8052 7.91453C35.3301 7.69796 34.7957 7.57983 34.2415 7.57983ZM33.7467 14.0573C33.3508 14.0573 33.0144 13.9785 32.7175 13.8013C32.4206 13.6438 32.1831 13.4076 32.0049 13.0925C31.8268 12.7972 31.7476 12.4231 31.7476 12.0097C31.7476 11.5962 31.8466 11.2222 32.0049 10.9268C32.1831 10.6315 32.4206 10.3953 32.7175 10.2181C33.0144 10.0606 33.3706 9.96211 33.7467 9.96211C34.1426 9.96211 34.479 10.0409 34.7759 10.2181C35.0728 10.3756 35.3103 10.6118 35.4885 10.9268C35.6666 11.2222 35.7458 11.5962 35.7458 12.0097C35.7458 12.4231 35.6468 12.7972 35.4885 13.0925C35.3103 13.3879 35.0728 13.6241 34.7759 13.8013C34.479 13.9588 34.1228 14.0573 33.7467 14.0573ZM43.7619 16.4396C44.3953 16.4396 44.9692 16.3214 45.5037 16.1048C46.0381 15.8883 46.5131 15.5733 46.9287 15.1598C47.3444 14.766 47.6611 14.2935 47.8788 13.7619C48.1163 13.2304 48.2153 12.6397 48.2351 12.0097C48.2351 11.3797 48.1163 10.789 47.8788 10.2574C47.6413 9.72585 47.3246 9.25333 46.9287 8.85957C46.5131 8.4658 46.0381 8.15079 45.5037 7.91453C44.9692 7.69796 44.3755 7.57983 43.7619 7.57983C43.1285 7.57983 42.5545 7.69796 42.0201 7.91453C41.4857 8.1311 41.0107 8.44611 40.595 8.85957C40.1794 9.25333 39.8627 9.72585 39.645 10.2574C39.4075 10.789 39.3085 11.3797 39.2887 12.0097C39.2887 12.6397 39.4075 13.2304 39.645 13.7619C39.8825 14.2935 40.1992 14.766 40.595 15.1598C41.0107 15.5536 41.4857 15.8686 42.0201 16.1048C42.5545 16.3214 43.1285 16.4396 43.7619 16.4396ZM43.7619 13.9785C43.3858 13.9785 43.0691 13.8998 42.7722 13.7226C42.4753 13.5651 42.2576 13.3288 42.0795 13.0335C41.9014 12.7382 41.8222 12.3838 41.8222 11.99C41.8222 11.5962 41.9211 11.2418 42.0795 10.9465C42.2576 10.6512 42.4753 10.4149 42.7722 10.2574C43.0691 10.0999 43.3858 10.0015 43.7619 10.0015C44.1379 10.0015 44.4546 10.0802 44.7515 10.2574C45.0484 10.4149 45.2661 10.6512 45.4443 10.9465C45.6224 11.2418 45.7016 11.5962 45.7016 11.99C45.7016 12.3838 45.6026 12.7382 45.4443 13.0335C45.2661 13.3288 45.0484 13.5651 44.7515 13.7226C44.4546 13.8998 44.1379 13.9785 43.7619 13.9785ZM49.6602 16.2033H52.1936V3.9375H49.6602V16.2033ZM59.3785 7.81609L57.795 12.9547L55.9147 7.81609H53.1239L56.4887 15.8292C56.3699 16.1639 56.2116 16.4396 56.0335 16.6364C55.8553 16.8333 55.6376 16.9908 55.3605 17.0696C55.0834 17.168 54.7667 17.2074 54.3709 17.2074V19.5503C55.1626 19.5897 55.8553 19.4912 56.4491 19.255C57.0627 19.0187 57.5773 18.6249 58.0325 18.0934C58.4878 17.5421 58.8638 16.8333 59.1805 15.9473L62.0703 7.7964H59.3785V7.81609ZM63.0005 16.2033H65.534V3.9375H63.0005V16.2033ZM71.4323 16.4396C72.0657 16.4396 72.6397 16.3214 73.1741 16.1048C73.7085 15.8883 74.1835 15.5733 74.5992 15.1598C75.0148 14.766 75.3315 14.2935 75.5492 13.7619C75.7867 13.2304 75.8857 12.6397 75.9055 12.0097C75.9055 11.3797 75.7867 10.789 75.5492 10.2574C75.3117 9.72585 74.995 9.25333 74.5992 8.85957C74.1835 8.4658 73.7085 8.15079 73.1741 7.91453C72.6397 7.69796 72.0459 7.57983 71.4323 7.57983C70.7989 7.57983 70.2249 7.69796 69.6905 7.91453C69.1561 8.1311 68.6811 8.44611 68.2654 8.85957C67.8498 9.25333 67.5331 9.72585 67.3154 10.2574C67.0779 10.789 66.9789 11.3797 66.9591 12.0097C66.9591 12.6397 67.0779 13.2304 67.3154 13.7619C67.5529 14.2935 67.8696 14.766 68.2654 15.1598C68.6811 15.5536 69.1561 15.8686 69.6905 16.1048C70.2249 16.3214 70.8187 16.4396 71.4323 16.4396ZM71.4323 13.9785C71.0562 13.9785 70.7396 13.8998 70.4427 13.7226C70.1458 13.5651 69.9281 13.3288 69.7499 13.0335C69.5718 12.7382 69.4926 12.3838 69.4926 11.99C69.4926 11.5962 69.5916 11.2418 69.7499 10.9465C69.9281 10.6512 70.1458 10.4149 70.4427 10.2574C70.7396 10.0999 71.0562 10.0015 71.4323 10.0015C71.8084 10.0015 72.1251 10.0802 72.422 10.2574C72.7188 10.4149 72.9366 10.6512 73.1147 10.9465C73.2928 11.2418 73.372 11.5962 73.372 11.99C73.372 12.3838 73.273 12.7382 73.1147 13.0335C72.9366 13.3288 72.7188 13.5651 72.422 13.7226C72.1449 13.8998 71.8084 13.9785 71.4323 13.9785ZM83.5455 7.81609V8.66268C83.2684 8.3083 82.932 8.05235 82.5163 7.85547C82.1007 7.65858 81.6256 7.57983 81.0912 7.56014C80.4974 7.56014 79.9432 7.67827 79.4286 7.89484C78.9338 8.11141 78.4786 8.42642 78.1223 8.82019C77.7462 9.21396 77.4691 9.66679 77.2514 10.1787C77.0535 10.6906 76.9347 11.2418 76.9347 11.8128C76.9347 12.4035 77.0337 12.935 77.2514 13.4469C77.4493 13.9588 77.7462 14.4117 78.1223 14.8054C78.4984 15.1992 78.9338 15.5142 79.4286 15.7308C79.9234 15.9473 80.4777 16.0655 81.0912 16.0655C81.6454 16.0655 82.1205 15.967 82.5163 15.7701C82.932 15.5733 83.2684 15.3173 83.5455 14.9629V15.7308C83.5455 16.1245 83.4664 16.4592 83.308 16.7349C83.1497 17.0105 82.932 17.2074 82.6549 17.3255C82.3778 17.4633 82.0413 17.5224 81.6454 17.5224C81.2694 17.5224 80.9725 17.4633 80.7152 17.3846C80.4579 17.2861 80.2599 17.168 80.1016 17.0105C79.9432 16.853 79.8047 16.6758 79.7057 16.4789L77.5483 17.7193C77.8056 18.1721 78.1421 18.5462 78.5379 18.8612C78.9338 19.1565 79.389 19.3928 79.9037 19.5306C80.4183 19.6881 80.9527 19.7472 81.5465 19.7472C82.0017 19.7472 82.4371 19.7078 82.8726 19.6094C83.308 19.5109 83.7039 19.3534 84.0799 19.1565C84.456 18.9596 84.7925 18.684 85.0696 18.369C85.3467 18.054 85.5842 17.6799 85.7426 17.2468C85.9009 16.8136 85.9801 16.3017 85.9999 15.7505V7.81609H83.5455ZM81.4871 13.7816C81.0912 13.7816 80.735 13.7029 80.4183 13.5257C80.1214 13.3682 79.8839 13.1319 79.7057 12.8366C79.5276 12.5413 79.4484 12.2066 79.4484 11.8128C79.4484 11.419 79.5474 11.0843 79.7057 10.789C79.8839 10.4937 80.1214 10.2771 80.4183 10.0999C80.7152 9.94242 81.0714 9.86367 81.4871 9.84398C81.8829 9.84398 82.2392 9.92273 82.5559 10.0999C82.8528 10.2574 83.0903 10.4937 83.2684 10.789C83.4466 11.0843 83.5257 11.419 83.5257 11.8128C83.5257 12.2066 83.4268 12.5413 83.2684 12.8366C83.0903 13.1319 82.8528 13.3485 82.5559 13.5257C82.259 13.7029 81.9027 13.7816 81.4871 13.7816Z" fill="white"/>
<path fill-rule="evenodd" clip-rule="evenodd" d="M12.0736 0C18.7438 0 24.1473 5.3749 24.1473 12.0098C24.1473 18.6448 18.7438 24.0197 12.0736 24.0197C5.40345 24.0197 0 18.6448 0 12.0098C0 5.3749 5.40345 0 12.0736 0Z" fill="#F93822"/>
<path fill-rule="evenodd" clip-rule="evenodd" d="M5.89847 5.86702C7.69963 4.80385 9.81746 4.17383 12.0738 4.17383C14.3302 4.17383 16.4283 4.78416 18.2492 5.86702C19.318 7.65865 19.9514 9.7653 19.9514 12.0098C19.9514 14.2542 19.3378 16.3412 18.2492 18.1525C16.4481 19.2157 14.3302 19.8457 12.0738 19.8457C9.81746 19.8457 7.69963 19.2354 5.89847 18.1525C4.82966 16.3412 4.19629 14.2345 4.19629 12.0098C4.19629 9.7653 4.82966 7.65865 5.89847 5.86702Z" fill="#FA6447"/>
<path fill-rule="evenodd" clip-rule="evenodd" d="M8.41211 8.36768H15.7157V15.6326H8.41211V8.36768Z" fill="white"/>
</g>
<defs>
<clipPath id="clip0_316_300">
<rect width="86" height="24" fill="white"/>
</clipPath>
</defs>
</svg>
